M48
;Layer_Color=9474304
;FILE_FORMAT=2:5
INCH,LZ
;TYPE=PLATED
T1F00S00C0.00787
T2F00S00C0.00984
T3F00S00C0.01000
T4F00S00C0.01181
T5F00S00C0.01968
T6F00S00C0.02800
T7F00S00C0.03150
T8F00S00C0.03800
T9F00S00C0.03937
%
T01
X01575Y03232
Y03257
X0456986Y03601
X04567Y0363359
X0465Y03759
X0465677Y0378132
X0473Y03824
X0471176Y0384355
X0473Y03863
X04714Y0388177
X04791Y03869
X0481719Y0386815
X0481678Y03843
X0479119Y0381789
X0481636Y0379221
X0484242Y0379268
X0486779Y0379246
X04894Y03793
X0491898Y0379246
X0494416Y0379287
X0494408Y03844
X04919Y03869
X04918Y03819
X0489339Y0381805
X0489357Y0384339
X0486779Y0384364
Y0386923
X0484319Y0386774
X04893Y03894
X04831Y03954
X0484195Y0376661
X0479122Y0376667
X04772Y037
X0481678Y0368911
X04837Y03706
X04966Y0368
X05007Y0377941
X05023Y03849
X05426Y0365437
X05416Y03634
T02
X04893Y03965
X05422Y0356
T03
X01296Y03258
X01363Y03198
T04
X03718Y03478
Y03631
X03876Y03692
X0392818Y0372282
X04233Y03739
X04284Y03742
X04349
X0439903Y0365524
X04454Y03986
X04459Y04066
X04994Y03968
T05
X0213489Y03519
X02301Y03516
X02489Y03503
X02959Y0324741
X0340149Y03969
X0377464Y03963
X04134Y0418004
X04226Y04181
X04636Y03545
X05283Y0359563
X05293Y03814
X05255Y03948
X0497069Y04162
X04792Y04165
X0484602Y0430902
X05349Y03431
T06
X03049Y0311167
X03111Y0344341
X0311Y0380041
X02686Y04326
X0219Y04286
X03162Y04262
Y04318
X03245Y04649
X04587Y0434
X04741Y03349
T07
X0217126Y03165
X0225
T08
X05052Y0322628
X05152
X05252
X05352
X05452
X05288Y04457
Y04557
T09
X01175Y0462
X02486Y0411555
Y0403681
X0509Y0462
M30
