G04*
G04 #@! TF.GenerationSoftware,Altium Limited,Altium Designer,19.0.10 (269)*
G04*
G04 Layer_Color=8388736*
%FSLAX44Y44*%
%MOMM*%
G71*
G01*
G75*
D14*
X1285414Y920988D02*
D03*
X1299414D02*
D03*
X1355964Y933346D02*
D03*
X1369964D02*
D03*
X1355710Y913638D02*
D03*
X1369710D02*
D03*
X1299414Y933030D02*
D03*
X1285414D02*
D03*
X1174242Y1055210D02*
D03*
X1188242D02*
D03*
X1311290Y958342D02*
D03*
X1297290D02*
D03*
X1415572Y945896D02*
D03*
X1401572D02*
D03*
X1341262Y983854D02*
D03*
X1327262D02*
D03*
X1247506Y1032256D02*
D03*
X1261506D02*
D03*
X1298986Y995922D02*
D03*
X1284986D02*
D03*
X1298986Y1008126D02*
D03*
X1284986D02*
D03*
X1247506Y1044702D02*
D03*
X1261506D02*
D03*
D15*
X1271016Y922932D02*
D03*
Y909932D02*
D03*
X1285494Y958134D02*
D03*
Y945134D02*
D03*
X1401572Y971088D02*
D03*
Y958088D02*
D03*
D16*
X434340Y877266D02*
D03*
Y858266D02*
D03*
X369570Y856386D02*
D03*
Y875386D02*
D03*
X316992Y864766D02*
D03*
Y845766D02*
D03*
X504952Y839821D02*
D03*
Y858821D02*
D03*
X765556Y865339D02*
D03*
Y846339D02*
D03*
X721106Y790856D02*
D03*
Y809856D02*
D03*
X686308Y868356D02*
D03*
Y849356D02*
D03*
X658876Y868356D02*
D03*
Y849356D02*
D03*
X779628Y1036098D02*
D03*
Y1017098D02*
D03*
X762048Y965608D02*
D03*
Y984608D02*
D03*
X707238Y1035152D02*
D03*
Y1016152D02*
D03*
D17*
X381508Y812596D02*
D03*
Y831596D02*
D03*
X357508D02*
D03*
Y822096D02*
D03*
Y812596D02*
D03*
X381508Y822096D02*
D03*
D18*
X449936Y790956D02*
D03*
X430936D02*
D03*
D19*
X1213670Y953470D02*
D03*
Y959970D02*
D03*
X1259170Y946970D02*
D03*
X1252670D02*
D03*
X1246170D02*
D03*
X1239670D02*
D03*
X1233170D02*
D03*
X1226670D02*
D03*
X1220170D02*
D03*
X1213670D02*
D03*
X1259170Y953470D02*
D03*
X1252670D02*
D03*
X1246170D02*
D03*
X1239670D02*
D03*
X1233170D02*
D03*
X1226670D02*
D03*
X1220170D02*
D03*
X1259170Y959970D02*
D03*
X1252670D02*
D03*
X1246170D02*
D03*
X1239670D02*
D03*
X1233170D02*
D03*
X1226670D02*
D03*
X1220170D02*
D03*
X1259170Y966470D02*
D03*
X1252670D02*
D03*
X1246170D02*
D03*
X1239670D02*
D03*
X1233170D02*
D03*
X1226670D02*
D03*
X1220170D02*
D03*
X1213670D02*
D03*
X1259170Y972970D02*
D03*
X1252670D02*
D03*
X1246170D02*
D03*
X1239670D02*
D03*
X1233170D02*
D03*
X1226670D02*
D03*
X1220170D02*
D03*
X1213670D02*
D03*
X1259170Y979470D02*
D03*
X1252670D02*
D03*
X1246170D02*
D03*
X1239670D02*
D03*
X1233170D02*
D03*
X1226670D02*
D03*
X1220170D02*
D03*
X1213670D02*
D03*
X1259170Y985970D02*
D03*
X1252670D02*
D03*
X1246170D02*
D03*
X1239670D02*
D03*
X1233170D02*
D03*
X1226670D02*
D03*
X1220170D02*
D03*
X1213670D02*
D03*
X1259170Y992470D02*
D03*
X1252670D02*
D03*
X1246170D02*
D03*
X1239670D02*
D03*
X1233170D02*
D03*
X1226670D02*
D03*
X1220170D02*
D03*
X1213670D02*
D03*
D20*
X1256604Y919988D02*
D03*
X1233104D02*
D03*
D21*
X1191222Y1036460D02*
D03*
X1174222D02*
D03*
Y1023460D02*
D03*
X1191222D02*
D03*
D22*
X1026769Y1035571D02*
D03*
X1006769Y1026071D02*
D03*
Y1045071D02*
D03*
X931757Y1036065D02*
D03*
X911757Y1026565D02*
D03*
Y1045565D02*
D03*
D23*
X1118170Y1002540D02*
D03*
Y1012040D02*
D03*
Y1021540D02*
D03*
X1094170D02*
D03*
Y1002540D02*
D03*
X480314Y839266D02*
D03*
Y848766D02*
D03*
Y858266D02*
D03*
X456314D02*
D03*
Y839266D02*
D03*
D24*
X556748Y912887D02*
D03*
D25*
X568178Y913062D02*
D03*
D26*
X570868Y930842D02*
D03*
X557868D02*
D03*
X570868Y894842D02*
D03*
X557868D02*
D03*
X564368D02*
D03*
Y930842D02*
D03*
D27*
X916361Y1067927D02*
D03*
X935361D02*
D03*
X1010970Y1067816D02*
D03*
X1029970D02*
D03*
X1116076Y982472D02*
D03*
X1097076D02*
D03*
X1115822Y1041654D02*
D03*
X1096822D02*
D03*
X1190346Y850542D02*
D03*
X1171346D02*
D03*
X1384758Y846328D02*
D03*
X1365758D02*
D03*
D28*
X886085Y1045525D02*
D03*
Y1026525D02*
D03*
X981049Y1045071D02*
D03*
Y1026071D02*
D03*
X863819Y1045525D02*
D03*
Y1026525D02*
D03*
X958596Y1045071D02*
D03*
Y1026071D02*
D03*
D29*
X316230Y776638D02*
D03*
Y796638D02*
D03*
X475996Y817880D02*
D03*
Y797880D02*
D03*
X694182Y810364D02*
D03*
Y790364D02*
D03*
X748030D02*
D03*
Y810364D02*
D03*
X632206Y868520D02*
D03*
Y848520D02*
D03*
X707898Y984928D02*
D03*
Y964928D02*
D03*
X606044Y848426D02*
D03*
Y868426D02*
D03*
X734568Y965248D02*
D03*
Y985248D02*
D03*
D30*
X450182Y817118D02*
D03*
X430182D02*
D03*
X551470Y849122D02*
D03*
X571470D02*
D03*
X584368Y947674D02*
D03*
X564368D02*
D03*
X707456Y1068832D02*
D03*
X727456D02*
D03*
D31*
X1376950Y945844D02*
D03*
X1389950D02*
D03*
X1338026Y945895D02*
D03*
X1351026D02*
D03*
X1299314Y946150D02*
D03*
X1312314D02*
D03*
X1298598Y971972D02*
D03*
X1285598D02*
D03*
X1370434Y983996D02*
D03*
X1383434D02*
D03*
X1285598Y983996D02*
D03*
X1298598D02*
D03*
X1261044Y1019858D02*
D03*
X1248044D02*
D03*
D32*
X742326Y894839D02*
D03*
X766826D02*
D03*
X755084Y1065634D02*
D03*
X779584D02*
D03*
D33*
X958868Y798586D02*
D03*
D34*
X944118Y783336D02*
D03*
X973618D02*
D03*
D35*
X1419860Y923290D02*
D03*
D36*
X1435110Y908540D02*
D03*
Y938040D02*
D03*
D37*
X269178Y812800D02*
D03*
Y829550D02*
D03*
D38*
Y792050D02*
D03*
Y850300D02*
D03*
D39*
X292178Y796550D02*
D03*
Y845800D02*
D03*
D40*
X295778Y827675D02*
D03*
Y834175D02*
D03*
Y821175D02*
D03*
Y814675D02*
D03*
Y808175D02*
D03*
D41*
X945758Y830246D02*
D03*
X958758D02*
D03*
X971758D02*
D03*
X1023758Y962246D02*
D03*
X1010758D02*
D03*
X997758D02*
D03*
X984758D02*
D03*
X971758D02*
D03*
X958758D02*
D03*
X945758D02*
D03*
D42*
X1053758Y857246D02*
D03*
Y870246D02*
D03*
Y883246D02*
D03*
Y896246D02*
D03*
Y909246D02*
D03*
Y922246D02*
D03*
Y935246D02*
D03*
X915758D02*
D03*
Y922246D02*
D03*
Y909246D02*
D03*
Y896246D02*
D03*
Y883246D02*
D03*
Y870246D02*
D03*
Y857246D02*
D03*
D43*
X1399620Y933210D02*
D03*
X1394620D02*
D03*
X1389620D02*
D03*
Y913210D02*
D03*
X1394620D02*
D03*
X1399620D02*
D03*
D44*
X1384620Y928210D02*
D03*
Y923210D02*
D03*
Y918210D02*
D03*
X1404620D02*
D03*
Y923210D02*
D03*
Y928210D02*
D03*
D45*
X1394620Y923210D02*
D03*
D46*
X742496Y836554D02*
D03*
Y846054D02*
D03*
Y855554D02*
D03*
X717496D02*
D03*
Y836554D02*
D03*
X755298Y1007298D02*
D03*
Y1016798D02*
D03*
Y1026298D02*
D03*
X730298D02*
D03*
Y1007298D02*
D03*
D47*
X684530Y1035050D02*
D03*
X663530Y1024750D02*
D03*
Y1045350D02*
D03*
D48*
X875943Y1067927D02*
D03*
X892943D02*
D03*
X970788Y1067816D02*
D03*
X987788D02*
D03*
D49*
X890778Y843316D02*
D03*
Y857316D02*
D03*
X890778Y923686D02*
D03*
Y909686D02*
D03*
X1363218Y959896D02*
D03*
Y945896D02*
D03*
X1324610Y959895D02*
D03*
Y945895D02*
D03*
X1154318Y1036556D02*
D03*
Y1022556D02*
D03*
X1315212Y920892D02*
D03*
Y906892D02*
D03*
X1399620Y887202D02*
D03*
Y901202D02*
D03*
X1256604Y891144D02*
D03*
Y905144D02*
D03*
X1232941Y891256D02*
D03*
Y905256D02*
D03*
X1401699Y998334D02*
D03*
Y984334D02*
D03*
X1355598Y997996D02*
D03*
Y983996D02*
D03*
X1312672Y997854D02*
D03*
Y983854D02*
D03*
X1079500Y1007638D02*
D03*
Y1021638D02*
D03*
X1174890Y978216D02*
D03*
Y992216D02*
D03*
X1187196Y978378D02*
D03*
Y992378D02*
D03*
X1223622Y1033368D02*
D03*
Y1019368D02*
D03*
X1298956Y1033668D02*
D03*
Y1019668D02*
D03*
X1274572Y1033668D02*
D03*
Y1019668D02*
D03*
X1286764Y1033668D02*
D03*
Y1019668D02*
D03*
X1211052Y1033368D02*
D03*
Y1019368D02*
D03*
X1219200Y909940D02*
D03*
Y923940D02*
D03*
X1207008Y909940D02*
D03*
Y923940D02*
D03*
X1194816Y910052D02*
D03*
Y924052D02*
D03*
X1235932Y1033368D02*
D03*
Y1019368D02*
D03*
D50*
X1241806Y850646D02*
D03*
X1223806D02*
D03*
D51*
X551868Y876046D02*
D03*
X570868D02*
D03*
D52*
X811276Y848839D02*
D03*
Y894839D02*
D03*
X823468Y1021298D02*
D03*
Y1067298D02*
D03*
D53*
X1241702Y817626D02*
D03*
X1171702D02*
D03*
D54*
X1343152Y1132078D02*
D03*
Y1157478D02*
D03*
X1283208Y819476D02*
D03*
X1308608D02*
D03*
X1334008D02*
D03*
X1359408D02*
D03*
D55*
X1384808D02*
D03*
D56*
X571500Y803910D02*
D03*
D57*
X551500D02*
D03*
D58*
X298450Y1173480D02*
D03*
X1292860D02*
D03*
D59*
X631444Y1045350D02*
D03*
D60*
Y1025350D02*
D03*
M02*
