G04*
G04 #@! TF.GenerationSoftware,Altium Limited,Altium Designer,19.0.10 (269)*
G04*
G04 Layer_Color=2752767*
%FSLAX44Y44*%
%MOMM*%
G71*
G01*
G75*
D145*
X1341120Y1130046D02*
Y1134110D01*
X1345184D01*
Y1130046D01*
X1341120D01*
Y1155446D02*
Y1159510D01*
X1345184D01*
Y1155446D01*
X1341120D01*
X1281176Y817444D02*
Y821508D01*
X1285240D01*
Y817444D01*
X1281176D01*
X1306576D02*
Y821508D01*
X1310640D01*
Y817444D01*
X1306576D01*
X1331976D02*
Y821508D01*
X1336040D01*
Y817444D01*
X1331976D01*
X1382776D02*
Y821508D01*
X1386840D01*
Y817444D01*
X1382776D01*
X1357376D02*
Y821508D01*
X1361440D01*
Y817444D01*
X1357376D01*
X298450Y1171448D02*
X296418Y1175512D01*
X300482D01*
X298450Y1171448D01*
X1292860D02*
X1290828Y1175512D01*
X1294892D01*
X1292860Y1171448D01*
X631444Y1043318D02*
X629412Y1047382D01*
X633476D01*
X631444Y1043318D01*
Y1023318D02*
X629412Y1027382D01*
X633476D01*
X631444Y1023318D01*
X1341882Y911258D02*
X1342898Y912274D01*
X1343914D01*
X1342898Y913290D01*
X1343914Y914306D01*
X1342898D01*
X1341882Y915322D01*
X1340866Y914306D01*
X1339850D01*
X1340866Y913290D01*
X1339850Y912274D01*
X1340866D01*
X1341882Y911258D01*
X1234388Y980753D02*
X1235404Y982785D01*
X1234388Y984817D01*
X1236420Y983801D01*
X1238452Y984817D01*
X1237436Y982785D01*
X1238452Y980753D01*
X1236420Y981769D01*
X1234388Y980753D01*
X1228137Y980373D02*
X1229153Y982405D01*
X1228137Y984437D01*
X1230169Y983421D01*
X1232201Y984437D01*
X1231185Y982405D01*
X1232201Y980373D01*
X1230169Y981389D01*
X1228137Y980373D01*
X1158711Y912622D02*
X1159727Y914654D01*
X1158711Y916686D01*
X1160743Y915670D01*
X1162775Y916686D01*
X1161759Y914654D01*
X1162775Y912622D01*
X1160743Y913638D01*
X1158711Y912622D01*
X1157986Y920900D02*
X1159002Y922932D01*
X1157986Y924964D01*
X1160018Y923948D01*
X1162050Y924964D01*
X1161034Y922932D01*
X1162050Y920900D01*
X1160018Y921916D01*
X1157986Y920900D01*
X1179068Y952754D02*
X1180084Y954786D01*
X1179068Y956818D01*
X1181100Y955802D01*
X1183132Y956818D01*
X1182116Y954786D01*
X1183132Y952754D01*
X1181100Y953770D01*
X1179068Y952754D01*
X1180788Y958422D02*
X1181804Y960454D01*
X1180788Y962486D01*
X1182820Y961470D01*
X1184852Y962486D01*
X1183836Y960454D01*
X1184852Y958422D01*
X1182820Y959438D01*
X1180788Y958422D01*
X1177544Y898398D02*
X1178560Y899414D01*
X1179576D01*
X1178560Y900430D01*
X1179576Y901446D01*
X1178560D01*
X1177544Y902462D01*
X1176528Y901446D01*
X1175512D01*
X1176528Y900430D01*
X1175512Y899414D01*
X1176528D01*
X1177544Y898398D01*
X1267460Y1006856D02*
Y1005840D01*
X1269492D01*
Y1006856D01*
X1270508D01*
Y1008888D01*
X1269492D01*
Y1009904D01*
X1267460D01*
Y1008888D01*
X1266444D01*
Y1006856D01*
X1267460D01*
X1199388Y969264D02*
X1200404Y971296D01*
X1199388Y973328D01*
X1201420Y972312D01*
X1203452Y973328D01*
X1202436Y971296D01*
X1203452Y969264D01*
X1201420Y970280D01*
X1199388Y969264D01*
X1195324Y983938D02*
X1196340Y985970D01*
X1195324Y988002D01*
X1197356Y986986D01*
X1199388Y988002D01*
X1198372Y985970D01*
X1199388Y983938D01*
X1197356Y984954D01*
X1195324Y983938D01*
X1199388Y979170D02*
X1200404Y981202D01*
X1199388Y983234D01*
X1201420Y982218D01*
X1203452Y983234D01*
X1202436Y981202D01*
X1203452Y979170D01*
X1201420Y980186D01*
X1199388Y979170D01*
X1194756Y974230D02*
X1195772Y976262D01*
X1194756Y978294D01*
X1196788Y977278D01*
X1198820Y978294D01*
X1197804Y976262D01*
X1198820Y974230D01*
X1196788Y975246D01*
X1194756Y974230D01*
X801116Y1080516D02*
X802132D01*
X803148Y1081532D01*
X804164Y1080516D01*
X805180D01*
Y1081532D01*
X804164Y1082548D01*
X805180Y1083564D01*
Y1084580D01*
X804164D01*
X803148Y1083564D01*
X802132Y1084580D01*
X801116D01*
Y1083564D01*
X802132Y1082548D01*
X801116Y1081532D01*
Y1080516D01*
Y1094740D02*
X802132D01*
X803148Y1095756D01*
X804164Y1094740D01*
X805180D01*
Y1095756D01*
X804164Y1096772D01*
X805180Y1097788D01*
Y1098804D01*
X804164D01*
X803148Y1097788D01*
X802132Y1098804D01*
X801116D01*
Y1097788D01*
X802132Y1096772D01*
X801116Y1095756D01*
Y1094740D01*
X542262Y891794D02*
X543278Y892810D01*
X544294D01*
X543278Y893826D01*
X544294Y894842D01*
X543278D01*
X542262Y895858D01*
X541246Y894842D01*
X540230D01*
X541246Y893826D01*
X540230Y892810D01*
X541246D01*
X542262Y891794D01*
X1217168Y1055878D02*
X1218184Y1056894D01*
X1219200D01*
X1218184Y1057910D01*
X1219200Y1058926D01*
X1218184D01*
X1217168Y1059942D01*
X1216152Y1058926D01*
X1215136D01*
X1216152Y1057910D01*
X1215136Y1056894D01*
X1216152D01*
X1217168Y1055878D01*
X344170Y812292D02*
X346202Y814324D01*
X348234Y812292D01*
X346202Y810260D01*
X344170Y812292D01*
X327152Y827532D02*
X329184Y829564D01*
X331216Y827532D01*
X329184Y825500D01*
X327152Y827532D01*
X1116338Y927416D02*
Y926400D01*
X1118370D01*
Y927416D01*
X1119386D01*
Y929448D01*
X1118370D01*
Y930464D01*
X1116338D01*
Y929448D01*
X1115322D01*
Y927416D01*
X1116338D01*
X1240790Y1005078D02*
Y1009142D01*
X1244854D01*
Y1005078D01*
X1240790D01*
X1241806Y1006094D02*
Y1008126D01*
X1243838D01*
Y1006094D01*
X1241806D01*
X983488Y936752D02*
Y935736D01*
X985520D01*
Y936752D01*
X986536D01*
Y938784D01*
X985520D01*
Y939800D01*
X983488D01*
Y938784D01*
X982472D01*
Y936752D01*
X983488D01*
X996742Y944580D02*
Y943564D01*
X998774D01*
Y944580D01*
X999790D01*
Y946612D01*
X998774D01*
Y947628D01*
X996742D01*
Y946612D01*
X995726D01*
Y944580D01*
X996742D01*
X398018Y825246D02*
X399034Y827278D01*
X398018Y829310D01*
X400050Y828294D01*
X402082Y829310D01*
X401066Y827278D01*
X402082Y825246D01*
X400050Y826262D01*
X398018Y825246D01*
Y818896D02*
X399034Y820928D01*
X398018Y822960D01*
X400050Y821944D01*
X402082Y822960D01*
X401066Y820928D01*
X402082Y818896D01*
X400050Y819912D01*
X398018Y818896D01*
X1214939Y954703D02*
X1215955Y956735D01*
X1214939Y958767D01*
X1216971Y957751D01*
X1219003Y958767D01*
X1217987Y956735D01*
X1219003Y954703D01*
X1216971Y955719D01*
X1214939Y954703D01*
X1227823Y954688D02*
X1228839Y956720D01*
X1227823Y958752D01*
X1229855Y957736D01*
X1231887Y958752D01*
X1230871Y956720D01*
X1231887Y954688D01*
X1229855Y955704D01*
X1227823Y954688D01*
X1221323Y961188D02*
X1222339Y963220D01*
X1221323Y965252D01*
X1223355Y964236D01*
X1225387Y965252D01*
X1224371Y963220D01*
X1225387Y961188D01*
X1223355Y962204D01*
X1221323Y961188D01*
X1130300Y1011428D02*
Y1010412D01*
X1132332D01*
Y1011428D01*
X1133348D01*
Y1013460D01*
X1132332D01*
Y1014476D01*
X1130300D01*
Y1013460D01*
X1129284D01*
Y1011428D01*
X1130300D01*
X1131570Y1031748D02*
Y1030732D01*
X1133602D01*
Y1031748D01*
X1134618D01*
Y1033780D01*
X1133602D01*
Y1034796D01*
X1131570D01*
Y1033780D01*
X1130554D01*
Y1031748D01*
X1131570D01*
X1234388Y974253D02*
X1235404Y976285D01*
X1234388Y978317D01*
X1236420Y977301D01*
X1238452Y978317D01*
X1237436Y976285D01*
X1238452Y974253D01*
X1236420Y975269D01*
X1234388Y974253D01*
Y961253D02*
X1235404Y963285D01*
X1234388Y965317D01*
X1236420Y964301D01*
X1238452Y965317D01*
X1237436Y963285D01*
X1238452Y961253D01*
X1236420Y962269D01*
X1234388Y961253D01*
X1247388D02*
X1248404Y963285D01*
X1247388Y965317D01*
X1249420Y964301D01*
X1251452Y965317D01*
X1250436Y963285D01*
X1251452Y961253D01*
X1249420Y962269D01*
X1247388Y961253D01*
X1241044Y961390D02*
X1242060Y963422D01*
X1241044Y965454D01*
X1243076Y964438D01*
X1245108Y965454D01*
X1244092Y963422D01*
X1245108Y961390D01*
X1243076Y962406D01*
X1241044Y961390D01*
X1240934Y974188D02*
X1241950Y976220D01*
X1240934Y978252D01*
X1242966Y977236D01*
X1244998Y978252D01*
X1243982Y976220D01*
X1244998Y974188D01*
X1242966Y975204D01*
X1240934Y974188D01*
X1247140Y967994D02*
X1248156Y970026D01*
X1247140Y972058D01*
X1249172Y971042D01*
X1251204Y972058D01*
X1250188Y970026D01*
X1251204Y967994D01*
X1249172Y969010D01*
X1247140Y967994D01*
X1227943Y961308D02*
X1228959Y963340D01*
X1227943Y965372D01*
X1229975Y964356D01*
X1232007Y965372D01*
X1230991Y963340D01*
X1232007Y961308D01*
X1229975Y962324D01*
X1227943Y961308D01*
X1221534Y980477D02*
X1222550Y982509D01*
X1221534Y984541D01*
X1223566Y983525D01*
X1225598Y984541D01*
X1224582Y982509D01*
X1225598Y980477D01*
X1223566Y981493D01*
X1221534Y980477D01*
X1221430Y974090D02*
X1222446Y976122D01*
X1221430Y978154D01*
X1223462Y977138D01*
X1225494Y978154D01*
X1224478Y976122D01*
X1225494Y974090D01*
X1223462Y975106D01*
X1221430Y974090D01*
X1214930Y967712D02*
X1215946Y969744D01*
X1214930Y971776D01*
X1216962Y970760D01*
X1218994Y971776D01*
X1217978Y969744D01*
X1218994Y967712D01*
X1216962Y968728D01*
X1214930Y967712D01*
X1240790Y987044D02*
X1241806Y989076D01*
X1240790Y991108D01*
X1242822Y990092D01*
X1244854Y991108D01*
X1243838Y989076D01*
X1244854Y987044D01*
X1242822Y988060D01*
X1240790Y987044D01*
X1240888Y967753D02*
X1241904Y969785D01*
X1240888Y971817D01*
X1242920Y970801D01*
X1244952Y971817D01*
X1243936Y969785D01*
X1244952Y967753D01*
X1242920Y968769D01*
X1240888Y967753D01*
X1253786Y961356D02*
X1254802Y963388D01*
X1253786Y965420D01*
X1255818Y964404D01*
X1257850Y965420D01*
X1256834Y963388D01*
X1257850Y961356D01*
X1255818Y962372D01*
X1253786Y961356D01*
X1269746Y957938D02*
X1270762Y959970D01*
X1269746Y962002D01*
X1271778Y960986D01*
X1273810Y962002D01*
X1272794Y959970D01*
X1273810Y957938D01*
X1271778Y958954D01*
X1269746Y957938D01*
X1214882Y980694D02*
X1215898Y982726D01*
X1214882Y984758D01*
X1216914Y983742D01*
X1218946Y984758D01*
X1217930Y982726D01*
X1218946Y980694D01*
X1216914Y981710D01*
X1214882Y980694D01*
X1221430Y935002D02*
X1222446Y937034D01*
X1221430Y939066D01*
X1223462Y938050D01*
X1225494Y939066D01*
X1224478Y937034D01*
X1225494Y935002D01*
X1223462Y936018D01*
X1221430Y935002D01*
X1247394Y980694D02*
X1248410Y982726D01*
X1247394Y984758D01*
X1249426Y983742D01*
X1251458Y984758D01*
X1250442Y982726D01*
X1251458Y980694D01*
X1249426Y981710D01*
X1247394Y980694D01*
X1253763Y974344D02*
X1254779Y976376D01*
X1253763Y978408D01*
X1255795Y977392D01*
X1257827Y978408D01*
X1256811Y976376D01*
X1257827Y974344D01*
X1255795Y975360D01*
X1253763Y974344D01*
X1273810Y975614D02*
X1274826Y977646D01*
X1273810Y979678D01*
X1275842Y978662D01*
X1277874Y979678D01*
X1276858Y977646D01*
X1277874Y975614D01*
X1275842Y976630D01*
X1273810Y975614D01*
X1259332Y932688D02*
X1260348Y934720D01*
X1259332Y936752D01*
X1261364Y935736D01*
X1263396Y936752D01*
X1262380Y934720D01*
X1263396Y932688D01*
X1261364Y933704D01*
X1259332Y932688D01*
X1225042Y1002284D02*
X1226058Y1004316D01*
X1225042Y1006348D01*
X1227074Y1005332D01*
X1229106Y1006348D01*
X1228090Y1004316D01*
X1229106Y1002284D01*
X1227074Y1003300D01*
X1225042Y1002284D01*
X1210056Y937768D02*
X1211072Y939800D01*
X1210056Y941832D01*
X1212088Y940816D01*
X1214120Y941832D01*
X1213104Y939800D01*
X1214120Y937768D01*
X1212088Y938784D01*
X1210056Y937768D01*
X1226566Y939292D02*
X1227582Y941324D01*
X1226566Y943356D01*
X1228598Y942340D01*
X1230630Y943356D01*
X1229614Y941324D01*
X1230630Y939292D01*
X1228598Y940308D01*
X1226566Y939292D01*
X958758Y1004570D02*
X959774Y1005586D01*
X960790D01*
X959774Y1006602D01*
X960790Y1007618D01*
X959774D01*
X958758Y1008634D01*
X957742Y1007618D01*
X956726D01*
X957742Y1006602D01*
X956726Y1005586D01*
X957742D01*
X958758Y1004570D01*
X863978Y1006094D02*
X864994Y1007110D01*
X866010D01*
X864994Y1008126D01*
X866010Y1009142D01*
X864994D01*
X863978Y1010158D01*
X862962Y1009142D01*
X861946D01*
X862962Y1008126D01*
X861946Y1007110D01*
X862962D01*
X863978Y1006094D01*
X632206Y887730D02*
X633222Y888746D01*
X634238D01*
X633222Y889762D01*
X634238Y890778D01*
X633222D01*
X632206Y891794D01*
X631190Y890778D01*
X630174D01*
X631190Y889762D01*
X630174Y888746D01*
X631190D01*
X632206Y887730D01*
X584454Y891032D02*
X585470Y892048D01*
X586486D01*
X585470Y893064D01*
X586486Y894080D01*
X585470D01*
X584454Y895096D01*
X583438Y894080D01*
X582422D01*
X583438Y893064D01*
X582422Y892048D01*
X583438D01*
X584454Y891032D01*
X680212Y1096772D02*
X681228D01*
X682244Y1097788D01*
X683260Y1096772D01*
X684276D01*
Y1097788D01*
X683260Y1098804D01*
X684276Y1099820D01*
Y1100836D01*
X683260D01*
X682244Y1099820D01*
X681228Y1100836D01*
X680212D01*
Y1099820D01*
X681228Y1098804D01*
X680212Y1097788D01*
Y1096772D01*
X554228Y1086612D02*
X555244D01*
X556260Y1087628D01*
X557276Y1086612D01*
X558292D01*
Y1087628D01*
X557276Y1088644D01*
X558292Y1089660D01*
Y1090676D01*
X557276D01*
X556260Y1089660D01*
X555244Y1090676D01*
X554228D01*
Y1089660D01*
X555244Y1088644D01*
X554228Y1087628D01*
Y1086612D01*
X822198Y1178814D02*
X823214D01*
X824230Y1179830D01*
X825246Y1178814D01*
X826262D01*
Y1179830D01*
X825246Y1180846D01*
X826262Y1181862D01*
Y1182878D01*
X825246D01*
X824230Y1181862D01*
X823214Y1182878D01*
X822198D01*
Y1181862D01*
X823214Y1180846D01*
X822198Y1179830D01*
Y1178814D01*
X1103630Y949452D02*
Y948436D01*
X1105662D01*
Y949452D01*
X1106678D01*
Y951484D01*
X1105662D01*
Y952500D01*
X1103630D01*
Y951484D01*
X1102614D01*
Y949452D01*
X1103630D01*
X1230888Y1092458D02*
X1231904Y1093474D01*
X1232920D01*
X1231904Y1094490D01*
X1232920Y1095506D01*
X1231904D01*
X1230888Y1096522D01*
X1229872Y1095506D01*
X1228856D01*
X1229872Y1094490D01*
X1228856Y1093474D01*
X1229872D01*
X1230888Y1092458D01*
X1262556Y1055116D02*
X1263572Y1056132D01*
X1264588D01*
X1263572Y1057148D01*
X1264588Y1058164D01*
X1263572D01*
X1262556Y1059180D01*
X1261540Y1058164D01*
X1260524D01*
X1261540Y1057148D01*
X1260524Y1056132D01*
X1261540D01*
X1262556Y1055116D01*
X1163066Y1100328D02*
X1164082D01*
X1165098Y1101344D01*
X1166114Y1100328D01*
X1167130D01*
Y1101344D01*
X1166114Y1102360D01*
X1167130Y1103376D01*
Y1104392D01*
X1166114D01*
X1165098Y1103376D01*
X1164082Y1104392D01*
X1163066D01*
Y1103376D01*
X1164082Y1102360D01*
X1163066Y1101344D01*
Y1100328D01*
X1087120Y949452D02*
Y948436D01*
X1089152D01*
Y949452D01*
X1090168D01*
Y951484D01*
X1089152D01*
Y952500D01*
X1087120D01*
Y951484D01*
X1086104D01*
Y949452D01*
X1087120D01*
X1074166Y948690D02*
Y947674D01*
X1076198D01*
Y948690D01*
X1077214D01*
Y950722D01*
X1076198D01*
Y951738D01*
X1074166D01*
Y950722D01*
X1073150D01*
Y948690D01*
X1074166D01*
X943356Y882396D02*
Y881380D01*
X945388D01*
Y882396D01*
X946404D01*
Y884428D01*
X945388D01*
Y885444D01*
X943356D01*
Y884428D01*
X942340D01*
Y882396D01*
X943356D01*
X1358646Y869442D02*
X1359662Y870458D01*
X1360678D01*
X1359662Y871474D01*
X1360678Y872490D01*
X1359662D01*
X1358646Y873506D01*
X1357630Y872490D01*
X1356614D01*
X1357630Y871474D01*
X1356614Y870458D01*
X1357630D01*
X1358646Y869442D01*
X1344422Y966724D02*
X1345438Y967740D01*
X1346454D01*
X1345438Y968756D01*
X1346454Y969772D01*
X1345438D01*
X1344422Y970788D01*
X1343406Y969772D01*
X1342390D01*
X1343406Y968756D01*
X1342390Y967740D01*
X1343406D01*
X1344422Y966724D01*
X1334770Y1000760D02*
X1335786Y1001776D01*
X1336802D01*
X1335786Y1002792D01*
X1336802Y1003808D01*
X1335786D01*
X1334770Y1004824D01*
X1333754Y1003808D01*
X1332738D01*
X1333754Y1002792D01*
X1332738Y1001776D01*
X1333754D01*
X1334770Y1000760D01*
X1375156Y902208D02*
Y906272D01*
X1379220D01*
Y902208D01*
X1375156D01*
X1376172Y903224D02*
Y905256D01*
X1378204D01*
Y903224D01*
X1376172D01*
X943356Y921258D02*
Y920242D01*
X945388D01*
Y921258D01*
X946404D01*
Y923290D01*
X945388D01*
Y924306D01*
X943356D01*
Y923290D01*
X942340D01*
Y921258D01*
X943356D01*
X772414Y788332D02*
X773430D01*
X774446Y789348D01*
X775462Y788332D01*
X776478D01*
Y789348D01*
X775462Y790364D01*
X776478Y791380D01*
Y792396D01*
X775462D01*
X774446Y791380D01*
X773430Y792396D01*
X772414D01*
Y791380D01*
X773430Y790364D01*
X772414Y789348D01*
Y788332D01*
X1373632Y921004D02*
X1374648Y923036D01*
X1373632Y925068D01*
X1375664Y924052D01*
X1377696Y925068D01*
X1376680Y923036D01*
X1377696Y921004D01*
X1375664Y922020D01*
X1373632Y921004D01*
X1073404Y1059942D02*
X1074420Y1060958D01*
X1075436D01*
X1074420Y1061974D01*
X1075436Y1062990D01*
X1074420D01*
X1073404Y1064006D01*
X1072388Y1062990D01*
X1071372D01*
X1072388Y1061974D01*
X1071372Y1060958D01*
X1072388D01*
X1073404Y1059942D01*
X1050036Y1059698D02*
X1051052Y1060714D01*
X1052068D01*
X1051052Y1061730D01*
X1052068Y1062746D01*
X1051052D01*
X1050036Y1063762D01*
X1049020Y1062746D01*
X1048004D01*
X1049020Y1061730D01*
X1048004Y1060714D01*
X1049020D01*
X1050036Y1059698D01*
X1376172Y926178D02*
X1377188Y928210D01*
X1376172Y930242D01*
X1378204Y929226D01*
X1380236Y930242D01*
X1379220Y928210D01*
X1380236Y926178D01*
X1378204Y927194D01*
X1376172Y926178D01*
X1202182Y848614D02*
X1203198D01*
X1204214Y849630D01*
X1205230Y848614D01*
X1206246D01*
Y849630D01*
X1205230Y850646D01*
X1206246Y851662D01*
Y852678D01*
X1205230D01*
X1204214Y851662D01*
X1203198Y852678D01*
X1202182D01*
Y851662D01*
X1203198Y850646D01*
X1202182Y849630D01*
Y848614D01*
X751586Y822810D02*
X752602Y823826D01*
X753618D01*
X752602Y824842D01*
X753618Y825858D01*
X752602D01*
X751586Y826874D01*
X750570Y825858D01*
X749554D01*
X750570Y824842D01*
X749554Y823826D01*
X750570D01*
X751586Y822810D01*
X788162Y872594D02*
X789178D01*
X790194Y873610D01*
X791210Y872594D01*
X792226D01*
Y873610D01*
X791210Y874626D01*
X792226Y875642D01*
Y876658D01*
X791210D01*
X790194Y875642D01*
X789178Y876658D01*
X788162D01*
Y875642D01*
X789178Y874626D01*
X788162Y873610D01*
Y872594D01*
X787908Y963272D02*
X788924D01*
X789940Y964288D01*
X790956Y963272D01*
X791972D01*
Y964288D01*
X790956Y965304D01*
X791972Y966320D01*
Y967336D01*
X790956D01*
X789940Y966320D01*
X788924Y967336D01*
X787908D01*
Y966320D01*
X788924Y965304D01*
X787908Y964288D01*
Y963272D01*
D146*
X573532Y803910D02*
G03*
X573532Y803910I-2032J0D01*
G01*
X553532D02*
G03*
X553532Y803910I-2032J0D01*
G01*
M02*
