G04*
G04 #@! TF.GenerationSoftware,Altium Limited,Altium Designer,19.0.10 (269)*
G04*
G04 Layer_Color=128*
%FSLAX44Y44*%
%MOMM*%
G71*
G01*
G75*
D145*
X1338326Y1132078D02*
X1347978D01*
X1343152Y1127252D02*
Y1136904D01*
X1338326Y1157478D02*
X1347978D01*
X1343152Y1152652D02*
Y1162304D01*
X1278382Y819476D02*
X1288034D01*
X1283208Y814650D02*
Y824302D01*
X1303782Y819476D02*
X1313434D01*
X1308608Y814650D02*
Y824302D01*
X1329182Y819476D02*
X1338834D01*
X1334008Y814650D02*
Y824302D01*
X1379982Y819476D02*
X1389634D01*
X1384808Y814650D02*
Y824302D01*
X1354582Y819476D02*
X1364234D01*
X1359408Y814650D02*
Y824302D01*
X567500Y803910D02*
X575500D01*
X571500Y799910D02*
Y807910D01*
X547500Y803910D02*
X555500D01*
X551500Y799910D02*
Y807910D01*
X293450Y1173480D02*
X303450D01*
X298450Y1168480D02*
Y1178480D01*
X1287860Y1173480D02*
X1297860D01*
X1292860Y1168480D02*
Y1178480D01*
X626444Y1045350D02*
X636444D01*
X631444Y1040350D02*
Y1050350D01*
X626444Y1025350D02*
X636444D01*
X631444Y1020350D02*
Y1030350D01*
X1339382Y913290D02*
X1344382D01*
X1341882Y910790D02*
Y915790D01*
X1235420Y982785D02*
X1237420D01*
X1236420Y981785D02*
Y983785D01*
X1229169Y982405D02*
X1231169D01*
X1230169Y981405D02*
Y983405D01*
X1159743Y914654D02*
X1161743D01*
X1160743Y913654D02*
Y915654D01*
X1159018Y922932D02*
X1161018D01*
X1160018Y921932D02*
Y923932D01*
X1180100Y954786D02*
X1182100D01*
X1181100Y953786D02*
Y955786D01*
X1181820Y960454D02*
X1183820D01*
X1182820Y959454D02*
Y961454D01*
X1175044Y900430D02*
X1180044D01*
X1177544Y897930D02*
Y902930D01*
X1266976Y1007872D02*
X1269976D01*
X1268476Y1006372D02*
Y1009372D01*
X1200420Y971296D02*
X1202420D01*
X1201420Y970296D02*
Y972296D01*
X1196356Y985970D02*
X1198356D01*
X1197356Y984970D02*
Y986970D01*
X1200420Y981202D02*
X1202420D01*
X1201420Y980202D02*
Y982202D01*
X1195788Y976262D02*
X1197788D01*
X1196788Y975262D02*
Y977262D01*
X799592Y1082548D02*
X806704D01*
X803148Y1078992D02*
Y1086104D01*
X799592Y1096772D02*
X806704D01*
X803148Y1093216D02*
Y1100328D01*
X539762Y893826D02*
X544762D01*
X542262Y891326D02*
Y896326D01*
X1214668Y1057910D02*
X1219668D01*
X1217168Y1055410D02*
Y1060410D01*
X344932Y812292D02*
X347472D01*
X346202Y811022D02*
Y813562D01*
X327914Y827532D02*
X330454D01*
X329184Y826262D02*
Y828802D01*
X1115854Y928432D02*
X1118854D01*
X1117354Y926932D02*
Y929932D01*
X1241572Y1007110D02*
X1244072D01*
X1242822Y1005860D02*
Y1008360D01*
X983004Y937768D02*
X986004D01*
X984504Y936268D02*
Y939268D01*
X996258Y945596D02*
X999258D01*
X997758Y944096D02*
Y947096D01*
X399050Y827278D02*
X401050D01*
X400050Y826278D02*
Y828278D01*
X399050Y820928D02*
X401050D01*
X400050Y819928D02*
Y821928D01*
X1215971Y956735D02*
X1217971D01*
X1216971Y955735D02*
Y957735D01*
X1228855Y956720D02*
X1230855D01*
X1229855Y955720D02*
Y957720D01*
X1222355Y963220D02*
X1224355D01*
X1223355Y962220D02*
Y964220D01*
X1129816Y1012444D02*
X1132816D01*
X1131316Y1010944D02*
Y1013944D01*
X1131086Y1032764D02*
X1134086D01*
X1132586Y1031264D02*
Y1034264D01*
X1235420Y976285D02*
X1237420D01*
X1236420Y975285D02*
Y977285D01*
X1235420Y963285D02*
X1237420D01*
X1236420Y962285D02*
Y964285D01*
X1248420Y963285D02*
X1250420D01*
X1249420Y962285D02*
Y964285D01*
X1242076Y963422D02*
X1244076D01*
X1243076Y962422D02*
Y964422D01*
X1241966Y976220D02*
X1243966D01*
X1242966Y975220D02*
Y977220D01*
X1248172Y970026D02*
X1250172D01*
X1249172Y969026D02*
Y971026D01*
X1228975Y963340D02*
X1230975D01*
X1229975Y962340D02*
Y964340D01*
X1222566Y982509D02*
X1224566D01*
X1223566Y981509D02*
Y983509D01*
X1222462Y976122D02*
X1224462D01*
X1223462Y975122D02*
Y977122D01*
X1215962Y969744D02*
X1217962D01*
X1216962Y968744D02*
Y970744D01*
X1241822Y989076D02*
X1243822D01*
X1242822Y988076D02*
Y990076D01*
X1241920Y969785D02*
X1243920D01*
X1242920Y968785D02*
Y970785D01*
X1254818Y963388D02*
X1256818D01*
X1255818Y962388D02*
Y964388D01*
X1270778Y959970D02*
X1272778D01*
X1271778Y958970D02*
Y960970D01*
X1215914Y982726D02*
X1217914D01*
X1216914Y981726D02*
Y983726D01*
X1222462Y937034D02*
X1224462D01*
X1223462Y936034D02*
Y938034D01*
X1248426Y982726D02*
X1250426D01*
X1249426Y981726D02*
Y983726D01*
X1254795Y976376D02*
X1256795D01*
X1255795Y975376D02*
Y977376D01*
X1274842Y977646D02*
X1276842D01*
X1275842Y976646D02*
Y978646D01*
X1260364Y934720D02*
X1262364D01*
X1261364Y933720D02*
Y935720D01*
X1226074Y1004316D02*
X1228074D01*
X1227074Y1003316D02*
Y1005316D01*
X1211088Y939800D02*
X1213088D01*
X1212088Y938800D02*
Y940800D01*
X1227598Y941324D02*
X1229598D01*
X1228598Y940324D02*
Y942324D01*
X956258Y1006602D02*
X961258D01*
X958758Y1004102D02*
Y1009102D01*
X861478Y1008126D02*
X866478D01*
X863978Y1005626D02*
Y1010626D01*
X629706Y889762D02*
X634706D01*
X632206Y887262D02*
Y892262D01*
X581954Y893064D02*
X586954D01*
X584454Y890564D02*
Y895564D01*
X678688Y1098804D02*
X685800D01*
X682244Y1095248D02*
Y1102360D01*
X552704Y1088644D02*
X559816D01*
X556260Y1085088D02*
Y1092200D01*
X820674Y1180846D02*
X827786D01*
X824230Y1177290D02*
Y1184402D01*
X1103146Y950468D02*
X1106146D01*
X1104646Y948968D02*
Y951968D01*
X1228388Y1094490D02*
X1233388D01*
X1230888Y1091990D02*
Y1096990D01*
X1260056Y1057148D02*
X1265056D01*
X1262556Y1054648D02*
Y1059648D01*
X1161542Y1102360D02*
X1168654D01*
X1165098Y1098804D02*
Y1105916D01*
X1086636Y950468D02*
X1089636D01*
X1088136Y948968D02*
Y951968D01*
X1073682Y949706D02*
X1076682D01*
X1075182Y948206D02*
Y951206D01*
X942872Y883412D02*
X945872D01*
X944372Y881912D02*
Y884912D01*
X1356146Y871474D02*
X1361146D01*
X1358646Y868974D02*
Y873974D01*
X1341922Y968756D02*
X1346922D01*
X1344422Y966256D02*
Y971256D01*
X1332270Y1002792D02*
X1337270D01*
X1334770Y1000292D02*
Y1005292D01*
X1375938Y904240D02*
X1378438D01*
X1377188Y902990D02*
Y905490D01*
X942872Y922274D02*
X945872D01*
X944372Y920774D02*
Y923774D01*
X770890Y790364D02*
X778002D01*
X774446Y786808D02*
Y793920D01*
X1374664Y923036D02*
X1376664D01*
X1375664Y922036D02*
Y924036D01*
X1070904Y1061974D02*
X1075904D01*
X1073404Y1059474D02*
Y1064474D01*
X1047536Y1061730D02*
X1052536D01*
X1050036Y1059230D02*
Y1064230D01*
X1377204Y928210D02*
X1379204D01*
X1378204Y927210D02*
Y929210D01*
X1200658Y850646D02*
X1207770D01*
X1204214Y847090D02*
Y854202D01*
X749086Y824842D02*
X754086D01*
X751586Y822342D02*
Y827342D01*
X786638Y874626D02*
X793750D01*
X790194Y871070D02*
Y878182D01*
X786384Y965304D02*
X793496D01*
X789940Y961748D02*
Y968860D01*
M02*
