G04*
G04 #@! TF.GenerationSoftware,Altium Limited,Altium Designer,19.0.10 (269)*
G04*
G04 Layer_Physical_Order=2*
G04 Layer_Color=16711680*
%FSLAX44Y44*%
%MOMM*%
G71*
G01*
G75*
G36*
X1506460Y727978D02*
X258078D01*
Y899050D01*
X260527Y902242D01*
X264380Y906095D01*
X268703Y909412D01*
X273422Y912136D01*
X278456Y914221D01*
X283719Y915632D01*
X289121Y916343D01*
X291846Y916432D01*
X323743D01*
X324851Y915582D01*
X326574Y914868D01*
X328422Y914625D01*
X603983Y914625D01*
Y821562D01*
X594123Y811701D01*
X580500D01*
Y812910D01*
X562500D01*
Y794910D01*
X580500D01*
Y797419D01*
X597080D01*
X597080Y797419D01*
X598929Y797662D01*
X600651Y798376D01*
X602130Y799510D01*
X616173Y813554D01*
X616174Y813554D01*
X617308Y815033D01*
X618022Y816755D01*
X618265Y818604D01*
X618265Y818604D01*
Y914625D01*
X639318D01*
X639318Y914625D01*
X641166Y914868D01*
X642888Y915582D01*
X643997Y916432D01*
X837692Y916432D01*
X837692Y916432D01*
X837692Y916432D01*
X840194Y916432D01*
X845101Y917408D01*
X849723Y919323D01*
X853884Y922103D01*
X857421Y925640D01*
X860201Y929801D01*
X862116Y934423D01*
X863092Y939330D01*
X863092Y941832D01*
Y989477D01*
X864265Y989963D01*
X871165Y983063D01*
X872499Y982172D01*
X874072Y981859D01*
X982003D01*
X982489Y980686D01*
X942479Y940676D01*
X941899Y939808D01*
X941696Y938784D01*
X941696Y938784D01*
Y927702D01*
X940046Y926600D01*
X938720Y924615D01*
X938254Y922274D01*
X938720Y919933D01*
X940046Y917948D01*
X942031Y916622D01*
X944372Y916156D01*
X946713Y916622D01*
X948698Y917948D01*
X950024Y919933D01*
X950490Y922274D01*
X950024Y924615D01*
X948698Y926600D01*
X947048Y927702D01*
Y937675D01*
X987899Y978526D01*
X991487D01*
X992012Y977256D01*
X953910Y939153D01*
X953329Y938284D01*
X953126Y937260D01*
X953126Y937260D01*
Y895951D01*
X946318Y889143D01*
X944372Y889529D01*
X942031Y889064D01*
X940046Y887738D01*
X938720Y885753D01*
X938254Y883412D01*
X938720Y881071D01*
X940046Y879086D01*
X942031Y877760D01*
X944372Y877294D01*
X946713Y877760D01*
X948698Y879086D01*
X950024Y881071D01*
X950490Y883412D01*
X950103Y885358D01*
X957694Y892949D01*
X957694Y892950D01*
X958275Y893818D01*
X958478Y894842D01*
X958478Y894842D01*
Y936151D01*
X995913Y973586D01*
X1083066D01*
X1083593Y972316D01*
X1073289Y962012D01*
X1072709Y961144D01*
X1072506Y960120D01*
X1072506Y960120D01*
Y955134D01*
X1070856Y954032D01*
X1069530Y952047D01*
X1069064Y949706D01*
X1069530Y947365D01*
X1070081Y946540D01*
X1069402Y945270D01*
X1034070D01*
X1019106Y960235D01*
X1018237Y960815D01*
X1017213Y961018D01*
X1017213Y961018D01*
X992124D01*
X992124Y961018D01*
X991100Y960815D01*
X990231Y960235D01*
X982611Y952615D01*
X982031Y951746D01*
X981828Y950722D01*
X981828Y950722D01*
Y943196D01*
X980178Y942094D01*
X978852Y940109D01*
X978387Y937768D01*
X978852Y935427D01*
X980178Y933442D01*
X982163Y932116D01*
X984504Y931650D01*
X986845Y932116D01*
X988830Y933442D01*
X990156Y935427D01*
X990621Y937768D01*
X990156Y940109D01*
X988830Y942094D01*
X987180Y943196D01*
Y949613D01*
X993233Y955666D01*
X1016104D01*
X1031068Y940702D01*
X1031068Y940702D01*
X1031937Y940121D01*
X1032961Y939918D01*
X1116330D01*
X1116330Y939918D01*
X1117354Y940121D01*
X1118223Y940702D01*
X1135299Y957778D01*
X1141175D01*
X1141514Y957196D01*
X1141645Y956508D01*
X1119300Y934163D01*
X1117354Y934549D01*
X1115013Y934084D01*
X1113028Y932758D01*
X1111702Y930773D01*
X1111237Y928432D01*
X1111702Y926091D01*
X1113028Y924106D01*
X1115013Y922780D01*
X1117354Y922315D01*
X1119695Y922780D01*
X1121680Y924106D01*
X1123006Y926091D01*
X1123472Y928432D01*
X1123085Y930378D01*
X1144817Y952110D01*
X1177925D01*
X1178537Y951436D01*
X1178100Y950176D01*
X1152724D01*
X1152724Y950176D01*
X1151700Y949973D01*
X1150832Y949392D01*
X1150832Y949392D01*
X1119278Y917838D01*
X1029301D01*
X1003489Y943651D01*
X1003876Y945596D01*
X1003410Y947937D01*
X1002084Y949922D01*
X1000099Y951248D01*
X997758Y951713D01*
X995417Y951248D01*
X993432Y949922D01*
X992106Y947937D01*
X991640Y945596D01*
X992106Y943255D01*
X993432Y941270D01*
X995417Y939944D01*
X997758Y939479D01*
X999704Y939865D01*
X1026299Y913270D01*
X1026300Y913270D01*
X1027168Y912689D01*
X1028192Y912486D01*
X1028192Y912486D01*
X1117102D01*
X1117588Y911312D01*
X1079575Y873299D01*
X854889D01*
X817485Y910703D01*
X816151Y911594D01*
X814578Y911907D01*
X673862D01*
X672289Y911594D01*
X670955Y910703D01*
X654125Y893873D01*
X637875D01*
X637198Y894754D01*
X635736Y895876D01*
X634033Y896582D01*
X632206Y896822D01*
X630379Y896582D01*
X628676Y895876D01*
X627214Y894754D01*
X626091Y893292D01*
X625386Y891589D01*
X625146Y889762D01*
X625386Y887935D01*
X626091Y886232D01*
X627214Y884770D01*
X628676Y883648D01*
X630379Y882942D01*
X632206Y882702D01*
X634033Y882942D01*
X635736Y883648D01*
X637198Y884770D01*
X637875Y885651D01*
X655828D01*
X657401Y885964D01*
X658735Y886855D01*
X675565Y903685D01*
X812875D01*
X850279Y866281D01*
X851613Y865390D01*
X853186Y865077D01*
X1079092D01*
X1079578Y863904D01*
X1061033Y845359D01*
X851079D01*
X807071Y889367D01*
X805737Y890258D01*
X804164Y890571D01*
X765556D01*
X763983Y890258D01*
X762649Y889367D01*
X748679Y875397D01*
X747788Y874063D01*
X747475Y872490D01*
Y830511D01*
X746594Y829835D01*
X745471Y828372D01*
X744766Y826669D01*
X744526Y824842D01*
X744766Y823015D01*
X745471Y821312D01*
X746594Y819850D01*
X748056Y818728D01*
X749759Y818022D01*
X751586Y817782D01*
X753413Y818022D01*
X755116Y818728D01*
X756578Y819850D01*
X757701Y821312D01*
X758406Y823015D01*
X758646Y824842D01*
X758406Y826669D01*
X757701Y828372D01*
X756578Y829835D01*
X755697Y830511D01*
Y870787D01*
X767259Y882349D01*
X784456D01*
X784887Y881079D01*
X784239Y880581D01*
X782900Y878837D01*
X782059Y876806D01*
X781772Y874626D01*
X782059Y872446D01*
X782900Y870415D01*
X783053Y870216D01*
Y809070D01*
X772515Y798532D01*
X772266Y798499D01*
X770235Y797658D01*
X768491Y796319D01*
X767152Y794575D01*
X766311Y792544D01*
X766024Y790364D01*
X766311Y788184D01*
X767152Y786153D01*
X768491Y784409D01*
X770235Y783070D01*
X772266Y782229D01*
X774446Y781942D01*
X776626Y782229D01*
X778657Y783070D01*
X780401Y784409D01*
X781740Y786153D01*
X782581Y788184D01*
X782614Y788433D01*
X795243Y801062D01*
X795244Y801062D01*
X796378Y802542D01*
X797092Y804264D01*
X797335Y806112D01*
Y870216D01*
X797488Y870415D01*
X798329Y872446D01*
X798616Y874626D01*
X798329Y876806D01*
X797488Y878837D01*
X796149Y880581D01*
X795501Y881079D01*
X795932Y882349D01*
X802461D01*
X846469Y838341D01*
X847803Y837450D01*
X849376Y837137D01*
X1062736D01*
X1064309Y837450D01*
X1065643Y838341D01*
X1157911Y930609D01*
X1187958D01*
X1189531Y930922D01*
X1190865Y931813D01*
X1191019Y932044D01*
X1194816D01*
X1195840Y932247D01*
X1196709Y932828D01*
X1197289Y933696D01*
X1197492Y934720D01*
X1197437Y934998D01*
X1216257Y953818D01*
X1216971Y953676D01*
X1218141Y953909D01*
X1219133Y954572D01*
X1219796Y955564D01*
X1220029Y956735D01*
X1219796Y957906D01*
X1219133Y958898D01*
X1218141Y959561D01*
X1217349Y959718D01*
X1216874Y960767D01*
X1216849Y961014D01*
X1221918Y966083D01*
X1226672D01*
X1227351Y964813D01*
X1227149Y964510D01*
X1226916Y963340D01*
X1227149Y962169D01*
X1227812Y961177D01*
X1228412Y960776D01*
X1228497Y960390D01*
X1228453Y959483D01*
X1228412Y959364D01*
X1227692Y958883D01*
X1227029Y957890D01*
X1226796Y956720D01*
X1227029Y955549D01*
X1227692Y954557D01*
X1228684Y953894D01*
X1229269Y953778D01*
X1231355Y951692D01*
Y900176D01*
X1231628Y898801D01*
X1232407Y897635D01*
X1269774Y860268D01*
X1270940Y859490D01*
X1272315Y859216D01*
X1302068D01*
X1330415Y830870D01*
Y828400D01*
X1329156Y827879D01*
X1327147Y826337D01*
X1325605Y824327D01*
X1324636Y821987D01*
X1324305Y819476D01*
X1324636Y816965D01*
X1325605Y814624D01*
X1327147Y812615D01*
X1329156Y811073D01*
X1331497Y810104D01*
X1334008Y809773D01*
X1336519Y810104D01*
X1338860Y811073D01*
X1340869Y812615D01*
X1342411Y814624D01*
X1343380Y816965D01*
X1343711Y819476D01*
X1343380Y821987D01*
X1342411Y824327D01*
X1340869Y826337D01*
X1338860Y827879D01*
X1337601Y828400D01*
Y832358D01*
X1337328Y833733D01*
X1336549Y834899D01*
X1306098Y865350D01*
X1304932Y866129D01*
X1303557Y866402D01*
X1273803D01*
X1238541Y901664D01*
Y912194D01*
X1239714Y912680D01*
X1280667Y871727D01*
X1281833Y870948D01*
X1283208Y870675D01*
X1319691D01*
X1356069Y834297D01*
Y828505D01*
X1354556Y827879D01*
X1352547Y826337D01*
X1351005Y824327D01*
X1350036Y821987D01*
X1349705Y819476D01*
X1350036Y816965D01*
X1351005Y814624D01*
X1352547Y812615D01*
X1354556Y811073D01*
X1356897Y810104D01*
X1359408Y809773D01*
X1361919Y810104D01*
X1364259Y811073D01*
X1366269Y812615D01*
X1367811Y814624D01*
X1368780Y816965D01*
X1369111Y819476D01*
X1368780Y821987D01*
X1367811Y824327D01*
X1366269Y826337D01*
X1364259Y827879D01*
X1363255Y828295D01*
Y835785D01*
X1362982Y837160D01*
X1362203Y838326D01*
X1323720Y876809D01*
X1322554Y877588D01*
X1321179Y877861D01*
X1284696D01*
X1244313Y918244D01*
Y950962D01*
X1245487Y951448D01*
X1247281Y949654D01*
Y930315D01*
X1247113Y930203D01*
X1246110Y928701D01*
X1245758Y926930D01*
X1246110Y925159D01*
X1247113Y923657D01*
X1288829Y881941D01*
X1290331Y880937D01*
X1292103Y880585D01*
X1292103Y880585D01*
X1323939D01*
X1348261Y856263D01*
X1348261Y856263D01*
X1349763Y855259D01*
X1351534Y854907D01*
X1351534Y854907D01*
X1370191D01*
X1380179Y844919D01*
Y829096D01*
X1375188D01*
Y809856D01*
X1379532D01*
Y802286D01*
X1372716Y795470D01*
X1204114D01*
X1182820Y816764D01*
Y895808D01*
X1183659Y896900D01*
X1184364Y898603D01*
X1184604Y900430D01*
X1184364Y902257D01*
X1183659Y903960D01*
X1182536Y905422D01*
X1181074Y906544D01*
X1179371Y907250D01*
X1177544Y907490D01*
X1175717Y907250D01*
X1174014Y906544D01*
X1172552Y905422D01*
X1171430Y903960D01*
X1170724Y902257D01*
X1170484Y900430D01*
X1170724Y898603D01*
X1171430Y896900D01*
X1172268Y895808D01*
Y814578D01*
X1172669Y812559D01*
X1173813Y810847D01*
X1198197Y786463D01*
X1199909Y785319D01*
X1201928Y784918D01*
X1374902D01*
X1376921Y785319D01*
X1378633Y786463D01*
X1388539Y796369D01*
X1389683Y798081D01*
X1390084Y800100D01*
Y809856D01*
X1394428D01*
Y829096D01*
X1389437D01*
Y846836D01*
X1389437Y846836D01*
X1389085Y848607D01*
X1388081Y850109D01*
X1388081Y850109D01*
X1375381Y862809D01*
X1373879Y863813D01*
X1372108Y864165D01*
X1372108Y864165D01*
X1353451D01*
X1329129Y888487D01*
X1327627Y889491D01*
X1325856Y889843D01*
X1325856Y889843D01*
X1294020D01*
X1253660Y930203D01*
X1252428Y931027D01*
Y950720D01*
X1252232Y951705D01*
X1251674Y952540D01*
X1245649Y958564D01*
Y961243D01*
X1246821Y961598D01*
X1246962Y961565D01*
X1247257Y961123D01*
X1248250Y960459D01*
X1248513Y960407D01*
X1306573Y902347D01*
X1306573Y902347D01*
X1307441Y901767D01*
X1308465Y901564D01*
X1373564D01*
X1373944Y900996D01*
X1375432Y900001D01*
X1377188Y899652D01*
X1378944Y900001D01*
X1380432Y900996D01*
X1381427Y902484D01*
X1381776Y904240D01*
X1381427Y905996D01*
X1380432Y907484D01*
X1378944Y908479D01*
X1377188Y908828D01*
X1375432Y908479D01*
X1373944Y907484D01*
X1373564Y906916D01*
X1309574D01*
X1297147Y919344D01*
X1297673Y920614D01*
X1372472D01*
X1372780Y920152D01*
X1374103Y919268D01*
X1375664Y918958D01*
X1377225Y919268D01*
X1378548Y920152D01*
X1379432Y921475D01*
X1379742Y923036D01*
X1379474Y924384D01*
X1379765Y924442D01*
X1381088Y925326D01*
X1381972Y926649D01*
X1382282Y928210D01*
X1381972Y929771D01*
X1381088Y931094D01*
X1379765Y931978D01*
X1378204Y932288D01*
X1376643Y931978D01*
X1375320Y931094D01*
X1375182Y930886D01*
X1298720D01*
X1273541Y956066D01*
X1273734Y957669D01*
X1273941Y957807D01*
X1274604Y958800D01*
X1274837Y959970D01*
X1274604Y961141D01*
X1273941Y962133D01*
X1272949Y962796D01*
X1272046Y962975D01*
X1270790Y964231D01*
Y1005209D01*
X1270999Y1005349D01*
X1271773Y1006506D01*
X1272045Y1007872D01*
X1271773Y1009238D01*
X1270999Y1010395D01*
X1269842Y1011169D01*
X1268476Y1011441D01*
X1267110Y1011169D01*
X1265953Y1010395D01*
X1265179Y1009238D01*
X1264907Y1007872D01*
X1265179Y1006506D01*
X1265953Y1005349D01*
X1266161Y1005209D01*
Y965104D01*
X1264988Y964618D01*
X1257688Y971918D01*
X1256819Y972499D01*
X1255795Y972702D01*
X1254771Y972499D01*
X1253903Y971918D01*
X1253745Y971683D01*
X1251673D01*
X1251335Y972189D01*
X1250342Y972852D01*
X1249172Y973085D01*
X1248001Y972852D01*
X1247009Y972189D01*
X1246346Y971197D01*
X1246113Y970026D01*
X1246346Y968856D01*
X1247009Y967863D01*
X1247884Y967278D01*
X1247955Y967053D01*
X1247986Y966765D01*
X1247955Y965915D01*
X1247257Y965448D01*
X1247003Y965069D01*
X1245534Y965143D01*
X1245239Y965585D01*
X1244247Y966248D01*
X1243076Y966481D01*
X1241906Y966248D01*
X1240913Y965585D01*
X1240408Y964829D01*
X1240240Y964775D01*
X1239491Y964732D01*
X1239001Y964823D01*
X1238583Y965448D01*
X1237590Y966111D01*
X1236420Y966344D01*
X1235823Y966225D01*
X1233137Y968912D01*
X1232663Y969229D01*
X1232625Y969504D01*
X1232737Y970538D01*
X1232903Y970571D01*
X1233441Y970930D01*
X1235850Y973340D01*
X1236420Y973227D01*
X1237590Y973459D01*
X1238583Y974122D01*
X1238966Y974695D01*
X1239140Y974748D01*
X1240318Y974717D01*
X1240377Y974695D01*
X1240803Y974057D01*
X1241796Y973394D01*
X1242966Y973161D01*
X1244137Y973394D01*
X1245129Y974057D01*
X1245792Y975050D01*
X1246025Y976220D01*
X1245792Y977391D01*
X1245257Y978191D01*
Y980389D01*
X1245340Y980586D01*
X1245659Y980804D01*
X1247263Y980563D01*
X1248255Y979900D01*
X1249426Y979667D01*
X1250596Y979900D01*
X1251589Y980563D01*
X1252252Y981555D01*
X1252341Y982001D01*
X1259390Y989051D01*
X1260707Y989313D01*
X1261873Y990091D01*
X1262652Y991257D01*
X1262925Y992632D01*
Y1012908D01*
X1266459Y1016442D01*
X1266821Y1016514D01*
X1268155Y1017405D01*
X1346059Y1095309D01*
X1346950Y1096643D01*
X1347263Y1098216D01*
Y1123368D01*
X1348004Y1123675D01*
X1350013Y1125217D01*
X1351555Y1127226D01*
X1352524Y1129567D01*
X1352855Y1132078D01*
X1352524Y1134589D01*
X1351555Y1136929D01*
X1350013Y1138939D01*
X1348004Y1140481D01*
X1345663Y1141450D01*
X1343152Y1141781D01*
X1340641Y1141450D01*
X1338300Y1140481D01*
X1336291Y1138939D01*
X1334749Y1136929D01*
X1333780Y1134589D01*
X1333449Y1132078D01*
X1333780Y1129567D01*
X1334749Y1127226D01*
X1336291Y1125217D01*
X1338300Y1123675D01*
X1339041Y1123368D01*
Y1099919D01*
X1262341Y1023219D01*
X1261450Y1021885D01*
X1261378Y1021523D01*
X1256791Y1016937D01*
X1256012Y1015771D01*
X1255739Y1014396D01*
Y993059D01*
X1255196Y992638D01*
X1253926Y993261D01*
Y1082027D01*
X1254719Y1083213D01*
X1255071Y1084984D01*
Y1104653D01*
X1255071Y1104653D01*
X1254719Y1106424D01*
X1253715Y1107926D01*
X1253715Y1107926D01*
X1239658Y1121983D01*
X1238157Y1122987D01*
X1236385Y1123339D01*
X1236385Y1123339D01*
X1144310D01*
Y1127710D01*
X1125310D01*
Y1123502D01*
X1120761D01*
X1119090Y1125173D01*
Y1144571D01*
X1121747Y1147228D01*
X1123810D01*
Y1147020D01*
X1143810D01*
Y1143790D01*
X1153540D01*
Y1147520D01*
X1145810D01*
Y1156520D01*
X1165810D01*
Y1156891D01*
X1173570D01*
Y1152860D01*
X1192570D01*
Y1170860D01*
X1173570D01*
Y1166149D01*
X1165810D01*
Y1166520D01*
X1143810D01*
Y1166312D01*
X1141451D01*
X1138140Y1169623D01*
Y1181401D01*
X1139527Y1182788D01*
X1146130D01*
Y1178080D01*
X1164130D01*
Y1197080D01*
X1146130D01*
Y1192372D01*
X1137542D01*
X1137542Y1192372D01*
X1135708Y1192007D01*
X1134154Y1190968D01*
X1134154Y1190968D01*
X1129959Y1186775D01*
X1128921Y1185220D01*
X1128556Y1183386D01*
X1128556Y1183386D01*
Y1167638D01*
X1128556Y1167638D01*
X1128921Y1165804D01*
X1129959Y1164249D01*
X1135919Y1158290D01*
X1135805Y1157645D01*
X1135455Y1157020D01*
X1123810D01*
Y1156812D01*
X1119762D01*
X1117928Y1156447D01*
X1116374Y1155408D01*
X1116374Y1155408D01*
X1110910Y1149945D01*
X1109871Y1148390D01*
X1109506Y1146556D01*
X1109506Y1146556D01*
Y1123188D01*
X1109506Y1123188D01*
X1109871Y1121354D01*
X1110910Y1119799D01*
X1115387Y1115322D01*
X1115387Y1115322D01*
X1116942Y1114283D01*
X1118776Y1113918D01*
X1125310D01*
Y1109710D01*
X1144310D01*
Y1114081D01*
X1234468D01*
X1245813Y1102736D01*
Y1084984D01*
X1246165Y1083213D01*
X1247169Y1081711D01*
X1247258Y1081651D01*
Y1028299D01*
X1245988Y1027913D01*
X1245729Y1028301D01*
X1234999Y1039031D01*
Y1088821D01*
X1235881Y1089498D01*
X1237003Y1090960D01*
X1237708Y1092663D01*
X1237949Y1094490D01*
X1237708Y1096318D01*
X1237003Y1098020D01*
X1235881Y1099483D01*
X1234418Y1100605D01*
X1232716Y1101310D01*
X1230888Y1101551D01*
X1229061Y1101310D01*
X1227358Y1100605D01*
X1225896Y1099483D01*
X1224774Y1098020D01*
X1224068Y1096318D01*
X1223828Y1094490D01*
X1224068Y1092663D01*
X1224774Y1090960D01*
X1225896Y1089498D01*
X1226777Y1088821D01*
Y1037328D01*
X1227090Y1035755D01*
X1227981Y1034421D01*
X1238711Y1023691D01*
Y1007110D01*
X1239024Y1005537D01*
X1239731Y1004479D01*
Y989076D01*
X1239846Y988498D01*
X1238649Y988002D01*
X1238364Y988428D01*
X1192137Y1034657D01*
X1191268Y1035237D01*
X1190244Y1035440D01*
X1190244Y1035440D01*
X1138014D01*
X1136912Y1037090D01*
X1134927Y1038416D01*
X1132586Y1038882D01*
X1130245Y1038416D01*
X1128260Y1037090D01*
X1126934Y1035105D01*
X1126469Y1032764D01*
X1126934Y1030423D01*
X1128260Y1028438D01*
X1130245Y1027112D01*
X1132586Y1026646D01*
X1134927Y1027112D01*
X1136912Y1028438D01*
X1138014Y1030088D01*
X1189135D01*
X1202929Y1016294D01*
X1202443Y1015120D01*
X1136744D01*
X1135642Y1016770D01*
X1133657Y1018096D01*
X1131316Y1018561D01*
X1128975Y1018096D01*
X1126990Y1016770D01*
X1125664Y1014785D01*
X1125199Y1012444D01*
X1125331Y1011776D01*
X1124161Y1011150D01*
X1122458Y1012853D01*
Y1036971D01*
X1167456Y1081969D01*
X1168178Y1083050D01*
X1168432Y1084326D01*
Y1094703D01*
X1169309Y1095066D01*
X1171053Y1096405D01*
X1172392Y1098149D01*
X1173233Y1100180D01*
X1173520Y1102360D01*
X1173233Y1104540D01*
X1172392Y1106571D01*
X1171053Y1108315D01*
X1169309Y1109654D01*
X1167278Y1110495D01*
X1165098Y1110782D01*
X1162918Y1110495D01*
X1160887Y1109654D01*
X1159143Y1108315D01*
X1157804Y1106571D01*
X1156963Y1104540D01*
X1156676Y1102360D01*
X1156963Y1100180D01*
X1157804Y1098149D01*
X1159143Y1096405D01*
X1160887Y1095066D01*
X1161764Y1094703D01*
Y1085707D01*
X1116767Y1040710D01*
X1116044Y1039628D01*
X1115790Y1038352D01*
Y1011472D01*
X1116044Y1010196D01*
X1116767Y1009115D01*
X1123526Y1002355D01*
X1123000Y1001085D01*
X1114707D01*
X1106283Y1009509D01*
X1104949Y1010400D01*
X1103376Y1010713D01*
X964427D01*
X963750Y1011594D01*
X962288Y1012717D01*
X960585Y1013422D01*
X958758Y1013662D01*
X956931Y1013422D01*
X955228Y1012717D01*
X953766Y1011594D01*
X952644Y1010132D01*
X951938Y1008429D01*
X951698Y1006602D01*
X951938Y1004775D01*
X952644Y1003072D01*
X953766Y1001610D01*
X955228Y1000488D01*
X956931Y999782D01*
X958758Y999542D01*
X960585Y999782D01*
X962288Y1000488D01*
X963750Y1001610D01*
X964427Y1002491D01*
X1101673D01*
X1110097Y994067D01*
X1111431Y993176D01*
X1113004Y992863D01*
X1202405D01*
X1214728Y980540D01*
X1215731Y979870D01*
X1216914Y979635D01*
X1218097Y979870D01*
X1219100Y980540D01*
X1219488Y981121D01*
X1219954Y981202D01*
X1220850Y981127D01*
X1220892Y981110D01*
X1221403Y980346D01*
X1221837Y980056D01*
X1221839Y980051D01*
X1221783Y978608D01*
X1221299Y978285D01*
X1220961Y977779D01*
X1213150D01*
X1212516Y977653D01*
X1211979Y977293D01*
X1205722Y971037D01*
X1205145Y971157D01*
X1204430Y971541D01*
X1204246Y972467D01*
X1203583Y973459D01*
X1202590Y974122D01*
X1201420Y974355D01*
X1200531Y974178D01*
X1199801Y974905D01*
X1199679Y975119D01*
X1199644Y975242D01*
X1199847Y976262D01*
X1199649Y977256D01*
X1199687Y977384D01*
X1199824Y977625D01*
X1199844Y977649D01*
X1200551Y978316D01*
X1201420Y978143D01*
X1202590Y978376D01*
X1203583Y979039D01*
X1204246Y980032D01*
X1204479Y981202D01*
X1204246Y982373D01*
X1203583Y983365D01*
X1202590Y984028D01*
X1202289Y984088D01*
X1201417Y984325D01*
X1201367Y985468D01*
X1201467Y985970D01*
X1201154Y987543D01*
X1200263Y988877D01*
X1198929Y989768D01*
X1197356Y990081D01*
X875775D01*
X868089Y997767D01*
Y1002457D01*
X868970Y1003134D01*
X870092Y1004596D01*
X870798Y1006299D01*
X871038Y1008126D01*
X870798Y1009953D01*
X870092Y1011656D01*
X868970Y1013118D01*
X867508Y1014240D01*
X865805Y1014946D01*
X863978Y1015186D01*
X863092Y1015963D01*
X863092Y1091569D01*
X1125310Y1091569D01*
Y1089710D01*
X1144310D01*
Y1107710D01*
X1125310D01*
Y1105851D01*
X863092Y1105851D01*
Y1139584D01*
X866978D01*
Y1158584D01*
X863092D01*
Y1170584D01*
X866978D01*
Y1189584D01*
X863092D01*
Y1197162D01*
X864978D01*
Y1220162D01*
X863092D01*
Y1236189D01*
X1316318D01*
X1336011Y1216496D01*
Y1163974D01*
X1334749Y1162329D01*
X1333780Y1159989D01*
X1333449Y1157478D01*
X1333780Y1154967D01*
X1334749Y1152626D01*
X1336291Y1150617D01*
X1338300Y1149075D01*
X1340641Y1148106D01*
X1343152Y1147775D01*
X1345663Y1148106D01*
X1348004Y1149075D01*
X1350013Y1150617D01*
X1351555Y1152626D01*
X1352524Y1154967D01*
X1352855Y1157478D01*
X1352524Y1159989D01*
X1351555Y1162329D01*
X1350293Y1163974D01*
Y1219454D01*
X1350293Y1219454D01*
X1350050Y1221302D01*
X1349336Y1223025D01*
X1348201Y1224503D01*
X1348201Y1224504D01*
X1324326Y1248380D01*
X1322847Y1249514D01*
X1321124Y1250228D01*
X1319276Y1250471D01*
X1319276Y1250471D01*
X863092D01*
Y1265922D01*
X1506460D01*
X1506460Y727978D01*
D02*
G37*
%LPC*%
G36*
X1184130Y1197080D02*
X1166130D01*
Y1178080D01*
X1184130D01*
Y1180439D01*
X1218652D01*
X1224759Y1174332D01*
Y1166851D01*
X1219740D01*
Y1170360D01*
X1199740D01*
Y1152630D01*
X1199740Y1151360D01*
X1199740Y1150090D01*
Y1143130D01*
X1209740D01*
X1219740D01*
Y1150090D01*
X1219740Y1151360D01*
X1219887Y1152569D01*
X1249880D01*
X1249880Y1152569D01*
X1251728Y1152812D01*
X1253450Y1153526D01*
X1254930Y1154660D01*
X1266608Y1166339D01*
X1283214D01*
X1284301Y1164921D01*
X1286808Y1162998D01*
X1289727Y1161789D01*
X1292860Y1161376D01*
X1295993Y1161789D01*
X1298912Y1162998D01*
X1301418Y1164921D01*
X1303342Y1167428D01*
X1304551Y1170347D01*
X1304964Y1173480D01*
X1304551Y1176613D01*
X1303342Y1179532D01*
X1301418Y1182038D01*
X1298912Y1183962D01*
X1295993Y1185171D01*
X1292860Y1185584D01*
X1289727Y1185171D01*
X1286808Y1183962D01*
X1284301Y1182038D01*
X1283214Y1180621D01*
X1263650D01*
X1263650Y1180621D01*
X1261802Y1180378D01*
X1260079Y1179664D01*
X1258600Y1178530D01*
X1258600Y1178529D01*
X1246922Y1166851D01*
X1239041D01*
Y1177290D01*
X1239041Y1177290D01*
X1238798Y1179138D01*
X1238084Y1180861D01*
X1236949Y1182339D01*
X1236949Y1182340D01*
X1226659Y1192629D01*
X1225181Y1193764D01*
X1223458Y1194478D01*
X1221610Y1194721D01*
X1221610Y1194721D01*
X1184130D01*
Y1197080D01*
D02*
G37*
G36*
X1165810Y1147520D02*
X1156080D01*
Y1143790D01*
X1165810D01*
Y1147520D01*
D02*
G37*
G36*
X1192570Y1150860D02*
X1184340D01*
Y1143130D01*
X1192570D01*
Y1150860D01*
D02*
G37*
G36*
X1181800D02*
X1173570D01*
Y1143130D01*
X1181800D01*
Y1150860D01*
D02*
G37*
G36*
X1165810Y1141250D02*
X1156080D01*
Y1137520D01*
X1165810D01*
Y1141250D01*
D02*
G37*
G36*
X1153540D02*
X1143810D01*
Y1137520D01*
X1153540D01*
Y1141250D01*
D02*
G37*
G36*
X1192570Y1140590D02*
X1184340D01*
Y1132860D01*
X1192570D01*
Y1140590D01*
D02*
G37*
G36*
X1181800D02*
X1173570D01*
Y1132860D01*
X1181800D01*
Y1140590D01*
D02*
G37*
G36*
X1219740Y1140590D02*
X1211010D01*
Y1132360D01*
X1219740D01*
Y1140590D01*
D02*
G37*
G36*
X1208470D02*
X1199740D01*
Y1132360D01*
X1208470D01*
Y1140590D01*
D02*
G37*
G36*
X542262Y900886D02*
X540434Y900646D01*
X538731Y899940D01*
X537269Y898818D01*
X536147Y897356D01*
X535442Y895653D01*
X535201Y893826D01*
X535442Y891999D01*
X536147Y890296D01*
X537269Y888834D01*
X538731Y887711D01*
X540434Y887006D01*
X542262Y886766D01*
X544089Y887006D01*
X545792Y887711D01*
X545891Y887788D01*
X558717D01*
Y853520D01*
X547769Y842572D01*
X546625Y840860D01*
X546224Y838841D01*
Y811206D01*
X545081Y810329D01*
X543638Y808449D01*
X542732Y806260D01*
X542422Y803910D01*
X542732Y801561D01*
X543638Y799371D01*
X545081Y797491D01*
X546961Y796049D01*
X549151Y795142D01*
X551500Y794832D01*
X553849Y795142D01*
X556039Y796049D01*
X557919Y797491D01*
X559361Y799371D01*
X560268Y801561D01*
X560578Y803910D01*
X560268Y806260D01*
X559361Y808449D01*
X557919Y810329D01*
X556776Y811206D01*
Y836656D01*
X567724Y847603D01*
X568868Y849315D01*
X569269Y851334D01*
X569269Y851334D01*
Y887788D01*
X579832D01*
X580924Y886949D01*
X582627Y886244D01*
X584454Y886004D01*
X586281Y886244D01*
X587984Y886949D01*
X589446Y888072D01*
X590569Y889534D01*
X591274Y891237D01*
X591514Y893064D01*
X591274Y894891D01*
X590569Y896594D01*
X589446Y898056D01*
X587984Y899178D01*
X586281Y899884D01*
X584454Y900124D01*
X582627Y899884D01*
X580924Y899178D01*
X579832Y898340D01*
X547621D01*
X547254Y898818D01*
X545792Y899940D01*
X544089Y900646D01*
X542262Y900886D01*
D02*
G37*
G36*
X1284478Y829012D02*
Y820746D01*
X1292744D01*
X1292580Y821987D01*
X1291611Y824327D01*
X1290069Y826337D01*
X1288060Y827879D01*
X1285719Y828848D01*
X1284478Y829012D01*
D02*
G37*
G36*
X1281938D02*
X1280697Y828848D01*
X1278356Y827879D01*
X1276347Y826337D01*
X1274805Y824327D01*
X1273836Y821987D01*
X1273672Y820746D01*
X1281938D01*
Y829012D01*
D02*
G37*
G36*
X1292744Y818206D02*
X1284478D01*
Y809940D01*
X1285719Y810104D01*
X1288060Y811073D01*
X1290069Y812615D01*
X1291611Y814624D01*
X1292580Y816965D01*
X1292744Y818206D01*
D02*
G37*
G36*
X1281938D02*
X1273672D01*
X1273836Y816965D01*
X1274805Y814624D01*
X1276347Y812615D01*
X1278356Y811073D01*
X1280697Y810104D01*
X1281938Y809940D01*
Y818206D01*
D02*
G37*
G36*
X1223462Y940627D02*
X1222087Y940353D01*
X1220921Y939575D01*
X1220143Y938409D01*
X1219869Y937034D01*
Y912276D01*
X1201673Y894081D01*
X1200894Y892915D01*
X1200621Y891540D01*
Y858196D01*
X1200003Y857940D01*
X1198259Y856601D01*
X1196920Y854857D01*
X1196079Y852826D01*
X1195792Y850646D01*
X1196079Y848466D01*
X1196920Y846435D01*
X1198259Y844691D01*
X1200003Y843352D01*
X1202034Y842511D01*
X1204214Y842224D01*
X1206394Y842511D01*
X1208425Y843352D01*
X1210169Y844691D01*
X1211187Y846017D01*
X1292213D01*
X1303979Y834251D01*
Y827971D01*
X1303757Y827879D01*
X1301747Y826337D01*
X1300205Y824327D01*
X1299236Y821987D01*
X1298905Y819476D01*
X1299236Y816965D01*
X1300205Y814624D01*
X1301747Y812615D01*
X1303757Y811073D01*
X1306097Y810104D01*
X1308608Y809773D01*
X1311119Y810104D01*
X1313459Y811073D01*
X1315469Y812615D01*
X1317011Y814624D01*
X1317980Y816965D01*
X1318311Y819476D01*
X1317980Y821987D01*
X1317011Y824327D01*
X1315469Y826337D01*
X1313459Y827879D01*
X1313237Y827971D01*
Y836168D01*
X1313237Y836168D01*
X1312885Y837939D01*
X1311881Y839441D01*
X1311881Y839441D01*
X1297403Y853919D01*
X1295901Y854923D01*
X1294130Y855275D01*
X1294130Y855275D01*
X1211187D01*
X1210169Y856601D01*
X1208425Y857940D01*
X1207807Y858196D01*
Y890052D01*
X1226003Y908247D01*
X1226781Y909413D01*
X1227055Y910788D01*
Y937034D01*
X1226781Y938409D01*
X1226003Y939575D01*
X1224837Y940353D01*
X1223462Y940627D01*
D02*
G37*
G36*
X329184Y832161D02*
X327413Y831809D01*
X325911Y830805D01*
X324907Y829303D01*
X324555Y827532D01*
X324907Y825761D01*
X325911Y824259D01*
X327413Y823255D01*
X329184Y822903D01*
X330955Y823255D01*
X331978Y823939D01*
X341287D01*
X342609Y822617D01*
Y815087D01*
X341925Y814063D01*
X341573Y812292D01*
X341925Y810521D01*
X342929Y809019D01*
X344431Y808015D01*
X346202Y807663D01*
X347973Y808015D01*
X349475Y809019D01*
X350479Y810521D01*
X350831Y812292D01*
X350479Y814063D01*
X349795Y815087D01*
Y824105D01*
X349522Y825480D01*
X348743Y826646D01*
X345316Y830073D01*
X344150Y830852D01*
X342775Y831125D01*
X331978D01*
X330955Y831809D01*
X329184Y832161D01*
D02*
G37*
G36*
X1160018Y927010D02*
X1158457Y926700D01*
X1157134Y925816D01*
X1156250Y924493D01*
X1156098Y923727D01*
X1009897Y777526D01*
X497109D01*
X445000Y829635D01*
X443918Y830358D01*
X442642Y830612D01*
X402260D01*
X401611Y831046D01*
X400050Y831356D01*
X398489Y831046D01*
X397166Y830162D01*
X396282Y828839D01*
X395972Y827278D01*
X396282Y825717D01*
X397166Y824394D01*
Y823812D01*
X396282Y822489D01*
X395972Y820928D01*
X396282Y819367D01*
X397166Y818044D01*
X398489Y817160D01*
X400050Y816850D01*
X401611Y817160D01*
X402260Y817594D01*
X438631D01*
X490740Y765484D01*
X491822Y764762D01*
X493098Y764508D01*
X1013908D01*
X1015184Y764762D01*
X1016266Y765484D01*
X1161509Y910728D01*
X1162304Y910886D01*
X1163627Y911770D01*
X1164511Y913093D01*
X1164822Y914654D01*
X1164511Y916215D01*
X1163627Y917538D01*
X1162529Y918272D01*
X1162352Y919195D01*
X1162383Y919701D01*
X1162902Y920048D01*
X1163786Y921371D01*
X1164096Y922932D01*
X1163786Y924493D01*
X1162902Y925816D01*
X1161579Y926700D01*
X1160018Y927010D01*
D02*
G37*
%LPD*%
D13*
X1223518Y982509D02*
Y988568D01*
X1208017Y1004069D02*
X1223518Y988568D01*
X1126527Y1004069D02*
X1208017D01*
X1119124Y1011472D02*
X1126527Y1004069D01*
X1119124Y1011472D02*
Y1038352D01*
X1160720Y914654D02*
X1160743D01*
X1013908Y767842D02*
X1160720Y914654D01*
X493098Y767842D02*
X1013908D01*
X1011278Y774192D02*
X1160018Y922932D01*
X495728Y774192D02*
X1011278D01*
X1230007Y963340D02*
X1240720Y952627D01*
X1242943Y976220D02*
Y982593D01*
X1250592Y990242D02*
Y1084834D01*
X1242943Y982593D02*
X1250592Y990242D01*
X1268476Y963272D02*
Y1007872D01*
Y963272D02*
X1271778Y959970D01*
X400050Y827278D02*
X442642D01*
X495728Y774192D01*
X400050Y820928D02*
X440012D01*
X493098Y767842D01*
X1223355Y953607D02*
Y963220D01*
X1220170Y950422D02*
X1223355Y953607D01*
X1220170Y946970D02*
Y950422D01*
X1223772Y946150D02*
X1228598Y941324D01*
X1215644Y946150D02*
X1223772D01*
X1119124Y1038352D02*
X1165098Y1084326D01*
X1212272Y942778D02*
X1215644Y946150D01*
X1212272Y939984D02*
Y942778D01*
X681990Y1098550D02*
X682244Y1098804D01*
X1165098Y1084326D02*
Y1102360D01*
D29*
X1209740Y1141860D02*
D03*
Y1160860D02*
D03*
X554482Y1063498D02*
D03*
Y1044498D02*
D03*
X797820Y1180084D02*
D03*
Y1161084D02*
D03*
D30*
X581812Y1040638D02*
D03*
X600812D02*
D03*
D68*
X1134810Y1152020D02*
D03*
X1154810Y1142520D02*
D03*
Y1161520D02*
D03*
D75*
X561086Y997138D02*
D03*
Y977138D02*
D03*
X482600Y997138D02*
D03*
Y977138D02*
D03*
X1134810Y1118710D02*
D03*
Y1098710D02*
D03*
X1183070Y1161860D02*
D03*
Y1141860D02*
D03*
X508762Y997138D02*
D03*
Y977138D02*
D03*
X534924Y997138D02*
D03*
Y977138D02*
D03*
X600812Y1014222D02*
D03*
Y994222D02*
D03*
X656844Y1096198D02*
D03*
Y1076198D02*
D03*
D76*
X1155130Y1187580D02*
D03*
X1175130D02*
D03*
D98*
X1398524Y886606D02*
Y901798D01*
X1387032Y913290D02*
X1398524Y901798D01*
X1341882Y913290D02*
X1387032D01*
X1383392Y871474D02*
X1398524Y886606D01*
X1358646Y871474D02*
X1383392D01*
X1250387Y926930D02*
X1292103Y885214D01*
X1325856D01*
X1351534Y859536D01*
X1308608Y819476D02*
Y836168D01*
X1294130Y850646D02*
X1308608Y836168D01*
X1204214Y850646D02*
X1294130D01*
X1250442Y1084984D02*
Y1104653D01*
X1236385Y1118710D02*
X1250442Y1104653D01*
X556514Y1088898D02*
X578474D01*
X556260Y1088644D02*
X556514Y1088898D01*
X592074Y1101598D02*
X615442Y1078230D01*
Y994222D02*
Y1078230D01*
X1351534Y859536D02*
X1372108D01*
X1384808Y819476D02*
Y846836D01*
X1372108Y859536D02*
X1384808Y846836D01*
X1134810Y1118710D02*
X1236385D01*
X1182730Y1161520D02*
X1183070Y1161860D01*
X1154810Y1161520D02*
X1182730D01*
X1316104Y1141860D02*
X1317752Y1143508D01*
X1209740Y1141860D02*
X1316104D01*
X578474Y1101598D02*
X592074D01*
X632460Y1126452D02*
X632714Y1126198D01*
Y1101598D02*
Y1126198D01*
X505146Y1069788D02*
X548132Y1112774D01*
X482666Y1069788D02*
X505146D01*
X548132Y1112774D02*
X595122D01*
X618998Y1088898D01*
X632714D01*
X531114Y1063498D02*
X554482D01*
X521843Y1054227D02*
X531114Y1063498D01*
X521843Y997138D02*
Y1054227D01*
X600812Y1040638D02*
Y1068222D01*
X592836Y1076198D02*
X600812Y1068222D01*
X578474Y1076198D02*
X592836D01*
X508508Y997392D02*
X508762Y997138D01*
X554482Y1063498D02*
X578474D01*
D99*
X1177544Y814578D02*
Y900430D01*
Y814578D02*
X1201928Y790194D01*
X647954Y1045858D02*
X648462Y1045350D01*
X647954Y1045858D02*
Y1059703D01*
X644234Y1063423D02*
X647954Y1059703D01*
X632789Y1063423D02*
X644234D01*
X632714Y1063498D02*
X632789Y1063423D01*
X632714Y1044080D02*
Y1045350D01*
X543532Y893064D02*
X563993D01*
Y851334D02*
Y893064D01*
X1317752Y1143508D02*
Y1190498D01*
Y1124458D02*
Y1143508D01*
X1293622Y1100328D02*
X1317752Y1124458D01*
X1281430Y1100328D02*
X1293622D01*
X1262556Y1081454D02*
X1281430Y1100328D01*
X1262556Y1057148D02*
Y1081454D01*
X1297686Y1210564D02*
X1317752Y1190498D01*
X1105662Y1210564D02*
X1297686D01*
X1021550Y1126452D02*
X1105662Y1210564D01*
X797820Y1126452D02*
X1021550D01*
X551500Y838841D02*
X563993Y851334D01*
X551500Y803910D02*
Y838841D01*
X563993Y893064D02*
X584454D01*
X656844Y1125944D02*
X657352Y1126452D01*
X656844Y1096198D02*
Y1125944D01*
X632460Y1126452D02*
X657352D01*
X426292D02*
X632460D01*
X657352D02*
X740410D01*
X588264Y1014984D02*
X600050D01*
X582168Y1021080D02*
X588264Y1014984D01*
X582168Y1021080D02*
Y1040282D01*
X565912Y1018794D02*
X582930Y1001776D01*
Y956310D02*
Y1001776D01*
X560070Y1018794D02*
X565912D01*
X554482Y1024382D02*
X560070Y1018794D01*
X554482Y1024382D02*
Y1044498D01*
X582930Y955802D02*
Y956310D01*
X581812Y1040638D02*
X582168Y1040282D01*
X600050Y1014984D02*
X600812Y1014222D01*
X554482Y1044498D02*
X558563Y1040417D01*
X508762Y977138D02*
X509016Y976884D01*
X482600Y997138D02*
X482666Y997204D01*
Y1024188D01*
X740410Y1126452D02*
X797820D01*
X740410D02*
X740918Y1125944D01*
X798582Y1180846D02*
X824230D01*
X797820Y1180084D02*
X798582Y1180846D01*
X1374902Y790194D02*
X1384808Y800100D01*
X1201928Y790194D02*
X1374902D01*
X1384808Y800100D02*
Y819476D01*
X1334770Y988568D02*
Y1002792D01*
Y979396D02*
Y988568D01*
X1344422Y968756D02*
Y969744D01*
X1334770Y979396D02*
X1344422Y969744D01*
X854964Y1128268D02*
Y1148570D01*
X1073282Y1061852D02*
X1073404Y1061974D01*
X1050036Y1061730D02*
X1050158Y1061852D01*
X854964Y1148570D02*
X855478Y1149084D01*
X797820Y1126452D02*
Y1161084D01*
X394542Y1126452D02*
X426292D01*
X403860Y1181354D02*
Y1208278D01*
X394542Y1172036D02*
X403860Y1181354D01*
X394542Y1153452D02*
Y1172036D01*
X426000Y1153160D02*
X426292Y1153452D01*
X388100Y1206228D02*
X388912Y1205416D01*
X388100Y1206228D02*
X390150Y1208278D01*
X1182410Y1142520D02*
X1183070Y1141860D01*
D100*
X1335024Y895096D02*
X1358646Y871474D01*
X1300988Y895096D02*
X1335024D01*
X1261364Y934720D02*
X1300988Y895096D01*
X1202666Y996974D02*
X1216914Y982726D01*
X1113004Y996974D02*
X1202666D01*
X1156208Y934720D02*
X1187958D01*
X1062736Y841248D02*
X1156208Y934720D01*
X849376Y841248D02*
X1062736D01*
X1152906Y940816D02*
X1187450D01*
X1081278Y869188D02*
X1152906Y940816D01*
X853186Y869188D02*
X1081278D01*
X1230888Y1037328D02*
X1242822Y1025394D01*
X1230888Y1037328D02*
Y1094490D01*
X1242822Y1007110D02*
Y1025394D01*
X1103376Y1006602D02*
X1113004Y996974D01*
X958758Y1006602D02*
X1103376D01*
X874072Y985970D02*
X1197356D01*
X863978Y996064D02*
X874072Y985970D01*
X863978Y996064D02*
Y1008126D01*
X814578Y907796D02*
X853186Y869188D01*
X673862Y907796D02*
X814578D01*
X655828Y889762D02*
X673862Y907796D01*
X1217168Y1043178D02*
Y1057910D01*
Y1043178D02*
X1227074Y1033272D01*
Y1004316D02*
Y1033272D01*
X1343152Y1098216D02*
Y1132078D01*
X1265248Y1020312D02*
X1343152Y1098216D01*
X1242822Y989076D02*
Y1006856D01*
X632206Y889762D02*
X655828D01*
X681990Y1082548D02*
Y1098550D01*
X675640Y1076198D02*
X681990Y1082548D01*
X656844Y1076198D02*
X675640D01*
X632714D02*
X656844D01*
X804164Y886460D02*
X849376Y841248D01*
X765556Y886460D02*
X804164D01*
X751586Y872490D02*
X765556Y886460D01*
X751586Y824842D02*
Y872490D01*
X1212088Y923290D02*
Y939800D01*
X1190498Y901700D02*
X1212088Y923290D01*
X1190498Y830072D02*
Y901700D01*
Y830072D02*
X1201094Y819476D01*
X1283208D01*
X1286764Y988568D02*
X1334770D01*
X1275842Y977646D02*
X1286764Y988568D01*
D101*
X803148Y1082802D02*
X827024D01*
X824026Y1208470D02*
X824348Y1208792D01*
X797690Y1208148D02*
X797820Y1208018D01*
X631444Y994222D02*
Y1025350D01*
Y978662D02*
Y994222D01*
X609092Y956310D02*
X631444Y978662D01*
X615442Y994222D02*
X631444D01*
X600812D02*
X615442D01*
X648462Y1045350D02*
X654418D01*
X632714D02*
X648462D01*
X631444D02*
X632714D01*
X654418D02*
X665734Y1034034D01*
X803148Y1082802D02*
Y1096772D01*
Y1082548D02*
Y1082802D01*
Y978512D02*
Y1082548D01*
X827024Y1082802D02*
X842932Y1098710D01*
X1134310Y1098710D01*
X313182Y1208278D02*
X359150D01*
X298450Y1193546D02*
X313182Y1208278D01*
X298450Y1173480D02*
Y1193546D01*
X1343152Y1157478D02*
Y1219454D01*
X780542Y1243330D02*
X1319276D01*
X1343152Y1219454D01*
X611124Y921766D02*
X639318D01*
X665734Y948182D01*
Y1034034D01*
X328422Y921766D02*
X611124Y921766D01*
Y818604D02*
Y921766D01*
X597080Y804560D02*
X611124Y818604D01*
X290834Y959354D02*
X328422Y921766D01*
X290834Y959354D02*
Y1046988D01*
X354834D02*
Y1111910D01*
X582930Y956310D02*
X609092D01*
X561086D02*
X582930D01*
X534924D02*
X561086D01*
X508762D02*
X534924D01*
Y977138D01*
X521843Y997138D02*
X534924D01*
X508762D02*
X521843D01*
X561086Y956310D02*
Y977138D01*
X489966Y956310D02*
X508762D01*
Y977138D01*
X534924Y997138D02*
X561086D01*
X482600Y963676D02*
X489966Y956310D01*
X482600Y963676D02*
Y977138D01*
X491600Y997138D02*
X508762D01*
X1133660Y1098060D02*
X1134310Y1098710D01*
X1134810D01*
X790194Y806112D02*
Y874626D01*
X774446Y790364D02*
X790194Y806112D01*
X766820Y1229608D02*
X780542Y1243330D01*
X766820Y1208278D02*
Y1229608D01*
X1050158Y1061852D02*
X1073282D01*
X354834Y1046988D02*
X414666D01*
X403860Y1208278D02*
X417570D01*
X390150D02*
X403860D01*
X354584Y1112160D02*
X354834Y1111910D01*
X855478Y1180084D02*
Y1208662D01*
X797820Y1180084D02*
Y1208018D01*
X798012Y1208470D02*
X824026D01*
X797820Y1208278D02*
X798012Y1208470D01*
X824348Y1208792D02*
X824478Y1208662D01*
X577360Y804560D02*
X597080D01*
X576710Y803910D02*
X577360Y804560D01*
X789940Y965304D02*
X803148Y978512D01*
X797690Y1208148D02*
X797820Y1208278D01*
X740670D02*
X766820D01*
X682250D02*
X709670D01*
X623830D02*
X651250D01*
X565410D02*
X592830D01*
X506990D02*
X534410D01*
X448570D02*
X475990D01*
X1231900Y1159710D02*
X1249880D01*
X1210890D02*
X1231900D01*
Y1177290D01*
X1221610Y1187580D02*
X1231900Y1177290D01*
X1175130Y1187580D02*
X1221610D01*
X1183070Y1141860D02*
X1209740D01*
X1263650Y1173480D02*
X1292860D01*
X1249880Y1159710D02*
X1263650Y1173480D01*
X1209740Y1160860D02*
X1210890Y1159710D01*
D102*
X1193630Y964579D02*
X1206112D01*
X1118757D02*
X1193630D01*
Y967329D02*
X1204358D01*
X1104997D02*
X1193630D01*
X1236472Y982785D02*
Y986536D01*
X1190244Y1032764D02*
X1236472Y986536D01*
X1230202Y982405D02*
Y987097D01*
X1204855Y1012444D02*
X1230202Y987097D01*
X1131316Y1012444D02*
X1204855D01*
X1132586Y1032764D02*
X1190244D01*
X1143708Y954786D02*
X1181100D01*
X1117354Y928432D02*
X1143708Y954786D01*
X1104646Y950468D02*
X1118757Y964579D01*
X1206112D02*
X1215369Y973836D01*
X1088136Y950468D02*
X1104997Y967329D01*
X1204358D02*
X1213150Y976122D01*
X1116330Y942594D02*
X1134190Y960454D01*
X1182820D01*
X1194718Y947500D02*
X1216962Y969744D01*
X1152724Y947500D02*
X1194718D01*
X1120386Y915162D02*
X1152724Y947500D01*
X1086358Y971296D02*
X1201420D01*
X1075182Y960120D02*
X1086358Y971296D01*
X994804Y976262D02*
X1196788D01*
X955802Y937260D02*
X994804Y976262D01*
X986790Y981202D02*
X1201420D01*
X944372Y938784D02*
X986790Y981202D01*
X1213150Y976122D02*
X1223462D01*
X1187450Y940816D02*
X1194308D01*
X1187958Y934720D02*
X1194816D01*
X1216831Y956735D01*
X1194308Y940816D02*
X1221232Y967740D01*
X1028192Y915162D02*
X1120386D01*
X997758Y945596D02*
X1028192Y915162D01*
X1032961Y942594D02*
X1116330D01*
X1017213Y958342D02*
X1032961Y942594D01*
X992124Y958342D02*
X1017213D01*
X984504Y950722D02*
X992124Y958342D01*
X984504Y937768D02*
Y950722D01*
X1216831Y956735D02*
X1216971D01*
X1249420Y963285D02*
X1308465Y904240D01*
X1232269Y972102D02*
X1236420Y976253D01*
X1249511Y976376D02*
X1255795D01*
X1242920Y969785D02*
X1249511Y976376D01*
X1249172Y970026D02*
X1255795D01*
X1297611Y928210D01*
X1231965Y967740D02*
X1236420Y963285D01*
X1221797Y972102D02*
X1232269D01*
X1220063Y973836D02*
X1221797Y972102D01*
X1215369Y973836D02*
X1220063D01*
X1221232Y967740D02*
X1231965D01*
X1295883Y923290D02*
X1375664D01*
X1255801Y963371D02*
X1295883Y923290D01*
X1255785Y963388D02*
X1255801Y963371D01*
X1075182Y949706D02*
Y960120D01*
X944372Y883412D02*
X955802Y894842D01*
Y937260D01*
X944372Y922274D02*
Y938784D01*
X1212088Y939800D02*
X1212348D01*
X1212088D02*
X1212272Y939984D01*
X1308465Y904240D02*
X1377188D01*
X1359408Y819476D02*
X1359662Y819730D01*
X1377856Y928210D02*
X1377950Y928116D01*
X1297611Y928210D02*
X1377856D01*
D109*
X354584Y1153160D02*
X426000D01*
D110*
X1182410Y1142520D02*
X1183071D01*
X1118776Y1118710D02*
X1134810D01*
X1114298Y1123188D02*
X1118776Y1118710D01*
X1114298Y1123188D02*
Y1146556D01*
X1119762Y1152020D01*
X1137542Y1187580D02*
X1155130D01*
X1133348Y1183386D02*
X1137542Y1187580D01*
X1133348Y1167638D02*
Y1183386D01*
Y1167638D02*
X1139466Y1161520D01*
X1154810Y1142520D02*
X1182410D01*
X1119762Y1152020D02*
X1134810D01*
X1139466Y1161520D02*
X1154810D01*
D111*
X1249854Y927463D02*
Y950720D01*
X1272315Y862809D02*
X1303557D01*
X1234948Y900176D02*
X1272315Y862809D01*
X1234948Y900176D02*
Y951738D01*
X1321179Y874268D02*
X1359662Y835785D01*
X1283208Y874268D02*
X1321179D01*
X1240720Y916756D02*
X1283208Y874268D01*
X1240720Y916756D02*
Y952627D01*
X1334008Y819476D02*
Y832358D01*
X1303557Y862809D02*
X1334008Y832358D01*
X1243076Y957498D02*
X1249854Y950720D01*
X1243076Y957498D02*
Y963422D01*
X1259332Y1014396D02*
X1265248Y1020312D01*
X342775Y827532D02*
X346202Y824105D01*
Y812292D02*
Y824105D01*
X329184Y827532D02*
X342775D01*
X1229927Y956759D02*
X1234948Y951738D01*
X1359662Y819730D02*
Y835785D01*
X1223462Y910788D02*
Y937034D01*
X1249426Y982726D02*
X1259332Y992632D01*
Y1014396D01*
X1204214Y891540D02*
X1223462Y910788D01*
X1204214Y850646D02*
Y891540D01*
D115*
X1343152Y1132078D02*
D03*
Y1157478D02*
D03*
X1283208Y819476D02*
D03*
X1308608D02*
D03*
X1334008D02*
D03*
X1359408D02*
D03*
D116*
X1384808D02*
D03*
D117*
X571500Y803910D02*
D03*
D118*
X551500D02*
D03*
D119*
X298450Y1173480D02*
D03*
X1292860D02*
D03*
D120*
X631444Y1045350D02*
D03*
D121*
Y1025350D02*
D03*
D122*
X1341882Y913290D02*
D03*
X1177544Y900430D02*
D03*
X542262Y893826D02*
D03*
X1217168Y1057910D02*
D03*
X958758Y1006602D02*
D03*
X863978Y1008126D02*
D03*
X632206Y889762D02*
D03*
X584454Y893064D02*
D03*
X1230888Y1094490D02*
D03*
X1262556Y1057148D02*
D03*
X1358646Y871474D02*
D03*
X1344422Y968756D02*
D03*
X1334770Y1002792D02*
D03*
X1073404Y1061974D02*
D03*
X1050036Y1061730D02*
D03*
X751586Y824842D02*
D03*
D123*
X1236420Y982785D02*
D03*
X1230169Y982405D02*
D03*
X1160743Y914654D02*
D03*
X1160018Y922932D02*
D03*
X1181100Y954786D02*
D03*
X1182820Y960454D02*
D03*
X1201420Y971296D02*
D03*
X1197356Y985970D02*
D03*
X1201420Y981202D02*
D03*
X1196788Y976262D02*
D03*
X400050Y827278D02*
D03*
Y820928D02*
D03*
X1216971Y956735D02*
D03*
X1229855Y956720D02*
D03*
X1223355Y963220D02*
D03*
X1236420Y976285D02*
D03*
Y963285D02*
D03*
X1249420D02*
D03*
X1243076Y963422D02*
D03*
X1242966Y976220D02*
D03*
X1249172Y970026D02*
D03*
X1229975Y963340D02*
D03*
X1223566Y982509D02*
D03*
X1223462Y976122D02*
D03*
X1216962Y969744D02*
D03*
X1242822Y989076D02*
D03*
X1242920Y969785D02*
D03*
X1255818Y963388D02*
D03*
X1271778Y959970D02*
D03*
X1216914Y982726D02*
D03*
X1223462Y937034D02*
D03*
X1249426Y982726D02*
D03*
X1255795Y976376D02*
D03*
X1275842Y977646D02*
D03*
X1261364Y934720D02*
D03*
X1227074Y1004316D02*
D03*
X1212088Y939800D02*
D03*
X1228598Y941324D02*
D03*
X1375664Y923036D02*
D03*
X1378204Y928210D02*
D03*
D124*
X1268476Y1007872D02*
D03*
X1242822Y1007110D02*
D03*
X1377188Y904240D02*
D03*
D125*
X803148Y1082548D02*
D03*
Y1096772D02*
D03*
X682244Y1098804D02*
D03*
X556260Y1088644D02*
D03*
X824230Y1180846D02*
D03*
X1165098Y1102360D02*
D03*
X774446Y790364D02*
D03*
X1204214Y850646D02*
D03*
X790194Y874626D02*
D03*
X789940Y965304D02*
D03*
D126*
X346202Y812292D02*
D03*
X329184Y827532D02*
D03*
D127*
X1117354Y928432D02*
D03*
X984504Y937768D02*
D03*
X997758Y945596D02*
D03*
X1131316Y1012444D02*
D03*
X1132586Y1032764D02*
D03*
X1104646Y950468D02*
D03*
X1088136D02*
D03*
X1075182Y949706D02*
D03*
X944372Y883412D02*
D03*
Y922274D02*
D03*
D128*
X534410Y1208278D02*
D03*
X565410D02*
D03*
X592830D02*
D03*
X623830D02*
D03*
X651250D02*
D03*
X682250D02*
D03*
X709670D02*
D03*
X740670D02*
D03*
X766820D02*
D03*
X797820D02*
D03*
X855478Y1208662D02*
D03*
X824478D02*
D03*
X475990Y1208278D02*
D03*
X506990D02*
D03*
X417570D02*
D03*
X448570D02*
D03*
X390150D02*
D03*
X359150D02*
D03*
D129*
X482666Y1069788D02*
D03*
Y1024188D02*
D03*
D130*
X414666Y1046988D02*
D03*
D131*
X855478Y1180084D02*
D03*
Y1149084D02*
D03*
D132*
X632714Y1063498D02*
D03*
Y1076198D02*
D03*
Y1088898D02*
D03*
Y1101598D02*
D03*
X578474D02*
D03*
Y1088898D02*
D03*
Y1076198D02*
D03*
Y1063498D02*
D03*
D133*
X354834Y1046988D02*
D03*
X290834D02*
D03*
D134*
X354584Y1112160D02*
D03*
Y1153160D02*
D03*
D135*
X394542Y1126452D02*
D03*
Y1153452D02*
D03*
X426292Y1126452D02*
D03*
Y1153452D02*
D03*
D136*
X355088Y1039876D02*
X355480Y1039484D01*
M02*
