G04*
G04 #@! TF.GenerationSoftware,Altium Limited,Altium Designer,19.0.10 (269)*
G04*
G04 Layer_Physical_Order=1*
G04 Layer_Color=255*
%FSLAX44Y44*%
%MOMM*%
G71*
G01*
G75*
G36*
X1506460Y727978D02*
X258078D01*
Y778175D01*
X280678D01*
Y787175D01*
X304678D01*
Y789453D01*
X306730D01*
Y787638D01*
X325730D01*
Y805638D01*
X306730D01*
Y803735D01*
X304678D01*
Y805925D01*
X304678D01*
Y806905D01*
X295778D01*
X286878D01*
Y805925D01*
X280678D01*
Y820675D01*
X280678D01*
Y821675D01*
X280678D01*
Y836425D01*
X286878D01*
Y829925D01*
Y823425D01*
Y816925D01*
Y815945D01*
X295778D01*
X304678D01*
Y817582D01*
X332225D01*
X333600Y817856D01*
X334766Y818634D01*
X343880Y827749D01*
X349008D01*
Y823366D01*
X357508D01*
Y820826D01*
X349008D01*
Y817405D01*
X348590Y817067D01*
X347738Y816615D01*
X346202Y816921D01*
X344431Y816569D01*
X342929Y815565D01*
X341925Y814063D01*
X341573Y812292D01*
X341925Y810521D01*
X342929Y809019D01*
X344431Y808015D01*
X346202Y807663D01*
X347738Y807969D01*
X348590Y807517D01*
X349008Y807179D01*
Y807096D01*
X366008D01*
Y820182D01*
X367278Y820708D01*
X368797Y819189D01*
X370131Y818298D01*
X371704Y817985D01*
X373008D01*
Y807096D01*
X390008D01*
Y809276D01*
X391216Y809516D01*
X392298Y810238D01*
X396311Y814252D01*
X397034Y815334D01*
X397288Y816610D01*
Y816654D01*
X398464Y817149D01*
X398558Y817146D01*
X400050Y816850D01*
X401611Y817160D01*
X402934Y818044D01*
X403818Y819367D01*
X404128Y820928D01*
X403818Y822489D01*
X402934Y823812D01*
Y824394D01*
X403818Y825717D01*
X404128Y827278D01*
X403818Y828839D01*
X402934Y830162D01*
X401611Y831046D01*
X400050Y831356D01*
X398489Y831046D01*
X397840Y830612D01*
X396097D01*
X392756Y833954D01*
X391674Y834676D01*
X390398Y834930D01*
X390008D01*
Y837096D01*
X385628D01*
X385242Y838366D01*
X385797Y838737D01*
X400697Y853637D01*
X411169D01*
Y796798D01*
X411169Y796798D01*
X411521Y795027D01*
X412525Y793525D01*
X418367Y787683D01*
X418367Y787683D01*
X419869Y786679D01*
X421640Y786327D01*
X422436Y785448D01*
Y781456D01*
X439436D01*
Y800456D01*
X422436D01*
Y798366D01*
X421263Y797880D01*
X420427Y798715D01*
Y806661D01*
X421182Y807618D01*
X421697Y807618D01*
X439182D01*
Y826618D01*
X434293D01*
Y829677D01*
X439771Y835155D01*
X448814D01*
Y834016D01*
X463814D01*
Y844516D01*
X448814D01*
Y843377D01*
X438068D01*
X436495Y843064D01*
X435161Y842173D01*
X427275Y834287D01*
X426384Y832953D01*
X426071Y831380D01*
Y826618D01*
X421697D01*
X421182Y826618D01*
X420427Y827575D01*
Y853637D01*
X424340D01*
Y848766D01*
X444340D01*
Y853637D01*
X448814D01*
Y853016D01*
X463814D01*
Y863516D01*
X448814D01*
Y862895D01*
X445238D01*
X444340Y863793D01*
X444340Y867766D01*
X444340Y869036D01*
Y875996D01*
X424340D01*
Y869036D01*
X424340Y867766D01*
X424340Y866496D01*
Y862895D01*
X398780D01*
X398780Y862895D01*
X397009Y862543D01*
X395507Y861539D01*
X395507Y861539D01*
X380830Y846863D01*
X379570Y847202D01*
Y864616D01*
X379570Y865886D01*
X379570Y867156D01*
Y874116D01*
X359570D01*
Y867156D01*
X359570Y865886D01*
X359570Y864616D01*
Y846886D01*
X358617Y846121D01*
X339598D01*
X338025Y845808D01*
X336691Y844917D01*
X330060Y838286D01*
X326992D01*
Y853996D01*
X326992Y855266D01*
X326992Y856536D01*
Y863496D01*
X316992D01*
X306992D01*
Y856536D01*
X306992Y855266D01*
X306992Y853822D01*
X306094Y852924D01*
X304678D01*
Y855175D01*
X280678D01*
Y864175D01*
X258078D01*
Y892421D01*
X258296Y892946D01*
X261020Y897665D01*
X264337Y901988D01*
X268190Y905841D01*
X272513Y909158D01*
X277232Y911882D01*
X282266Y913967D01*
X287529Y915378D01*
X292931Y916089D01*
X295656Y916178D01*
X550879Y916178D01*
Y900343D01*
X550928Y900094D01*
X550557Y899169D01*
X550049Y898750D01*
X548894Y898520D01*
X547961Y897897D01*
X547254Y898818D01*
X545792Y899940D01*
X544089Y900646D01*
X542262Y900886D01*
X540434Y900646D01*
X538731Y899940D01*
X537269Y898818D01*
X536147Y897356D01*
X535442Y895653D01*
X535201Y893826D01*
X535442Y891999D01*
X536147Y890296D01*
X537269Y888834D01*
X538731Y887711D01*
X540434Y887006D01*
X541441Y886874D01*
X542319Y886089D01*
X542368Y885522D01*
Y866046D01*
X544727D01*
Y858622D01*
X542470D01*
Y839622D01*
X560470D01*
Y858622D01*
X559009D01*
Y866046D01*
X561368D01*
Y866046D01*
X561368D01*
Y866046D01*
X580368D01*
Y884200D01*
X580898Y884306D01*
X582189Y885169D01*
X583191Y886170D01*
X584454Y886004D01*
X586281Y886244D01*
X587984Y886949D01*
X589278Y887942D01*
X590117Y886985D01*
X584737Y881605D01*
X583733Y880103D01*
X583381Y878332D01*
X583381Y878332D01*
Y848614D01*
Y831735D01*
X581775Y830129D01*
X576099D01*
Y839622D01*
X580470D01*
Y858622D01*
X562470D01*
Y839622D01*
X566841D01*
Y830129D01*
X544643D01*
X534219Y840553D01*
Y862330D01*
X534219Y862330D01*
X533867Y864101D01*
X532863Y865603D01*
X532863Y865603D01*
X520671Y877795D01*
X519169Y878799D01*
X517398Y879151D01*
X517398Y879151D01*
X497332D01*
X495561Y878799D01*
X494059Y877795D01*
X494059Y877795D01*
X487709Y871445D01*
X486705Y869943D01*
X486353Y868172D01*
X486353Y868172D01*
Y863516D01*
X472814D01*
Y853016D01*
Y850036D01*
X480314D01*
X487814D01*
Y853637D01*
X490728D01*
X490855Y853662D01*
X490982Y853637D01*
X494054D01*
X494952Y852739D01*
X494952Y849321D01*
X494952Y848051D01*
Y830321D01*
X499676D01*
Y816102D01*
X500077Y814083D01*
X501221Y812371D01*
X513413Y800179D01*
X515125Y799035D01*
X517144Y798634D01*
X544204D01*
X545081Y797491D01*
X546961Y796049D01*
X549151Y795142D01*
X551500Y794832D01*
X553849Y795142D01*
X556039Y796049D01*
X557919Y797491D01*
X559361Y799371D01*
X560268Y801561D01*
X560578Y803910D01*
X560268Y806260D01*
X559361Y808449D01*
X557919Y810329D01*
X556039Y811771D01*
X553849Y812678D01*
X551500Y812988D01*
X549151Y812678D01*
X546961Y811771D01*
X545081Y810329D01*
X544204Y809186D01*
X519330D01*
X510228Y818288D01*
Y830321D01*
X514952D01*
Y848051D01*
X514952Y849321D01*
X514952Y850591D01*
Y868321D01*
X500523D01*
X499853Y869591D01*
X500060Y869893D01*
X515481D01*
X524961Y860413D01*
Y838636D01*
X524961Y838636D01*
X525313Y836864D01*
X526317Y835363D01*
X539453Y822227D01*
X539453Y822227D01*
X540954Y821223D01*
X542726Y820871D01*
X542726Y820871D01*
X566841D01*
Y812910D01*
X562500D01*
Y794910D01*
X580500D01*
Y812910D01*
X576099D01*
Y820871D01*
X583692D01*
X583692Y820871D01*
X585463Y821223D01*
X586965Y822227D01*
X591283Y826545D01*
X591283Y826545D01*
X592287Y828047D01*
X592639Y829818D01*
Y843985D01*
X596544D01*
Y839426D01*
X615544D01*
Y857426D01*
X596544D01*
Y853243D01*
X592639D01*
Y876415D01*
X612025Y895801D01*
X626680D01*
X627042Y894531D01*
X626091Y893292D01*
X625386Y891589D01*
X625146Y889762D01*
X625386Y887935D01*
X626091Y886232D01*
X627214Y884770D01*
X627577Y884491D01*
Y877520D01*
X622706D01*
Y875567D01*
X615544D01*
Y877426D01*
X596544D01*
Y859426D01*
X615544D01*
Y861285D01*
X622706D01*
Y859520D01*
X641706D01*
Y861285D01*
X647978D01*
X648876Y860387D01*
X648876Y858856D01*
X648876Y857586D01*
Y850626D01*
X658876D01*
X668876D01*
Y857586D01*
X668876Y858856D01*
X668876Y860126D01*
Y877856D01*
X648876D01*
Y875567D01*
X641706D01*
Y877520D01*
X636835D01*
Y884491D01*
X637198Y884770D01*
X638321Y886232D01*
X639026Y887935D01*
X639266Y889762D01*
X639026Y891589D01*
X638321Y893292D01*
X637370Y894531D01*
X637732Y895801D01*
X686192D01*
X712244Y869749D01*
Y860643D01*
X707495D01*
X707193Y860945D01*
Y865378D01*
X707193Y865378D01*
X706841Y867149D01*
X705837Y868651D01*
X702859Y871629D01*
X701357Y872633D01*
X699586Y872985D01*
X699586Y872985D01*
X696308D01*
Y877856D01*
X676308D01*
Y860126D01*
X676308Y858856D01*
X676308Y857586D01*
Y850626D01*
X686308D01*
X696308D01*
Y857586D01*
X696308Y858856D01*
X696308Y860126D01*
Y863727D01*
X697669D01*
X697935Y863461D01*
Y859028D01*
X697935Y859028D01*
X698287Y857257D01*
X699291Y855755D01*
X702305Y852741D01*
X703807Y851737D01*
X705578Y851385D01*
X705578Y851385D01*
X709246D01*
Y850554D01*
X725746D01*
Y860554D01*
X721828D01*
Y871734D01*
X721828Y871734D01*
X721463Y873568D01*
X720424Y875123D01*
X720424Y875123D01*
X691729Y903819D01*
X690174Y904857D01*
X688340Y905222D01*
X687520Y905059D01*
X610108D01*
X610108Y905059D01*
X608337Y904707D01*
X606835Y903703D01*
X606835Y903703D01*
X590533Y887401D01*
X589576Y888240D01*
X590569Y889534D01*
X591274Y891237D01*
X591514Y893064D01*
X591274Y894891D01*
X590569Y896594D01*
X589446Y898056D01*
X587984Y899178D01*
X586281Y899884D01*
X584454Y900124D01*
X582627Y899884D01*
X580924Y899178D01*
X579462Y898056D01*
X578340Y896594D01*
X577634Y894891D01*
X577394Y893064D01*
X577412Y892920D01*
X576575Y891965D01*
X574868D01*
Y898303D01*
X575798D01*
X576578Y898458D01*
X577240Y898900D01*
X577682Y899562D01*
X577837Y900342D01*
Y916178D01*
X786661Y916178D01*
X787147Y915005D01*
X786463Y914321D01*
X785319Y912609D01*
X784918Y910590D01*
Y901980D01*
X780076D01*
Y909839D01*
X729076D01*
Y879839D01*
X737704D01*
Y860554D01*
X734246D01*
Y850554D01*
Y847324D01*
X742496D01*
X750746D01*
Y850554D01*
Y860554D01*
X747288D01*
Y879839D01*
X758415D01*
Y874839D01*
X755556D01*
Y857109D01*
X755556Y855839D01*
X755556Y854569D01*
Y847609D01*
X765556D01*
X775556D01*
Y854569D01*
X775556Y855839D01*
X775556Y857109D01*
Y874839D01*
X772697D01*
Y879839D01*
X780076D01*
Y887698D01*
X783053D01*
Y879036D01*
X782900Y878837D01*
X782059Y876806D01*
X781772Y874626D01*
X782059Y872446D01*
X782900Y870415D01*
X784239Y868671D01*
X785983Y867332D01*
X788014Y866491D01*
X790194Y866204D01*
X792374Y866491D01*
X794405Y867332D01*
X796149Y868671D01*
X797488Y870415D01*
X798329Y872446D01*
X798616Y874626D01*
X798329Y876806D01*
X797488Y878837D01*
X797335Y879036D01*
Y887698D01*
X801276D01*
Y877839D01*
X821276D01*
Y911839D01*
X801276D01*
Y901980D01*
X795470D01*
Y908404D01*
X803244Y916178D01*
X841502D01*
X841502Y916178D01*
X841502Y916178D01*
X844004Y916178D01*
X845227Y916421D01*
X855693Y905955D01*
X857405Y904811D01*
X859424Y904410D01*
X859424Y904410D01*
X884278D01*
Y903686D01*
X897278D01*
Y903970D01*
X906146D01*
X906258Y902746D01*
X906258Y901476D01*
Y891016D01*
X906258Y889746D01*
X906258Y888476D01*
Y878016D01*
X906258Y876746D01*
X906258Y875476D01*
Y863746D01*
X906258Y863746D01*
X905977Y862592D01*
X897278D01*
Y863316D01*
X884278D01*
Y851316D01*
X897278D01*
Y852040D01*
X906258D01*
Y850746D01*
X925258D01*
Y851970D01*
X946654D01*
X948673Y852371D01*
X950385Y853515D01*
X1064943Y968073D01*
X1064943Y968073D01*
X1066087Y969785D01*
X1066488Y971804D01*
X1066488Y971804D01*
Y989019D01*
X1089576D01*
Y974972D01*
X1104576D01*
Y989972D01*
X1101642D01*
X1101353Y991428D01*
X1100349Y992929D01*
X1097259Y996020D01*
X1097785Y997290D01*
X1101670D01*
Y1007790D01*
X1087270D01*
X1086670Y1007790D01*
X1086000Y1008783D01*
Y1013638D01*
X1080770D01*
Y1007638D01*
Y1001638D01*
X1085400D01*
X1086000Y1001638D01*
X1086670Y1000646D01*
Y998277D01*
X1066488D01*
Y1001522D01*
X1066087Y1003541D01*
X1065841Y1003909D01*
Y1094203D01*
X1091546D01*
Y1049154D01*
X1089322D01*
Y1034154D01*
X1090586D01*
X1091072Y1032981D01*
X1090827Y1032735D01*
X1089824Y1031233D01*
X1089471Y1029462D01*
X1089471Y1029462D01*
Y1026790D01*
X1086670D01*
X1086000Y1027638D01*
Y1027638D01*
X1073000D01*
Y1015638D01*
X1086000D01*
Y1015638D01*
X1086670Y1016290D01*
X1101670D01*
Y1026790D01*
X1099771D01*
X1099245Y1028060D01*
X1100349Y1029165D01*
X1100349Y1029165D01*
X1101353Y1030666D01*
X1101705Y1032438D01*
Y1034154D01*
X1104322D01*
Y1049154D01*
X1102098D01*
Y1094203D01*
X1111594D01*
X1129190Y1076607D01*
X1129918Y1076049D01*
X1130648Y1075484D01*
X1130659Y1075480D01*
X1130669Y1075472D01*
X1131520Y1075119D01*
X1132368Y1074765D01*
X1132380Y1074763D01*
X1132392Y1074759D01*
X1133305Y1074638D01*
X1134215Y1074515D01*
X1136593Y1074507D01*
Y1038650D01*
X1135473Y1038051D01*
X1134927Y1038416D01*
X1132586Y1038882D01*
X1130245Y1038416D01*
X1128260Y1037090D01*
X1126934Y1035105D01*
X1126469Y1032764D01*
X1126934Y1030423D01*
X1127957Y1028892D01*
Y1027315D01*
X1126940Y1026298D01*
X1125670Y1026383D01*
Y1026790D01*
X1122991D01*
Y1029716D01*
X1122639Y1031487D01*
X1121705Y1032884D01*
X1121855Y1033519D01*
X1122118Y1034154D01*
X1123322D01*
Y1049154D01*
X1108322D01*
Y1034154D01*
X1111193D01*
Y1032256D01*
X1111193Y1032256D01*
X1111545Y1030485D01*
X1112549Y1028983D01*
X1113472Y1028060D01*
X1113102Y1026790D01*
X1110670D01*
Y1016290D01*
Y1013310D01*
X1118170D01*
Y1010770D01*
X1110670D01*
Y1006790D01*
Y997290D01*
X1114169D01*
Y995819D01*
X1112549Y994199D01*
X1111545Y992698D01*
X1111193Y990926D01*
X1110419Y989972D01*
X1108576D01*
Y974972D01*
X1123576D01*
Y989972D01*
X1123159D01*
X1122481Y991242D01*
X1123074Y992131D01*
X1123427Y993902D01*
Y997290D01*
X1125670D01*
Y997931D01*
X1128036D01*
X1128036Y997931D01*
X1129807Y998283D01*
X1131309Y999287D01*
X1134589Y1002567D01*
X1134589Y1002567D01*
X1135593Y1004069D01*
X1135903Y1005629D01*
X1136479Y1005887D01*
X1137215Y1005951D01*
X1137949Y1004853D01*
X1145182Y997620D01*
X1146684Y996616D01*
X1148455Y996264D01*
X1148455Y996264D01*
X1159123D01*
X1160895Y996616D01*
X1161336Y996911D01*
X1168390D01*
Y986216D01*
X1181390D01*
Y986378D01*
X1193083D01*
X1193511Y986235D01*
X1193783Y985489D01*
X1192905Y984378D01*
X1188466D01*
Y978378D01*
Y972378D01*
X1193696D01*
Y973309D01*
X1193845Y973436D01*
X1194966Y973871D01*
X1195618Y973436D01*
X1196788Y973203D01*
X1197677Y973380D01*
X1198407Y972653D01*
X1198573Y972362D01*
X1198361Y971296D01*
X1198536Y970416D01*
X1197837Y969146D01*
X1192530D01*
X1192530Y969146D01*
X1191506Y968943D01*
X1190638Y968363D01*
X1190637Y968363D01*
X1185649Y963374D01*
X1184381Y964222D01*
X1182820Y964532D01*
X1181260Y964222D01*
X1179937Y963338D01*
X1179053Y962015D01*
X1178742Y960454D01*
X1179053Y958893D01*
X1179360Y958434D01*
X1178216Y957670D01*
X1177332Y956347D01*
X1177022Y954786D01*
X1177332Y953225D01*
X1178216Y951902D01*
X1179539Y951018D01*
X1181100Y950708D01*
X1181436Y950775D01*
X1182062Y949604D01*
X1159332Y926874D01*
X1158457Y926700D01*
X1157134Y925816D01*
X1156250Y924493D01*
X1155940Y922932D01*
X1156250Y921371D01*
X1157134Y920048D01*
X1158232Y919314D01*
X1158410Y918391D01*
X1158379Y917885D01*
X1157859Y917538D01*
X1156975Y916215D01*
X1156665Y914654D01*
X1156975Y913093D01*
X1157859Y911770D01*
X1159183Y910886D01*
X1160743Y910576D01*
X1162304Y910886D01*
X1163627Y911770D01*
X1164511Y913093D01*
X1164648Y913780D01*
X1202056Y951188D01*
X1202084Y951230D01*
X1212432D01*
X1212675Y951068D01*
X1213670Y950870D01*
X1214665Y951068D01*
X1215508Y951632D01*
X1215613Y951788D01*
X1215870Y951851D01*
X1217082Y951701D01*
X1217611Y950911D01*
X1218401Y950382D01*
X1218551Y949169D01*
X1218488Y948913D01*
X1218332Y948808D01*
X1217768Y947965D01*
X1217570Y946970D01*
X1217768Y945975D01*
X1217856Y945844D01*
Y941475D01*
X1213161Y936780D01*
X1210564D01*
X1209678Y936604D01*
X1208927Y936103D01*
X1207003Y934178D01*
X1206952Y934188D01*
X1205676Y933934D01*
X1204594Y933212D01*
X1203872Y932130D01*
X1203618Y930854D01*
Y929940D01*
X1201316D01*
Y930052D01*
X1198150D01*
Y934288D01*
X1198140Y934339D01*
X1208457Y944656D01*
X1212544D01*
X1212675Y944568D01*
X1213670Y944370D01*
X1214665Y944568D01*
X1215508Y945132D01*
X1216072Y945975D01*
X1216270Y946970D01*
X1216072Y947965D01*
X1215508Y948808D01*
X1214665Y949372D01*
X1213670Y949570D01*
X1212675Y949372D01*
X1212544Y949285D01*
X1207498D01*
X1206612Y949108D01*
X1205861Y948607D01*
X1194867Y937612D01*
X1194816Y937622D01*
X1193540Y937368D01*
X1192458Y936646D01*
X1191736Y935564D01*
X1191482Y934288D01*
Y930052D01*
X1188316D01*
Y928681D01*
X1185926D01*
X1184155Y928329D01*
X1182653Y927325D01*
X1182653Y927325D01*
X1174271Y918943D01*
X1173267Y917441D01*
X1172915Y915670D01*
X1172915Y915670D01*
Y905701D01*
X1172552Y905422D01*
X1171430Y903960D01*
X1170724Y902257D01*
X1170484Y900430D01*
X1170724Y898603D01*
X1171430Y896900D01*
X1172552Y895438D01*
X1174014Y894315D01*
X1175717Y893610D01*
X1177544Y893370D01*
X1179371Y893610D01*
X1181074Y894315D01*
X1182536Y895438D01*
X1183659Y896900D01*
X1184364Y898603D01*
X1184604Y900430D01*
X1184364Y902257D01*
X1183659Y903960D01*
X1182536Y905422D01*
X1182173Y905701D01*
Y913753D01*
X1187046Y918626D01*
X1188316Y918100D01*
Y918052D01*
X1200508D01*
Y917940D01*
X1224854D01*
Y915940D01*
X1220470D01*
Y909940D01*
Y903940D01*
X1225700D01*
X1226441Y902977D01*
Y899256D01*
X1239441D01*
Y910488D01*
X1241354D01*
Y929488D01*
X1237767D01*
X1237241Y930758D01*
X1241307Y934823D01*
X1241808Y935574D01*
X1241984Y936460D01*
Y945844D01*
X1242072Y945975D01*
X1242270Y946970D01*
X1242072Y947965D01*
X1241508Y948808D01*
X1240665Y949372D01*
X1239670Y949570D01*
X1238675Y949372D01*
X1237832Y948808D01*
X1237268Y947965D01*
X1237070Y946970D01*
X1237268Y945975D01*
X1237355Y945844D01*
Y937419D01*
X1235723Y935786D01*
X1234807Y936639D01*
X1235308Y937390D01*
X1235484Y938276D01*
Y945844D01*
X1235572Y945975D01*
X1235770Y946970D01*
X1235572Y947965D01*
X1235008Y948808D01*
X1234852Y948913D01*
X1234789Y949169D01*
X1234939Y950382D01*
X1235729Y950911D01*
X1236258Y951701D01*
X1237470Y951851D01*
X1237727Y951788D01*
X1237832Y951632D01*
X1238675Y951068D01*
X1239670Y950870D01*
X1240665Y951068D01*
X1241508Y951632D01*
X1241613Y951788D01*
X1241870Y951851D01*
X1243082Y951701D01*
X1243611Y950911D01*
X1244401Y950382D01*
X1244551Y949169D01*
X1244488Y948913D01*
X1244332Y948808D01*
X1243768Y947965D01*
X1243570Y946970D01*
X1243768Y945975D01*
X1243856Y945844D01*
Y941786D01*
X1244032Y940900D01*
X1244533Y940149D01*
X1253280Y931403D01*
X1253270Y931352D01*
Y929488D01*
X1248354D01*
Y910488D01*
X1250104D01*
Y899144D01*
X1263104D01*
Y910488D01*
X1264516D01*
Y903432D01*
X1277516D01*
Y905303D01*
X1281949D01*
X1283633Y903619D01*
X1283633Y903619D01*
X1285135Y902615D01*
X1286906Y902263D01*
X1286906Y902263D01*
X1308712D01*
Y900892D01*
X1321712D01*
Y902263D01*
X1328677D01*
X1346625Y884315D01*
X1346625Y884315D01*
X1348127Y883311D01*
X1349898Y882959D01*
X1349898Y882959D01*
X1393120D01*
Y881202D01*
X1406120D01*
Y893202D01*
X1393120D01*
Y892217D01*
X1351815D01*
X1333867Y910165D01*
X1332365Y911169D01*
X1330594Y911521D01*
X1330594Y911521D01*
X1321712D01*
Y912892D01*
X1308712D01*
Y911521D01*
X1288823D01*
X1287139Y913205D01*
X1287120Y913218D01*
X1287505Y914488D01*
X1291414D01*
Y926530D01*
Y937966D01*
X1292459Y938578D01*
X1293204Y938489D01*
X1293414Y938410D01*
Y926530D01*
Y922258D01*
X1299414D01*
Y920988D01*
D01*
Y922258D01*
X1305414D01*
Y926530D01*
Y938546D01*
X1305784Y939566D01*
X1306634Y939650D01*
X1318814D01*
Y939895D01*
X1331110D01*
X1331526Y939395D01*
Y939395D01*
X1343256D01*
X1344526Y939395D01*
X1345796Y939395D01*
X1349964D01*
Y934616D01*
X1355964D01*
X1361964D01*
Y939107D01*
X1362964Y939669D01*
X1363964Y939107D01*
Y926846D01*
X1371988D01*
X1372110Y926703D01*
X1372550Y925576D01*
X1371896Y924597D01*
X1371586Y923036D01*
X1371896Y921475D01*
X1371941Y921408D01*
X1371262Y920138D01*
X1363710D01*
Y907138D01*
X1372365D01*
X1372855Y906222D01*
X1372924Y905868D01*
X1372600Y904240D01*
X1372949Y902484D01*
X1373944Y900996D01*
X1375432Y900001D01*
X1377188Y899652D01*
X1378944Y900001D01*
X1380432Y900996D01*
X1381427Y902484D01*
X1381776Y904240D01*
X1381427Y905996D01*
X1380432Y907484D01*
X1380004Y907770D01*
Y914616D01*
X1380598Y915210D01*
X1386620D01*
Y914480D01*
X1389620D01*
Y913210D01*
X1390890D01*
Y909010D01*
X1393350D01*
Y913210D01*
X1395890D01*
Y909010D01*
X1396804D01*
Y907202D01*
X1393120D01*
Y895202D01*
X1406120D01*
Y907202D01*
X1402436D01*
Y909010D01*
X1402620D01*
Y915210D01*
X1403350D01*
Y918210D01*
X1404620D01*
Y919480D01*
X1408820D01*
Y920394D01*
X1412610D01*
Y916290D01*
X1421047D01*
X1422110Y915790D01*
X1422110Y915020D01*
Y909810D01*
X1433840D01*
Y915790D01*
X1428173D01*
X1427110Y916290D01*
X1427110Y917060D01*
Y929520D01*
X1427110Y930290D01*
X1428173Y930790D01*
X1433840D01*
Y936770D01*
X1422110D01*
X1422110Y930790D01*
X1421047Y930290D01*
X1412610D01*
Y926026D01*
X1408820D01*
Y926940D01*
X1404620D01*
Y928210D01*
X1403350D01*
Y931210D01*
X1402620D01*
Y936004D01*
X1403563Y936948D01*
X1404174Y937861D01*
X1404388Y938939D01*
Y939396D01*
X1407572D01*
Y951588D01*
X1408072D01*
Y963318D01*
X1408072Y964588D01*
X1408072Y965858D01*
Y977588D01*
X1408072D01*
X1408199Y978334D01*
X1408199Y978334D01*
X1408199Y978805D01*
Y990334D01*
X1395199D01*
Y989384D01*
X1389934D01*
Y990496D01*
X1378204D01*
X1376934Y990496D01*
X1375664Y990496D01*
X1363934D01*
Y989018D01*
X1362098D01*
Y989996D01*
X1349098D01*
Y989130D01*
X1347262D01*
Y990354D01*
X1335262D01*
Y977354D01*
X1347262D01*
Y978578D01*
X1349098D01*
Y977996D01*
X1362098D01*
Y978466D01*
X1363934D01*
Y977496D01*
X1375664D01*
X1376934Y977496D01*
X1378204Y977496D01*
X1389934D01*
Y978832D01*
X1395008D01*
X1395072Y977588D01*
X1395072Y977588D01*
X1395072Y977588D01*
Y965858D01*
X1395072Y964588D01*
X1395072Y963318D01*
Y959187D01*
X1395026Y958954D01*
X1395072Y958721D01*
Y952344D01*
X1383450D01*
Y952344D01*
X1383450D01*
Y952344D01*
X1370450D01*
Y952344D01*
X1369718Y951896D01*
X1357526D01*
Y952395D01*
X1345796D01*
X1344526Y952395D01*
X1343256Y952395D01*
X1331526D01*
Y952395D01*
X1331110Y951895D01*
X1319781D01*
X1319722Y951942D01*
X1319229Y952625D01*
X1319878Y953895D01*
X1323340D01*
Y959895D01*
Y965895D01*
X1318110D01*
Y965772D01*
X1317290Y964842D01*
X1316840Y964842D01*
X1312560D01*
Y958342D01*
X1310020D01*
Y964842D01*
X1306107D01*
X1305199Y965409D01*
X1305098Y966032D01*
Y977381D01*
X1306172Y977854D01*
X1319172D01*
Y978578D01*
X1321262D01*
Y977354D01*
X1333262D01*
Y990354D01*
X1321262D01*
Y989130D01*
X1319172D01*
Y989854D01*
X1306172D01*
X1306113Y989880D01*
X1305098Y990496D01*
X1305261Y991698D01*
X1306172Y991854D01*
X1306256Y991854D01*
X1311402D01*
Y997854D01*
Y1003854D01*
X1306256D01*
X1306172Y1003854D01*
X1304986Y1004057D01*
Y1006856D01*
X1298986D01*
Y1009396D01*
X1304986D01*
Y1013668D01*
X1305456D01*
Y1025668D01*
X1268214D01*
X1267641Y1026668D01*
X1268214Y1027668D01*
X1268776Y1027668D01*
X1273302D01*
Y1033668D01*
Y1039668D01*
X1268776D01*
X1268072Y1039668D01*
X1267506Y1040704D01*
Y1051202D01*
X1255506D01*
Y1038202D01*
Y1027101D01*
X1254544Y1026358D01*
X1253506Y1026918D01*
Y1030986D01*
X1247506D01*
Y1033526D01*
X1253506D01*
Y1038202D01*
Y1043432D01*
X1247506D01*
X1241506D01*
Y1039368D01*
X1237202D01*
Y1033368D01*
Y1027368D01*
X1241506D01*
Y1025756D01*
X1240397Y1025368D01*
X1204552D01*
Y1016772D01*
X1203379Y1016286D01*
X1202817Y1016848D01*
X1201903Y1017458D01*
X1200826Y1017673D01*
X1199222D01*
Y1022190D01*
X1191222D01*
Y1024730D01*
X1199222D01*
Y1029460D01*
Y1043460D01*
X1195851D01*
Y1044722D01*
X1195851Y1044722D01*
X1195499Y1046493D01*
X1194731Y1047643D01*
X1194242Y1048710D01*
Y1061710D01*
X1182242D01*
Y1048710D01*
X1182875D01*
X1183613Y1047702D01*
X1183965Y1045930D01*
X1184698Y1044835D01*
X1184245Y1043668D01*
X1183222Y1043460D01*
X1182222D01*
Y1043460D01*
X1175492D01*
Y1036460D01*
X1174222D01*
Y1035190D01*
X1166222D01*
Y1028089D01*
X1164112D01*
X1162341Y1027737D01*
X1162088Y1027568D01*
X1160818Y1028247D01*
Y1028556D01*
X1147818D01*
Y1016556D01*
X1160818D01*
Y1017927D01*
X1163208D01*
X1163208Y1017927D01*
X1164952Y1018274D01*
X1164980Y1018279D01*
X1166222Y1017582D01*
Y1016460D01*
X1171406D01*
Y1014496D01*
X1171620Y1013418D01*
X1172231Y1012505D01*
X1176594Y1008141D01*
X1177508Y1007530D01*
X1178586Y1007316D01*
X1199668D01*
X1199898Y1007362D01*
X1207445Y999815D01*
X1208027Y999425D01*
X1208715Y999288D01*
X1215470D01*
X1218373Y996385D01*
Y994603D01*
X1217791Y994164D01*
X1216311Y994404D01*
X1216028Y994827D01*
X1214946Y995550D01*
X1213670Y995804D01*
X1202350D01*
Y997287D01*
X1202124Y998420D01*
X1201482Y999381D01*
X1199712Y1001152D01*
X1199460Y1002417D01*
X1198597Y1003708D01*
X1197305Y1004571D01*
X1195782Y1004874D01*
X1161336D01*
X1160895Y1005169D01*
X1159123Y1005522D01*
X1150373D01*
X1145851Y1010043D01*
Y1073571D01*
X1146751Y1074468D01*
X1208502Y1074209D01*
X1218664Y1074166D01*
X1230858Y1074115D01*
X1242792Y1074065D01*
X1242819Y1074068D01*
X1242847Y1074065D01*
X1408276Y1074635D01*
X1467583Y1015328D01*
Y857414D01*
X1436786Y826617D01*
X1394428D01*
Y829096D01*
X1390732D01*
Y838828D01*
X1392258D01*
Y853828D01*
X1377258D01*
Y838828D01*
X1378884D01*
Y829096D01*
X1375188D01*
Y809856D01*
X1394428D01*
Y812335D01*
X1439744D01*
X1439744Y812335D01*
X1441592Y812578D01*
X1443315Y813292D01*
X1444794Y814426D01*
X1479773Y849406D01*
X1479774Y849407D01*
X1480908Y850885D01*
X1481622Y852608D01*
X1481865Y854456D01*
X1481865Y854456D01*
Y1018286D01*
X1481865Y1018286D01*
X1481622Y1020134D01*
X1480908Y1021857D01*
X1479774Y1023335D01*
X1479773Y1023336D01*
X1416273Y1086835D01*
X1416264Y1086843D01*
X1416256Y1086853D01*
X1415522Y1087412D01*
X1414794Y1087970D01*
X1414783Y1087975D01*
X1414773Y1087983D01*
X1413921Y1088332D01*
X1413072Y1088684D01*
X1413060Y1088685D01*
X1413049Y1088690D01*
X1412141Y1088806D01*
X1411224Y1088927D01*
X1411212Y1088925D01*
X1411199Y1088927D01*
X1242827Y1088347D01*
X1236165Y1088375D01*
Y1089868D01*
X1237003Y1090960D01*
X1237708Y1092663D01*
X1237949Y1094490D01*
X1237708Y1096318D01*
X1237003Y1098020D01*
X1235881Y1099483D01*
X1234418Y1100605D01*
X1232716Y1101310D01*
X1230888Y1101551D01*
X1229061Y1101310D01*
X1227358Y1100605D01*
X1225896Y1099483D01*
X1224774Y1098020D01*
X1224068Y1096318D01*
X1223828Y1094490D01*
X1224068Y1092663D01*
X1224774Y1090960D01*
X1225612Y1089868D01*
Y1089319D01*
X1224712Y1088423D01*
X1218724Y1088448D01*
X1208562Y1088491D01*
X1141252Y1088773D01*
X1141249Y1088773D01*
X1141247Y1088773D01*
X1137208Y1088787D01*
X1119602Y1106394D01*
X1118122Y1107528D01*
X1116400Y1108242D01*
X1114552Y1108485D01*
X1114552Y1108485D01*
X866902D01*
Y1129088D01*
X1147926D01*
X1159822Y1117192D01*
Y1108836D01*
X1159143Y1108315D01*
X1157804Y1106571D01*
X1156963Y1104540D01*
X1156676Y1102360D01*
X1156963Y1100180D01*
X1157804Y1098149D01*
X1159143Y1096405D01*
X1160887Y1095066D01*
X1162918Y1094225D01*
X1165098Y1093938D01*
X1167278Y1094225D01*
X1169309Y1095066D01*
X1171053Y1096405D01*
X1172392Y1098149D01*
X1173233Y1100180D01*
X1173520Y1102360D01*
X1173233Y1104540D01*
X1172392Y1106571D01*
X1171053Y1108315D01*
X1170374Y1108836D01*
Y1119378D01*
X1169973Y1121397D01*
X1168829Y1123109D01*
X1153843Y1138095D01*
X1152131Y1139239D01*
X1150112Y1139640D01*
X866902D01*
X866902Y1265922D01*
X1506460D01*
X1506460Y727978D01*
D02*
G37*
G36*
X1056583Y1003909D02*
X1056337Y1003541D01*
X1055936Y1001522D01*
Y993648D01*
Y973989D01*
X944468Y862522D01*
X925370D01*
X925258Y863746D01*
X925258D01*
Y875476D01*
X925258Y876746D01*
X925370Y877970D01*
X941717D01*
X942031Y877760D01*
X944372Y877294D01*
X946713Y877760D01*
X948698Y879086D01*
X950024Y881071D01*
X950490Y883412D01*
X950024Y885753D01*
X948698Y887738D01*
X946713Y889064D01*
X944372Y889529D01*
X942031Y889064D01*
X941220Y888522D01*
X925370D01*
X925258Y889746D01*
X925258Y891016D01*
Y901476D01*
X925258Y902746D01*
X925258Y904016D01*
Y914476D01*
X925258Y915746D01*
X925370Y916970D01*
X941511D01*
X942031Y916622D01*
X944372Y916156D01*
X946713Y916622D01*
X948698Y917948D01*
X950024Y919933D01*
X950490Y922274D01*
X950024Y924615D01*
X948698Y926600D01*
X946713Y927926D01*
X944372Y928391D01*
X942031Y927926D01*
X941427Y927522D01*
X925370D01*
X925258Y928746D01*
X925258Y930016D01*
Y933976D01*
X915758D01*
Y935246D01*
D01*
Y933976D01*
X906258D01*
Y930016D01*
X906258Y928746D01*
X906258Y927476D01*
Y917016D01*
X906258Y915746D01*
X906146Y914522D01*
X897278D01*
Y915686D01*
X884278D01*
Y914962D01*
X861610D01*
X856621Y919951D01*
X856745Y921215D01*
X857693Y921849D01*
X861231Y925386D01*
X864011Y929547D01*
X865926Y934169D01*
X866902Y939076D01*
X866902Y941578D01*
Y1001760D01*
X867508Y1002011D01*
X868970Y1003134D01*
X870092Y1004596D01*
X870798Y1006299D01*
X871038Y1008126D01*
X870798Y1009953D01*
X870092Y1011656D01*
X869254Y1012748D01*
Y1019025D01*
X871319D01*
Y1034025D01*
X866902D01*
Y1038025D01*
X871319D01*
Y1040249D01*
X878585D01*
Y1038025D01*
X893585D01*
Y1040936D01*
X900757D01*
Y1040565D01*
X920757D01*
Y1031565D01*
X913027D01*
Y1027835D01*
X922757D01*
Y1031065D01*
X942757D01*
Y1041065D01*
X936386D01*
Y1047188D01*
X938634Y1049436D01*
X938634Y1049436D01*
X939637Y1050937D01*
X939990Y1052709D01*
Y1060427D01*
X942861D01*
Y1075427D01*
X927861D01*
Y1060427D01*
X930732D01*
Y1054626D01*
X928484Y1052378D01*
X927480Y1050876D01*
X927128Y1049105D01*
X927128Y1049105D01*
Y1041065D01*
X922757D01*
Y1050565D01*
X900757D01*
Y1050194D01*
X893585D01*
Y1053025D01*
X878585D01*
Y1050802D01*
X871319D01*
Y1053025D01*
X866902D01*
Y1094203D01*
X870667D01*
Y1074927D01*
X868443D01*
Y1060927D01*
X883443D01*
Y1074927D01*
X881219D01*
Y1094203D01*
X965512D01*
Y1074816D01*
X963288D01*
Y1060816D01*
X978288D01*
Y1074816D01*
X976064D01*
Y1094203D01*
X1056583D01*
Y1003909D01*
D02*
G37*
G36*
X1253940Y943603D02*
X1254055Y943626D01*
X1255229Y944411D01*
X1255758Y945201D01*
X1256971Y945351D01*
X1257227Y945288D01*
X1257332Y945132D01*
X1258175Y944568D01*
X1259170Y944370D01*
X1259384Y944413D01*
X1268395Y935402D01*
X1268340Y935124D01*
Y929432D01*
X1264854D01*
Y929488D01*
X1259938D01*
Y931352D01*
X1259684Y932628D01*
X1258961Y933709D01*
X1257880Y934432D01*
X1256604Y934686D01*
X1256553Y934676D01*
X1248484Y942745D01*
Y944558D01*
X1249754Y944944D01*
X1250111Y944411D01*
X1251285Y943626D01*
X1251400Y943603D01*
Y946970D01*
X1253940D01*
Y943603D01*
D02*
G37*
%LPC*%
G36*
X1292860Y1185584D02*
X1289727Y1185171D01*
X1286808Y1183962D01*
X1284301Y1182038D01*
X1282378Y1179532D01*
X1281169Y1176613D01*
X1280756Y1173480D01*
X1281169Y1170347D01*
X1282378Y1167428D01*
X1284301Y1164921D01*
X1286808Y1162998D01*
X1289727Y1161789D01*
X1292860Y1161376D01*
X1295993Y1161789D01*
X1298912Y1162998D01*
X1301418Y1164921D01*
X1303342Y1167428D01*
X1304551Y1170347D01*
X1304964Y1173480D01*
X1304551Y1176613D01*
X1303342Y1179532D01*
X1301418Y1182038D01*
X1298912Y1183962D01*
X1295993Y1185171D01*
X1292860Y1185584D01*
D02*
G37*
G36*
X1343152Y1167181D02*
X1340641Y1166850D01*
X1338300Y1165881D01*
X1336291Y1164339D01*
X1334749Y1162329D01*
X1333780Y1159989D01*
X1333449Y1157478D01*
X1333780Y1154967D01*
X1334749Y1152626D01*
X1336291Y1150617D01*
X1338300Y1149075D01*
X1340641Y1148106D01*
X1343152Y1147775D01*
X1345663Y1148106D01*
X1348004Y1149075D01*
X1350013Y1150617D01*
X1351555Y1152626D01*
X1352524Y1154967D01*
X1352855Y1157478D01*
X1352524Y1159989D01*
X1351555Y1162329D01*
X1350013Y1164339D01*
X1348004Y1165881D01*
X1345663Y1166850D01*
X1343152Y1167181D01*
D02*
G37*
G36*
Y1141781D02*
X1340641Y1141450D01*
X1338300Y1140481D01*
X1336291Y1138939D01*
X1334749Y1136929D01*
X1333780Y1134589D01*
X1333449Y1132078D01*
X1333780Y1129567D01*
X1334749Y1127226D01*
X1336291Y1125217D01*
X1338300Y1123675D01*
X1340641Y1122706D01*
X1343152Y1122375D01*
X1345663Y1122706D01*
X1348004Y1123675D01*
X1350013Y1125217D01*
X1351555Y1127226D01*
X1352524Y1129567D01*
X1352855Y1132078D01*
X1352524Y1134589D01*
X1351555Y1136929D01*
X1350013Y1138939D01*
X1348004Y1140481D01*
X1345663Y1141450D01*
X1343152Y1141781D01*
D02*
G37*
G36*
X1180242Y1061710D02*
X1175512D01*
Y1056480D01*
X1180242D01*
Y1061710D01*
D02*
G37*
G36*
X1172972D02*
X1168242D01*
Y1056480D01*
X1172972D01*
Y1061710D01*
D02*
G37*
G36*
X1180242Y1053940D02*
X1175512D01*
Y1048710D01*
X1180242D01*
Y1053940D01*
D02*
G37*
G36*
X1172972D02*
X1168242D01*
Y1048710D01*
X1172972D01*
Y1053940D01*
D02*
G37*
G36*
X1253506Y1051202D02*
X1248776D01*
Y1045972D01*
X1253506D01*
Y1051202D01*
D02*
G37*
G36*
X1246236D02*
X1241506D01*
Y1045972D01*
X1246236D01*
Y1051202D01*
D02*
G37*
G36*
X1160818Y1042556D02*
X1155588D01*
Y1037826D01*
X1160818D01*
Y1042556D01*
D02*
G37*
G36*
X1153048D02*
X1147818D01*
Y1037826D01*
X1153048D01*
Y1042556D01*
D02*
G37*
G36*
X1172952Y1043460D02*
X1166222D01*
Y1037730D01*
X1172952D01*
Y1043460D01*
D02*
G37*
G36*
X1300226Y1039668D02*
Y1034938D01*
X1305456D01*
Y1039668D01*
X1300226D01*
D02*
G37*
G36*
X1209782Y1039368D02*
X1204552D01*
Y1034638D01*
X1209782D01*
Y1039368D01*
D02*
G37*
G36*
X1160818Y1035286D02*
X1155588D01*
Y1030556D01*
X1160818D01*
Y1035286D01*
D02*
G37*
G36*
X1153048D02*
X1147818D01*
Y1030556D01*
X1153048D01*
Y1035286D01*
D02*
G37*
G36*
X1305456Y1032398D02*
X1300226D01*
Y1027668D01*
X1305456D01*
Y1032398D01*
D02*
G37*
G36*
X1288034Y1039668D02*
Y1033668D01*
Y1027668D01*
X1297686D01*
Y1033668D01*
Y1039668D01*
X1288034D01*
D02*
G37*
G36*
X1275842D02*
Y1033668D01*
Y1027668D01*
X1285494D01*
Y1033668D01*
Y1039668D01*
X1275842D01*
D02*
G37*
G36*
X1234662Y1039368D02*
X1224892D01*
Y1033368D01*
Y1027368D01*
X1234662D01*
Y1033368D01*
Y1039368D01*
D02*
G37*
G36*
X1222352D02*
X1212322D01*
Y1033368D01*
Y1027368D01*
X1222352D01*
Y1033368D01*
Y1039368D01*
D02*
G37*
G36*
X1209782Y1032098D02*
X1204552D01*
Y1027368D01*
X1209782D01*
Y1032098D01*
D02*
G37*
G36*
X1078230Y1013638D02*
X1073000D01*
Y1008908D01*
X1078230D01*
Y1013638D01*
D02*
G37*
G36*
Y1006368D02*
X1073000D01*
Y1001638D01*
X1078230D01*
Y1006368D01*
D02*
G37*
G36*
X1408199Y1004334D02*
X1402969D01*
Y999604D01*
X1408199D01*
Y1004334D01*
D02*
G37*
G36*
X1400429D02*
X1395199D01*
Y999604D01*
X1400429D01*
Y1004334D01*
D02*
G37*
G36*
X1362098Y1003996D02*
X1356868D01*
Y999266D01*
X1362098D01*
Y1003996D01*
D02*
G37*
G36*
X1354328D02*
X1349098D01*
Y999266D01*
X1354328D01*
Y1003996D01*
D02*
G37*
G36*
X1313942Y1003854D02*
Y999124D01*
X1319172D01*
Y1003854D01*
X1313942D01*
D02*
G37*
G36*
X1408199Y997064D02*
X1402969D01*
Y992334D01*
X1408199D01*
Y997064D01*
D02*
G37*
G36*
X1400429D02*
X1395199D01*
Y992334D01*
X1400429D01*
Y997064D01*
D02*
G37*
G36*
X1362098Y996726D02*
X1356868D01*
Y991996D01*
X1362098D01*
Y996726D01*
D02*
G37*
G36*
X1354328D02*
X1349098D01*
Y991996D01*
X1354328D01*
Y996726D01*
D02*
G37*
G36*
X1319172Y996584D02*
X1313942D01*
Y991854D01*
X1319172D01*
Y996584D01*
D02*
G37*
G36*
X1173620Y984216D02*
X1168390D01*
Y979486D01*
X1173620D01*
Y984216D01*
D02*
G37*
G36*
X1185926Y984378D02*
X1180696D01*
Y984216D01*
X1176160D01*
Y978216D01*
Y972216D01*
X1181390D01*
Y972378D01*
X1185926D01*
Y978378D01*
Y984378D01*
D02*
G37*
G36*
X1173620Y976946D02*
X1168390D01*
Y972216D01*
X1173620D01*
Y976946D01*
D02*
G37*
G36*
X1369718Y965896D02*
X1364488D01*
Y961166D01*
X1369718D01*
Y965896D01*
D02*
G37*
G36*
X1361948D02*
X1356718D01*
Y961166D01*
X1361948D01*
Y965896D01*
D02*
G37*
G36*
X1331110Y965895D02*
X1325880D01*
Y961165D01*
X1331110D01*
Y965895D01*
D02*
G37*
G36*
X1369718Y958626D02*
X1364488D01*
Y953896D01*
X1369718D01*
Y958626D01*
D02*
G37*
G36*
X1361948D02*
X1356718D01*
Y953896D01*
X1361948D01*
Y958626D01*
D02*
G37*
G36*
X1331110Y958625D02*
X1325880D01*
Y953895D01*
X1331110D01*
Y958625D01*
D02*
G37*
G36*
X1414302Y952396D02*
X1409572D01*
Y947166D01*
X1414302D01*
Y952396D01*
D02*
G37*
G36*
Y944626D02*
X1409572D01*
Y939396D01*
X1414302D01*
Y944626D01*
D02*
G37*
G36*
X1436380Y945290D02*
Y939310D01*
X1448110D01*
Y945290D01*
X1436380D01*
D02*
G37*
G36*
X1421572Y952396D02*
X1416842D01*
Y945896D01*
X1415572D01*
D01*
X1416842D01*
Y939396D01*
X1420840D01*
X1421572Y939396D01*
X1421616Y939310D01*
X1433840D01*
Y945290D01*
X1422842D01*
X1422110Y945290D01*
X1421572Y946337D01*
Y952396D01*
D02*
G37*
G36*
X1448110Y936770D02*
X1436380D01*
Y930790D01*
X1448110D01*
Y936770D01*
D02*
G37*
G36*
X1408820Y931210D02*
X1405890D01*
Y929480D01*
X1408820D01*
Y931210D01*
D02*
G37*
G36*
X1361964Y932076D02*
X1357234D01*
Y926846D01*
X1361964D01*
Y932076D01*
D02*
G37*
G36*
X1354694D02*
X1349964D01*
Y926846D01*
X1354694D01*
Y932076D01*
D02*
G37*
G36*
X1321712Y926892D02*
X1316482D01*
Y922162D01*
X1321712D01*
Y926892D01*
D02*
G37*
G36*
X1313942D02*
X1308712D01*
Y922162D01*
X1313942D01*
Y926892D01*
D02*
G37*
G36*
X1408820Y916940D02*
X1405890D01*
Y915210D01*
X1408820D01*
Y916940D01*
D02*
G37*
G36*
X1361710Y920138D02*
X1356980D01*
Y914908D01*
X1361710D01*
Y920138D01*
D02*
G37*
G36*
X1354440D02*
X1349710D01*
Y914908D01*
X1354440D01*
Y920138D01*
D02*
G37*
G36*
X1321712Y919622D02*
X1316482D01*
Y914892D01*
X1321712D01*
Y919622D01*
D02*
G37*
G36*
X1313942D02*
X1308712D01*
Y914892D01*
X1313942D01*
Y919622D01*
D02*
G37*
G36*
X1305414Y919718D02*
X1300684D01*
Y914488D01*
X1305414D01*
Y919718D01*
D02*
G37*
G36*
X1298144D02*
X1293414D01*
Y914488D01*
X1298144D01*
Y919718D01*
D02*
G37*
G36*
X1193546Y916052D02*
X1188316D01*
Y911322D01*
X1193546D01*
Y916052D01*
D02*
G37*
G36*
X1448110Y915790D02*
X1436380D01*
Y909810D01*
X1448110D01*
Y915790D01*
D02*
G37*
G36*
X1388350Y911940D02*
X1386620D01*
Y909010D01*
X1388350D01*
Y911940D01*
D02*
G37*
G36*
X1361710Y912368D02*
X1356980D01*
Y907138D01*
X1361710D01*
Y912368D01*
D02*
G37*
G36*
X1354440D02*
X1349710D01*
Y907138D01*
X1354440D01*
Y912368D01*
D02*
G37*
G36*
X1104646Y956585D02*
X1102305Y956120D01*
X1100320Y954794D01*
X1098994Y952809D01*
X1098529Y950468D01*
X1098994Y948127D01*
X1099598Y947223D01*
Y917677D01*
X1069797Y887875D01*
X1064156D01*
X1063258Y888773D01*
X1063258Y889746D01*
X1063258Y891016D01*
Y901476D01*
X1063258Y902746D01*
X1063258Y903719D01*
X1064156Y904617D01*
X1069350D01*
X1069350Y904617D01*
X1071122Y904969D01*
X1072623Y905973D01*
X1091409Y924759D01*
X1092413Y926261D01*
X1092765Y928032D01*
X1092765Y928032D01*
Y946596D01*
X1093788Y948127D01*
X1094253Y950468D01*
X1093788Y952809D01*
X1092462Y954794D01*
X1090477Y956120D01*
X1088136Y956585D01*
X1085795Y956120D01*
X1083810Y954794D01*
X1082484Y952809D01*
X1082231Y951535D01*
X1080936D01*
X1080834Y952047D01*
X1079508Y954032D01*
X1077523Y955358D01*
X1075182Y955824D01*
X1072841Y955358D01*
X1070856Y954032D01*
X1069530Y952047D01*
X1069064Y949706D01*
X1069530Y947365D01*
X1070553Y945834D01*
Y929995D01*
X1067433Y926875D01*
X1064156D01*
X1063258Y927773D01*
X1063258Y928746D01*
X1063258Y930016D01*
Y941746D01*
X1044258D01*
Y930016D01*
X1044258Y928746D01*
X1044258Y927476D01*
Y917016D01*
X1044258Y915746D01*
X1044258D01*
Y915746D01*
X1044258D01*
Y904016D01*
X1044258Y902746D01*
X1044258Y901476D01*
Y891016D01*
X1044258Y889746D01*
X1044258Y888476D01*
Y878016D01*
X1044258Y876746D01*
X1044258Y875476D01*
Y865016D01*
X1044258Y863746D01*
X1044258Y862476D01*
Y858516D01*
X1053758D01*
X1063258D01*
Y862476D01*
X1063258Y863746D01*
X1063258Y864719D01*
X1064156Y865617D01*
X1084876D01*
X1084876Y865617D01*
X1086647Y865969D01*
X1088149Y866973D01*
X1120627Y899451D01*
X1120627Y899451D01*
X1121631Y900953D01*
X1121983Y902724D01*
X1121983Y902724D01*
Y924560D01*
X1123006Y926091D01*
X1123472Y928432D01*
X1123006Y930773D01*
X1121680Y932758D01*
X1119695Y934084D01*
X1117354Y934549D01*
X1115013Y934084D01*
X1113028Y932758D01*
X1111702Y930773D01*
X1111237Y928432D01*
X1111702Y926091D01*
X1112725Y924560D01*
Y904642D01*
X1082959Y874875D01*
X1064156D01*
X1063258Y875773D01*
X1063258Y876746D01*
X1063258Y877719D01*
X1064156Y878617D01*
X1071714D01*
X1071714Y878617D01*
X1073485Y878969D01*
X1074987Y879973D01*
X1107500Y912486D01*
X1108504Y913988D01*
X1108856Y915759D01*
X1108856Y915759D01*
Y946065D01*
X1108972Y946142D01*
X1110298Y948127D01*
X1110763Y950468D01*
X1110298Y952809D01*
X1108972Y954794D01*
X1106987Y956120D01*
X1104646Y956585D01*
D02*
G37*
G36*
X1193546Y908782D02*
X1188316D01*
Y904052D01*
X1193546D01*
Y908782D01*
D02*
G37*
G36*
X1201316Y916052D02*
X1196086D01*
Y910052D01*
X1194816D01*
D01*
X1196086D01*
Y904052D01*
X1200508D01*
Y903940D01*
X1205738D01*
Y909940D01*
Y915940D01*
X1201316D01*
Y916052D01*
D02*
G37*
G36*
X1217930Y915940D02*
X1208278D01*
Y909940D01*
Y903940D01*
X1217930D01*
Y909940D01*
Y915940D01*
D02*
G37*
G36*
X1448110Y907270D02*
X1436380D01*
Y901290D01*
X1448110D01*
Y907270D01*
D02*
G37*
G36*
X1433840D02*
X1422110D01*
Y901290D01*
X1433840D01*
Y907270D01*
D02*
G37*
G36*
X1239441Y897256D02*
X1234211D01*
Y892526D01*
X1239441D01*
Y897256D01*
D02*
G37*
G36*
X1231671D02*
X1226441D01*
Y892526D01*
X1231671D01*
Y897256D01*
D02*
G37*
G36*
X1263104Y897144D02*
X1257874D01*
Y892414D01*
X1263104D01*
Y897144D01*
D02*
G37*
G36*
X1255334D02*
X1250104D01*
Y892414D01*
X1255334D01*
Y897144D01*
D02*
G37*
G36*
X1239441Y889986D02*
X1234211D01*
Y885256D01*
X1239441D01*
Y889986D01*
D02*
G37*
G36*
X1231671D02*
X1226441D01*
Y885256D01*
X1231671D01*
Y889986D01*
D02*
G37*
G36*
X1263104Y889874D02*
X1257874D01*
Y885144D01*
X1263104D01*
Y889874D01*
D02*
G37*
G36*
X1255334D02*
X1250104D01*
Y885144D01*
X1255334D01*
Y889874D01*
D02*
G37*
G36*
X444340Y886766D02*
X435610D01*
Y878536D01*
X444340D01*
Y886766D01*
D02*
G37*
G36*
X433070D02*
X424340D01*
Y878536D01*
X433070D01*
Y886766D01*
D02*
G37*
G36*
X379570Y884886D02*
X370840D01*
Y876656D01*
X379570D01*
Y884886D01*
D02*
G37*
G36*
X368300D02*
X359570D01*
Y876656D01*
X368300D01*
Y884886D01*
D02*
G37*
G36*
X326992Y874266D02*
X318262D01*
Y866036D01*
X326992D01*
Y874266D01*
D02*
G37*
G36*
X315722D02*
X306992D01*
Y866036D01*
X315722D01*
Y874266D01*
D02*
G37*
G36*
X1204214Y859068D02*
X1202034Y858781D01*
X1200003Y857940D01*
X1199116Y857259D01*
X1197846Y857885D01*
Y858042D01*
X1182846D01*
Y843042D01*
X1197846D01*
Y843407D01*
X1199116Y844033D01*
X1200003Y843352D01*
X1202034Y842511D01*
X1204214Y842224D01*
X1206394Y842511D01*
X1208425Y843352D01*
X1210169Y844691D01*
X1211508Y846435D01*
X1212349Y848466D01*
X1212636Y850646D01*
X1212349Y852826D01*
X1211508Y854857D01*
X1210169Y856601D01*
X1208425Y857940D01*
X1206394Y858781D01*
X1204214Y859068D01*
D02*
G37*
G36*
X1249806Y858146D02*
X1243076D01*
Y851916D01*
X1249806D01*
Y858146D01*
D02*
G37*
G36*
X1240536D02*
X1233806D01*
Y851916D01*
X1240536D01*
Y858146D01*
D02*
G37*
G36*
X1373258Y853828D02*
X1358258D01*
Y851858D01*
X1317498D01*
X1317498Y851858D01*
X1315479Y851457D01*
X1313767Y850313D01*
X1304877Y841423D01*
X1303733Y839711D01*
X1303332Y837692D01*
Y827553D01*
X1301747Y826337D01*
X1300205Y824327D01*
X1299236Y821987D01*
X1298905Y819476D01*
X1299236Y816965D01*
X1300205Y814624D01*
X1301747Y812615D01*
X1303757Y811073D01*
X1306097Y810104D01*
X1308608Y809773D01*
X1311119Y810104D01*
X1313459Y811073D01*
X1315469Y812615D01*
X1317011Y814624D01*
X1317980Y816965D01*
X1318311Y819476D01*
X1317980Y821987D01*
X1317011Y824327D01*
X1315469Y826337D01*
X1313884Y827553D01*
Y835506D01*
X1319684Y841306D01*
X1358258D01*
Y838828D01*
X1373258D01*
Y853828D01*
D02*
G37*
G36*
X1063258Y855976D02*
X1055028D01*
Y850746D01*
X1063258D01*
Y855976D01*
D02*
G37*
G36*
X1052488D02*
X1044258D01*
Y850746D01*
X1052488D01*
Y855976D01*
D02*
G37*
G36*
X821276Y865839D02*
X812546D01*
Y850109D01*
X821276D01*
Y865839D01*
D02*
G37*
G36*
X810006D02*
X801276D01*
Y850109D01*
X810006D01*
Y865839D01*
D02*
G37*
G36*
X641706Y857520D02*
X633476D01*
Y849790D01*
X641706D01*
Y857520D01*
D02*
G37*
G36*
X630936D02*
X622706D01*
Y849790D01*
X630936D01*
Y857520D01*
D02*
G37*
G36*
X897278Y849316D02*
X892048D01*
Y844586D01*
X897278D01*
Y849316D01*
D02*
G37*
G36*
X889508D02*
X884278D01*
Y844586D01*
X889508D01*
Y849316D01*
D02*
G37*
G36*
X1249806Y849376D02*
X1243076D01*
Y843146D01*
X1249806D01*
Y849376D01*
D02*
G37*
G36*
X1240536D02*
X1233806D01*
Y843146D01*
X1240536D01*
Y849376D01*
D02*
G37*
G36*
X696308Y848086D02*
X687578D01*
Y839856D01*
X696308D01*
Y848086D01*
D02*
G37*
G36*
X685038D02*
X676308D01*
Y839856D01*
X685038D01*
Y848086D01*
D02*
G37*
G36*
X668876D02*
X660146D01*
Y839856D01*
X668876D01*
Y848086D01*
D02*
G37*
G36*
X657606D02*
X648876D01*
Y839856D01*
X657606D01*
Y848086D01*
D02*
G37*
G36*
X641706Y847250D02*
X633476D01*
Y839520D01*
X641706D01*
Y847250D01*
D02*
G37*
G36*
X630936D02*
X622706D01*
Y839520D01*
X630936D01*
Y847250D01*
D02*
G37*
G36*
X897278Y842046D02*
X892048D01*
Y837316D01*
X897278D01*
Y842046D01*
D02*
G37*
G36*
X889508D02*
X884278D01*
Y837316D01*
X889508D01*
Y842046D01*
D02*
G37*
G36*
X775556Y845069D02*
X766826D01*
Y836839D01*
X775556D01*
Y845069D01*
D02*
G37*
G36*
X764286D02*
X755556D01*
Y836839D01*
X764286D01*
Y845069D01*
D02*
G37*
G36*
X750746Y844784D02*
X742496D01*
X734246D01*
Y836851D01*
X733073Y836365D01*
X730109Y839329D01*
X728775Y840220D01*
X727202Y840533D01*
X725746D01*
Y841554D01*
X709246D01*
Y831554D01*
X725746D01*
X725746Y831554D01*
Y831554D01*
X726793Y831017D01*
X730965Y826845D01*
Y819356D01*
X711106D01*
Y817505D01*
X703682D01*
Y819364D01*
X684682D01*
Y801364D01*
X703682D01*
Y803223D01*
X710208D01*
X711106Y802325D01*
X711106Y800356D01*
X711106Y799086D01*
Y781356D01*
X731106D01*
Y783469D01*
X738530D01*
Y781364D01*
X757530D01*
Y783223D01*
X770036D01*
X770235Y783070D01*
X772266Y782229D01*
X774446Y781942D01*
X776626Y782229D01*
X778657Y783070D01*
X780401Y784409D01*
X781740Y786153D01*
X782581Y788184D01*
X782868Y790364D01*
X782581Y792544D01*
X781740Y794575D01*
X780401Y796319D01*
X778657Y797658D01*
X776626Y798499D01*
X774446Y798786D01*
X772266Y798499D01*
X770235Y797658D01*
X770036Y797505D01*
X757530D01*
Y799364D01*
X738530D01*
Y797751D01*
X732004D01*
X731106Y798649D01*
X731106Y800356D01*
X731106Y801626D01*
Y803223D01*
X738530D01*
Y801364D01*
X757530D01*
Y819364D01*
X757530D01*
X757180Y820634D01*
X757701Y821312D01*
X758406Y823015D01*
X758646Y824842D01*
X758406Y826669D01*
X757701Y828372D01*
X756578Y829835D01*
X755116Y830956D01*
X753413Y831662D01*
X751586Y831902D01*
X750746Y832639D01*
Y841054D01*
Y844784D01*
D02*
G37*
G36*
X821276Y847569D02*
X812546D01*
Y831839D01*
X821276D01*
Y847569D01*
D02*
G37*
G36*
X810006D02*
X801276D01*
Y831839D01*
X810006D01*
Y847569D01*
D02*
G37*
G36*
X973028Y839746D02*
Y831516D01*
X978258D01*
Y839746D01*
X973028D01*
D02*
G37*
G36*
X944488D02*
X939258D01*
Y831516D01*
X944488D01*
Y839746D01*
D02*
G37*
G36*
X1231806Y858146D02*
X1215806D01*
Y843146D01*
X1218242D01*
Y839624D01*
X1211553Y832935D01*
X1206373D01*
X1204354Y832534D01*
X1202642Y831390D01*
X1202642Y831390D01*
X1194154Y822902D01*
X1188702D01*
Y827126D01*
X1176978D01*
Y843042D01*
X1178846D01*
Y858042D01*
X1163846D01*
Y843042D01*
X1166426D01*
Y827126D01*
X1154702D01*
Y808126D01*
X1188702D01*
Y812350D01*
X1196340D01*
X1198359Y812751D01*
X1200071Y813895D01*
X1208559Y822383D01*
X1213739D01*
X1215758Y822784D01*
X1217470Y823928D01*
X1227249Y833707D01*
X1228393Y835419D01*
X1228794Y837438D01*
Y843146D01*
X1231806D01*
Y858146D01*
D02*
G37*
G36*
X978258Y828976D02*
X973028D01*
Y820746D01*
X978258D01*
Y828976D01*
D02*
G37*
G36*
X944488Y828976D02*
X939258D01*
Y820746D01*
X944488D01*
Y828976D01*
D02*
G37*
G36*
X1284478Y829012D02*
Y820746D01*
X1292744D01*
X1292580Y821987D01*
X1291611Y824327D01*
X1290069Y826337D01*
X1288060Y827879D01*
X1285719Y828848D01*
X1284478Y829012D01*
D02*
G37*
G36*
X1281938D02*
X1280697Y828848D01*
X1278356Y827879D01*
X1276347Y826337D01*
X1274805Y824327D01*
X1273836Y821987D01*
X1273672Y820746D01*
X1281938D01*
Y829012D01*
D02*
G37*
G36*
X1258702Y827126D02*
X1242972D01*
Y818896D01*
X1258702D01*
Y827126D01*
D02*
G37*
G36*
X1240432D02*
X1224702D01*
Y818896D01*
X1240432D01*
Y827126D01*
D02*
G37*
G36*
X459182Y826618D02*
X451452D01*
Y818388D01*
X459182D01*
Y826618D01*
D02*
G37*
G36*
X448912D02*
X441182D01*
Y818388D01*
X448912D01*
Y826618D01*
D02*
G37*
G36*
X1292744Y818206D02*
X1284478D01*
Y809940D01*
X1285719Y810104D01*
X1288060Y811073D01*
X1290069Y812615D01*
X1291611Y814624D01*
X1292580Y816965D01*
X1292744Y818206D01*
D02*
G37*
G36*
X1281938D02*
X1273672D01*
X1273836Y816965D01*
X1274805Y814624D01*
X1276347Y812615D01*
X1278356Y811073D01*
X1280697Y810104D01*
X1281938Y809940D01*
Y818206D01*
D02*
G37*
G36*
X1359408Y829179D02*
X1356897Y828848D01*
X1354556Y827879D01*
X1352547Y826337D01*
X1351005Y824327D01*
X1350036Y821987D01*
X1349705Y819476D01*
X1350036Y816965D01*
X1351005Y814624D01*
X1352547Y812615D01*
X1354556Y811073D01*
X1356897Y810104D01*
X1359408Y809773D01*
X1361919Y810104D01*
X1364259Y811073D01*
X1366269Y812615D01*
X1367811Y814624D01*
X1368780Y816965D01*
X1369111Y819476D01*
X1368780Y821987D01*
X1367811Y824327D01*
X1366269Y826337D01*
X1364259Y827879D01*
X1361919Y828848D01*
X1359408Y829179D01*
D02*
G37*
G36*
X1334008D02*
X1331497Y828848D01*
X1329156Y827879D01*
X1327147Y826337D01*
X1325605Y824327D01*
X1324636Y821987D01*
X1324305Y819476D01*
X1324636Y816965D01*
X1325605Y814624D01*
X1327147Y812615D01*
X1329156Y811073D01*
X1331497Y810104D01*
X1334008Y809773D01*
X1336519Y810104D01*
X1338860Y811073D01*
X1340869Y812615D01*
X1342411Y814624D01*
X1343380Y816965D01*
X1343711Y819476D01*
X1343380Y821987D01*
X1342411Y824327D01*
X1340869Y826337D01*
X1338860Y827879D01*
X1336519Y828848D01*
X1334008Y829179D01*
D02*
G37*
G36*
X304678Y813405D02*
X295778D01*
X286878D01*
Y809445D01*
X295778D01*
X304678D01*
Y813405D01*
D02*
G37*
G36*
X487814Y847496D02*
X480314D01*
X472814D01*
Y843516D01*
Y834016D01*
X473063D01*
X473712Y832746D01*
X473062Y831772D01*
X472709Y830001D01*
X472709Y830001D01*
Y826880D01*
X466496D01*
Y808880D01*
X485496D01*
Y826880D01*
X482127D01*
X482034Y828150D01*
X483587Y829704D01*
X483587Y829704D01*
X484591Y831205D01*
X484943Y832977D01*
Y834016D01*
X487814D01*
Y843516D01*
Y847496D01*
D02*
G37*
G36*
X1258702Y816356D02*
X1242972D01*
Y808126D01*
X1258702D01*
Y816356D01*
D02*
G37*
G36*
X1240432D02*
X1224702D01*
Y808126D01*
X1240432D01*
Y816356D01*
D02*
G37*
G36*
X459182Y815848D02*
X451452D01*
Y807618D01*
X459182D01*
Y815848D01*
D02*
G37*
G36*
X448912D02*
X441182D01*
Y807618D01*
X448912D01*
Y815848D01*
D02*
G37*
G36*
X703682Y799364D02*
X695452D01*
Y791634D01*
X703682D01*
Y799364D01*
D02*
G37*
G36*
X692912D02*
X684682D01*
Y791634D01*
X692912D01*
Y799364D01*
D02*
G37*
G36*
X974888Y796336D02*
Y784606D01*
X980868D01*
Y796336D01*
X974888D01*
D02*
G37*
G36*
X952258Y839746D02*
X950988Y839746D01*
X947028D01*
Y830246D01*
Y820746D01*
X952694Y820746D01*
X953592Y819848D01*
Y805836D01*
X951868D01*
Y797399D01*
X951368Y796336D01*
X950598Y796336D01*
X945388D01*
Y784606D01*
X951368D01*
Y790273D01*
X951868Y791336D01*
X952638Y791336D01*
X965098D01*
X965868Y791336D01*
X966368Y790273D01*
Y784606D01*
X972348D01*
Y796336D01*
X967138D01*
X966368Y796336D01*
X965868Y797399D01*
Y805836D01*
X964144D01*
Y820368D01*
X965258Y820746D01*
X966528Y820746D01*
X970488D01*
Y830246D01*
Y839746D01*
X966528D01*
X965258Y839746D01*
X963988Y839746D01*
X953528D01*
X952258Y839746D01*
D02*
G37*
G36*
X942848Y796336D02*
X936868D01*
Y784606D01*
X942848D01*
Y796336D01*
D02*
G37*
G36*
X703682Y789094D02*
X695452D01*
Y781364D01*
X703682D01*
Y789094D01*
D02*
G37*
G36*
X692912D02*
X684682D01*
Y781364D01*
X692912D01*
Y789094D01*
D02*
G37*
G36*
X325730Y785638D02*
X317500D01*
Y777908D01*
X325730D01*
Y785638D01*
D02*
G37*
G36*
X314960D02*
X306730D01*
Y777908D01*
X314960D01*
Y785638D01*
D02*
G37*
G36*
X485496Y806880D02*
X466496D01*
Y788880D01*
X471367D01*
Y779527D01*
X469137Y777297D01*
X455307D01*
X454209Y778395D01*
Y781456D01*
X458436D01*
Y800456D01*
X441436D01*
Y781456D01*
X444951D01*
Y776478D01*
X444951Y776478D01*
X445303Y774707D01*
X446307Y773205D01*
X450117Y769395D01*
X451619Y768391D01*
X453390Y768039D01*
X453390Y768039D01*
X471054D01*
X471054Y768039D01*
X472826Y768391D01*
X474327Y769395D01*
X479269Y774337D01*
X479269Y774337D01*
X480273Y775838D01*
X480625Y777610D01*
Y788880D01*
X485496D01*
Y806880D01*
D02*
G37*
G36*
X980868Y782066D02*
X974888D01*
Y770336D01*
X980868D01*
Y782066D01*
D02*
G37*
G36*
X972348D02*
X966368D01*
Y770336D01*
X972348D01*
Y782066D01*
D02*
G37*
G36*
X951368D02*
X945388D01*
Y770336D01*
X951368D01*
Y782066D01*
D02*
G37*
G36*
X942848D02*
X936868D01*
Y770336D01*
X942848D01*
Y782066D01*
D02*
G37*
G36*
X325730Y775368D02*
X317500D01*
Y767638D01*
X325730D01*
Y775368D01*
D02*
G37*
G36*
X314960D02*
X306730D01*
Y767638D01*
X314960D01*
Y775368D01*
D02*
G37*
G36*
X923861Y1075427D02*
X908861D01*
Y1073204D01*
X900443D01*
Y1074927D01*
X885443D01*
Y1060927D01*
X900443D01*
Y1062651D01*
X908861D01*
Y1060427D01*
X923861D01*
Y1075427D01*
D02*
G37*
G36*
X1018470Y1075316D02*
X1003470D01*
Y1073092D01*
X995288D01*
Y1074816D01*
X980288D01*
Y1060816D01*
X995288D01*
Y1062540D01*
X1003470D01*
Y1060316D01*
X1018470D01*
Y1075316D01*
D02*
G37*
G36*
X1037470D02*
X1022470D01*
Y1060316D01*
X1025341D01*
Y1054747D01*
X1022808Y1052214D01*
X1021804Y1050712D01*
X1021452Y1048941D01*
X1021452Y1048941D01*
Y1040571D01*
X1017769D01*
Y1050071D01*
X995769D01*
Y1049700D01*
X988549D01*
Y1052571D01*
X973549D01*
Y1050348D01*
X966096D01*
Y1052571D01*
X951096D01*
Y1037571D01*
X966096D01*
Y1039795D01*
X973549D01*
Y1037571D01*
X988549D01*
Y1040442D01*
X995769D01*
Y1040071D01*
X1015769D01*
Y1031071D01*
X1008039D01*
Y1027341D01*
X1017769D01*
Y1030571D01*
X1037769D01*
Y1040571D01*
X1030710D01*
Y1047024D01*
X1033243Y1049557D01*
X1033243Y1049557D01*
X1034247Y1051059D01*
X1034599Y1052830D01*
Y1060316D01*
X1037470D01*
Y1075316D01*
D02*
G37*
G36*
X910487Y1031565D02*
X900757D01*
Y1027835D01*
X910487D01*
Y1031565D01*
D02*
G37*
G36*
X893585Y1034025D02*
X887355D01*
Y1027795D01*
X893585D01*
Y1034025D01*
D02*
G37*
G36*
X884815D02*
X878585D01*
Y1027795D01*
X884815D01*
Y1034025D01*
D02*
G37*
G36*
X988549Y1033571D02*
X982319D01*
Y1027341D01*
X988549D01*
Y1033571D01*
D02*
G37*
G36*
X1005499Y1031071D02*
X995769D01*
Y1027341D01*
X1005499D01*
Y1031071D01*
D02*
G37*
G36*
X979779Y1033571D02*
X973549D01*
Y1027341D01*
X979779D01*
Y1033571D01*
D02*
G37*
G36*
X922757Y1025295D02*
X913027D01*
Y1021565D01*
X922757D01*
Y1025295D01*
D02*
G37*
G36*
X910487D02*
X900757D01*
Y1021565D01*
X910487D01*
Y1025295D01*
D02*
G37*
G36*
X1017769Y1024801D02*
X1008039D01*
Y1021071D01*
X1017769D01*
Y1024801D01*
D02*
G37*
G36*
X1005499D02*
X995769D01*
Y1021071D01*
X1005499D01*
Y1024801D01*
D02*
G37*
G36*
X893585Y1025255D02*
X887355D01*
Y1019025D01*
X893585D01*
Y1025255D01*
D02*
G37*
G36*
X884815D02*
X878585D01*
Y1019025D01*
X884815D01*
Y1025255D01*
D02*
G37*
G36*
X988549Y1024801D02*
X982319D01*
Y1018571D01*
X988549D01*
Y1024801D01*
D02*
G37*
G36*
X979779D02*
X973549D01*
Y1018571D01*
X979779D01*
Y1024801D01*
D02*
G37*
G36*
X966096Y1033571D02*
X951096D01*
Y1018571D01*
X953320D01*
Y1011013D01*
X952644Y1010132D01*
X951938Y1008429D01*
X951698Y1006602D01*
X951938Y1004775D01*
X952644Y1003072D01*
X953766Y1001610D01*
X955228Y1000488D01*
X956931Y999782D01*
X958758Y999542D01*
X960585Y999782D01*
X962288Y1000488D01*
X963750Y1001610D01*
X964873Y1003072D01*
X965578Y1004775D01*
X965818Y1006602D01*
X965578Y1008429D01*
X964873Y1010132D01*
X963872Y1011435D01*
Y1018571D01*
X966096D01*
Y1033571D01*
D02*
G37*
G36*
X978258Y971746D02*
X976988Y971746D01*
X966528D01*
X965258Y971746D01*
X963988Y971746D01*
X953528D01*
X952258Y971746D01*
X950988Y971746D01*
X947028D01*
Y962246D01*
Y952746D01*
X950988D01*
X952258Y952746D01*
X953528Y952746D01*
X963988D01*
X965258Y952746D01*
X966528Y952746D01*
X976988D01*
X978258Y952746D01*
X979228Y952021D01*
Y940671D01*
X978852Y940109D01*
X978387Y937768D01*
X978852Y935427D01*
X980178Y933442D01*
X982163Y932116D01*
X984504Y931650D01*
X986845Y932116D01*
X988830Y933442D01*
X990156Y935427D01*
X990621Y937768D01*
X990156Y940109D01*
X989780Y940671D01*
Y951848D01*
X990678Y952746D01*
X991258D01*
X992482Y952634D01*
Y948499D01*
X992106Y947937D01*
X991640Y945596D01*
X992106Y943255D01*
X993432Y941270D01*
X995417Y939944D01*
X997758Y939479D01*
X1000099Y939944D01*
X1002084Y941270D01*
X1003410Y943255D01*
X1003876Y945596D01*
X1003410Y947937D01*
X1003034Y948499D01*
Y952634D01*
X1004258Y952746D01*
X1005528Y952746D01*
X1015988D01*
X1017258Y952746D01*
X1018528Y952746D01*
X1030258D01*
Y971746D01*
X1018528D01*
X1017258Y971746D01*
X1015988Y971746D01*
X1005528D01*
X1004258Y971746D01*
X1002988Y971746D01*
X992528D01*
X991258Y971746D01*
X989988Y971746D01*
X979528D01*
X978258Y971746D01*
D02*
G37*
G36*
X944488Y971746D02*
X939258D01*
Y963516D01*
X944488D01*
Y971746D01*
D02*
G37*
G36*
Y960976D02*
X939258D01*
Y952746D01*
X944488D01*
Y960976D01*
D02*
G37*
G36*
X925258Y941746D02*
X917028D01*
Y936516D01*
X925258D01*
Y941746D01*
D02*
G37*
G36*
X914488D02*
X906258D01*
Y936516D01*
X914488D01*
Y941746D01*
D02*
G37*
G36*
X897278Y929686D02*
X892048D01*
Y924956D01*
X897278D01*
Y929686D01*
D02*
G37*
G36*
X889508D02*
X884278D01*
Y924956D01*
X889508D01*
Y929686D01*
D02*
G37*
G36*
X897278Y922416D02*
X892048D01*
Y917686D01*
X897278D01*
Y922416D01*
D02*
G37*
G36*
X889508D02*
X884278D01*
Y917686D01*
X889508D01*
Y922416D01*
D02*
G37*
%LPD*%
D10*
X1389620Y913210D02*
X1394620D01*
D13*
X1252670Y976220D02*
Y979221D01*
X1277280Y971972D02*
X1285494D01*
X1271778Y966470D02*
X1277280Y971972D01*
X1160807Y914654D02*
X1199698Y953545D01*
X1160743Y914654D02*
X1160807D01*
X1159601Y922429D02*
X1197068Y959895D01*
X1199698Y953545D02*
X1213199D01*
X1197068Y959895D02*
X1213595D01*
X1174890Y992470D02*
X1213670D01*
X1207498Y946970D02*
X1213670D01*
X1194816Y934288D02*
X1207498Y946970D01*
X1194816Y924052D02*
Y934288D01*
X1260602Y1007872D02*
X1268476D01*
X1256792D02*
X1260602D01*
X1261044Y1008314D01*
Y1019858D01*
X1246170Y997250D02*
X1256792Y1007872D01*
X1272216D02*
X1274573Y1010229D01*
X1268476Y1007872D02*
X1272216D01*
X1274573Y1010229D02*
Y1018667D01*
X1216914Y982726D02*
X1220170Y979470D01*
X1197356Y985970D02*
X1213670D01*
X394716Y827278D02*
X400050D01*
X390398Y831596D02*
X394716Y827278D01*
X381508Y831596D02*
X390398D01*
X393954Y819161D02*
X395442Y820649D01*
X399771D01*
X393954Y816610D02*
Y819161D01*
X389940Y812596D02*
X393954Y816610D01*
X381508Y812596D02*
X389940D01*
X1213595Y959895D02*
X1213670Y959970D01*
X1213199Y953545D02*
X1213274Y953470D01*
X1213670D01*
X399771Y820649D02*
X400050Y820928D01*
X1223355Y963220D02*
X1223387D01*
X1216878Y950178D02*
X1220170Y953470D01*
X1252670Y959708D02*
X1254732Y957646D01*
X1256792D01*
X1259116Y959970D01*
X1259170D02*
X1271778D01*
X1223387Y963220D02*
X1226637Y966470D01*
X1226670D01*
X1242799Y989076D02*
X1242822D01*
X1239693Y985970D02*
X1242799Y989076D01*
X1239670Y985970D02*
X1239693D01*
X1259170Y966470D02*
X1271778D01*
X1271166Y972970D02*
X1275842Y977646D01*
X1259170Y972970D02*
X1271166D01*
X1246170Y941786D02*
Y946970D01*
Y941786D02*
X1256604Y931352D01*
X1233170Y938276D02*
Y946970D01*
X1220170Y940516D02*
Y946970D01*
X1214120Y934466D02*
X1220170Y940516D01*
X1252670Y943414D02*
X1257808Y938276D01*
X1252670Y943414D02*
Y946970D01*
X1246216Y953516D02*
X1252474D01*
X1252670Y972970D02*
Y976220D01*
X1233170Y985970D02*
Y992470D01*
X1252670Y972970D02*
X1259170D01*
X1227074Y1004316D02*
X1233170Y998220D01*
X1252670Y946970D02*
Y953470D01*
X1233170Y992470D02*
Y998220D01*
X1233104Y919988D02*
Y929894D01*
X1239670Y936460D01*
Y946970D01*
X1226566Y931672D02*
X1233170Y938276D01*
X1221298Y931672D02*
X1226566D01*
X1210564Y934466D02*
X1214120D01*
X1206952Y930854D02*
X1210564Y934466D01*
X1206952Y923996D02*
Y930854D01*
X1246170Y992470D02*
Y997250D01*
X1219200Y929574D02*
X1221298Y931672D01*
X1219200Y923940D02*
Y929574D01*
X1256604Y919988D02*
Y931352D01*
D29*
X434340Y877266D02*
D03*
Y858266D02*
D03*
X369570Y856386D02*
D03*
Y875386D02*
D03*
X316992Y864766D02*
D03*
Y845766D02*
D03*
X504952Y839821D02*
D03*
Y858821D02*
D03*
X765556Y865339D02*
D03*
Y846339D02*
D03*
X721106Y790856D02*
D03*
Y809856D02*
D03*
X686308Y868356D02*
D03*
Y849356D02*
D03*
X658876Y868356D02*
D03*
Y849356D02*
D03*
X779628Y1036098D02*
D03*
Y1017098D02*
D03*
X762048Y965608D02*
D03*
Y984608D02*
D03*
X707238Y1035152D02*
D03*
Y1016152D02*
D03*
D30*
X551868Y876046D02*
D03*
X570868D02*
D03*
D48*
X1241806Y850646D02*
D03*
X1223806D02*
D03*
D61*
X1285414Y920988D02*
D03*
X1299414D02*
D03*
X1355964Y933346D02*
D03*
X1369964D02*
D03*
X1355710Y913638D02*
D03*
X1369710D02*
D03*
X1299414Y933030D02*
D03*
X1285414D02*
D03*
X1174242Y1055210D02*
D03*
X1188242D02*
D03*
X1311290Y958342D02*
D03*
X1297290D02*
D03*
X1415572Y945896D02*
D03*
X1401572D02*
D03*
X1341262Y983854D02*
D03*
X1327262D02*
D03*
X1247506Y1032256D02*
D03*
X1261506D02*
D03*
X1298986Y995922D02*
D03*
X1284986D02*
D03*
X1298986Y1008126D02*
D03*
X1284986D02*
D03*
X1247506Y1044702D02*
D03*
X1261506D02*
D03*
D62*
X1271016Y922932D02*
D03*
Y909932D02*
D03*
X1285494Y958134D02*
D03*
Y945134D02*
D03*
X1401572Y971088D02*
D03*
Y958088D02*
D03*
D63*
X381508Y812596D02*
D03*
Y831596D02*
D03*
X357508D02*
D03*
Y822096D02*
D03*
Y812596D02*
D03*
X381508Y822096D02*
D03*
D64*
X449936Y790956D02*
D03*
X430936D02*
D03*
D65*
X1213670Y953470D02*
D03*
Y959970D02*
D03*
X1259170Y946970D02*
D03*
X1252670D02*
D03*
X1246170D02*
D03*
X1239670D02*
D03*
X1233170D02*
D03*
X1226670D02*
D03*
X1220170D02*
D03*
X1213670D02*
D03*
X1259170Y953470D02*
D03*
X1252670D02*
D03*
X1246170D02*
D03*
X1239670D02*
D03*
X1233170D02*
D03*
X1226670D02*
D03*
X1220170D02*
D03*
X1259170Y959970D02*
D03*
X1252670D02*
D03*
X1246170D02*
D03*
X1239670D02*
D03*
X1233170D02*
D03*
X1226670D02*
D03*
X1220170D02*
D03*
X1259170Y966470D02*
D03*
X1252670D02*
D03*
X1246170D02*
D03*
X1239670D02*
D03*
X1233170D02*
D03*
X1226670D02*
D03*
X1220170D02*
D03*
X1213670D02*
D03*
X1259170Y972970D02*
D03*
X1252670D02*
D03*
X1246170D02*
D03*
X1239670D02*
D03*
X1233170D02*
D03*
X1226670D02*
D03*
X1220170D02*
D03*
X1213670D02*
D03*
X1259170Y979470D02*
D03*
X1252670D02*
D03*
X1246170D02*
D03*
X1239670D02*
D03*
X1233170D02*
D03*
X1226670D02*
D03*
X1220170D02*
D03*
X1213670D02*
D03*
X1259170Y985970D02*
D03*
X1252670D02*
D03*
X1246170D02*
D03*
X1239670D02*
D03*
X1233170D02*
D03*
X1226670D02*
D03*
X1220170D02*
D03*
X1213670D02*
D03*
X1259170Y992470D02*
D03*
X1252670D02*
D03*
X1246170D02*
D03*
X1239670D02*
D03*
X1233170D02*
D03*
X1226670D02*
D03*
X1220170D02*
D03*
X1213670D02*
D03*
D66*
X1256604Y919988D02*
D03*
X1233104D02*
D03*
D67*
X1191222Y1036460D02*
D03*
X1174222D02*
D03*
Y1023460D02*
D03*
X1191222D02*
D03*
D68*
X1026769Y1035571D02*
D03*
X1006769Y1026071D02*
D03*
Y1045071D02*
D03*
X931757Y1036065D02*
D03*
X911757Y1026565D02*
D03*
Y1045565D02*
D03*
D69*
X1118170Y1002540D02*
D03*
Y1012040D02*
D03*
Y1021540D02*
D03*
X1094170D02*
D03*
Y1002540D02*
D03*
X480314Y839266D02*
D03*
Y848766D02*
D03*
Y858266D02*
D03*
X456314D02*
D03*
Y839266D02*
D03*
D70*
X556748Y912887D02*
D03*
D71*
X568178Y913062D02*
D03*
D72*
X570868Y930842D02*
D03*
X557868D02*
D03*
X570868Y894842D02*
D03*
X557868D02*
D03*
X564368D02*
D03*
Y930842D02*
D03*
D73*
X916361Y1067927D02*
D03*
X935361D02*
D03*
X1010970Y1067816D02*
D03*
X1029970D02*
D03*
X1116076Y982472D02*
D03*
X1097076D02*
D03*
X1115822Y1041654D02*
D03*
X1096822D02*
D03*
X1190346Y850542D02*
D03*
X1171346D02*
D03*
X1384758Y846328D02*
D03*
X1365758D02*
D03*
D74*
X886085Y1045525D02*
D03*
Y1026525D02*
D03*
X981049Y1045071D02*
D03*
Y1026071D02*
D03*
X863819Y1045525D02*
D03*
Y1026525D02*
D03*
X958596Y1045071D02*
D03*
Y1026071D02*
D03*
D75*
X316230Y776638D02*
D03*
Y796638D02*
D03*
X475996Y817880D02*
D03*
Y797880D02*
D03*
X694182Y810364D02*
D03*
Y790364D02*
D03*
X748030D02*
D03*
Y810364D02*
D03*
X632206Y868520D02*
D03*
Y848520D02*
D03*
X707898Y984928D02*
D03*
Y964928D02*
D03*
X606044Y848426D02*
D03*
Y868426D02*
D03*
X734568Y965248D02*
D03*
Y985248D02*
D03*
D76*
X450182Y817118D02*
D03*
X430182D02*
D03*
X551470Y849122D02*
D03*
X571470D02*
D03*
X584368Y947674D02*
D03*
X564368D02*
D03*
X707456Y1068832D02*
D03*
X727456D02*
D03*
D77*
X1376950Y945844D02*
D03*
X1389950D02*
D03*
X1338026Y945895D02*
D03*
X1351026D02*
D03*
X1299314Y946150D02*
D03*
X1312314D02*
D03*
X1298598Y971972D02*
D03*
X1285598D02*
D03*
X1370434Y983996D02*
D03*
X1383434D02*
D03*
X1285598Y983996D02*
D03*
X1298598D02*
D03*
X1261044Y1019858D02*
D03*
X1248044D02*
D03*
D78*
X742326Y894839D02*
D03*
X766826D02*
D03*
X755084Y1065634D02*
D03*
X779584D02*
D03*
D79*
X958868Y798586D02*
D03*
D80*
X944118Y783336D02*
D03*
X973618D02*
D03*
D81*
X1419860Y923290D02*
D03*
D82*
X1435110Y908540D02*
D03*
Y938040D02*
D03*
D83*
X269178Y812800D02*
D03*
Y829550D02*
D03*
D84*
Y792050D02*
D03*
Y850300D02*
D03*
D85*
X292178Y796550D02*
D03*
Y845800D02*
D03*
D86*
X295778Y827675D02*
D03*
Y834175D02*
D03*
Y821175D02*
D03*
Y814675D02*
D03*
Y808175D02*
D03*
D87*
X945758Y830246D02*
D03*
X958758D02*
D03*
X971758D02*
D03*
X1023758Y962246D02*
D03*
X1010758D02*
D03*
X997758D02*
D03*
X984758D02*
D03*
X971758D02*
D03*
X958758D02*
D03*
X945758D02*
D03*
D88*
X1053758Y857246D02*
D03*
Y870246D02*
D03*
Y883246D02*
D03*
Y896246D02*
D03*
Y909246D02*
D03*
Y922246D02*
D03*
Y935246D02*
D03*
X915758D02*
D03*
Y922246D02*
D03*
Y909246D02*
D03*
Y896246D02*
D03*
Y883246D02*
D03*
Y870246D02*
D03*
Y857246D02*
D03*
D89*
X1399620Y933210D02*
D03*
X1394620D02*
D03*
X1389620D02*
D03*
Y913210D02*
D03*
X1394620D02*
D03*
X1399620D02*
D03*
D90*
X1384620Y928210D02*
D03*
Y923210D02*
D03*
Y918210D02*
D03*
X1404620D02*
D03*
Y923210D02*
D03*
Y928210D02*
D03*
D91*
X1394620Y923210D02*
D03*
D92*
X742496Y836554D02*
D03*
Y846054D02*
D03*
Y855554D02*
D03*
X717496D02*
D03*
Y836554D02*
D03*
X755298Y1007298D02*
D03*
Y1016798D02*
D03*
Y1026298D02*
D03*
X730298D02*
D03*
Y1007298D02*
D03*
D93*
X684530Y1035050D02*
D03*
X663530Y1024750D02*
D03*
Y1045350D02*
D03*
D94*
X875943Y1067927D02*
D03*
X892943D02*
D03*
X970788Y1067816D02*
D03*
X987788D02*
D03*
D95*
X890778Y843316D02*
D03*
Y857316D02*
D03*
X890778Y923686D02*
D03*
Y909686D02*
D03*
X1363218Y959896D02*
D03*
Y945896D02*
D03*
X1324610Y959895D02*
D03*
Y945895D02*
D03*
X1154318Y1036556D02*
D03*
Y1022556D02*
D03*
X1315212Y920892D02*
D03*
Y906892D02*
D03*
X1399620Y887202D02*
D03*
Y901202D02*
D03*
X1256604Y891144D02*
D03*
Y905144D02*
D03*
X1232941Y891256D02*
D03*
Y905256D02*
D03*
X1401699Y998334D02*
D03*
Y984334D02*
D03*
X1355598Y997996D02*
D03*
Y983996D02*
D03*
X1312672Y997854D02*
D03*
Y983854D02*
D03*
X1079500Y1007638D02*
D03*
Y1021638D02*
D03*
X1174890Y978216D02*
D03*
Y992216D02*
D03*
X1187196Y978378D02*
D03*
Y992378D02*
D03*
X1223622Y1033368D02*
D03*
Y1019368D02*
D03*
X1298956Y1033668D02*
D03*
Y1019668D02*
D03*
X1274572Y1033668D02*
D03*
Y1019668D02*
D03*
X1286764Y1033668D02*
D03*
Y1019668D02*
D03*
X1211052Y1033368D02*
D03*
Y1019368D02*
D03*
X1219200Y909940D02*
D03*
Y923940D02*
D03*
X1207008Y909940D02*
D03*
Y923940D02*
D03*
X1194816Y910052D02*
D03*
Y924052D02*
D03*
X1235932Y1033368D02*
D03*
Y1019368D02*
D03*
D96*
X811276Y848839D02*
D03*
Y894839D02*
D03*
X823468Y1021298D02*
D03*
Y1067298D02*
D03*
D97*
X1241702Y817626D02*
D03*
X1171702D02*
D03*
D98*
X1349898Y887588D02*
X1399620D01*
X1286906Y906892D02*
X1315212D01*
X1330594D01*
X1349898Y887588D01*
X1283866Y909932D02*
X1286906Y906892D01*
X1211052Y1049020D02*
Y1065982D01*
X1223622Y1033368D02*
Y1066744D01*
X1299333Y933827D02*
X1299352Y933808D01*
X1285352D02*
X1285423Y933879D01*
X1400302Y971192D02*
X1401191Y972081D01*
X1400302Y958954D02*
X1400302Y958954D01*
X1094079Y1021589D02*
X1094100Y1021610D01*
X1104227Y915759D02*
Y950468D01*
X1185926Y924052D02*
X1194816D01*
X1177544Y915670D02*
X1185926Y924052D01*
X1177544Y900430D02*
Y915670D01*
X1148455Y1000893D02*
X1159123D01*
X1141222Y1008126D02*
X1148455Y1000893D01*
X1141222Y1008126D02*
Y1081632D01*
X1355598Y997996D02*
Y1015492D01*
X1327262Y983600D02*
X1327262Y983600D01*
X1370434Y983742D02*
X1370434Y983742D01*
X1298598Y983742D02*
X1298669Y983671D01*
X1355456Y983600D02*
X1355598Y983742D01*
X1312601Y983671D02*
X1312672Y983600D01*
X1383434Y983742D02*
X1383546Y983854D01*
X663530Y1056468D02*
X675894Y1068832D01*
X663530Y1045350D02*
Y1056468D01*
X669341Y1035050D02*
X685343Y1051052D01*
X654812Y1035050D02*
X669341D01*
X643636Y1046226D02*
X654812Y1035050D01*
X663530Y1002466D02*
Y1024750D01*
X685343Y1051052D02*
X715518D01*
X663530Y1002466D02*
X666506Y999490D01*
X677418D01*
X678434Y998474D01*
X632714Y1046226D02*
X643636D01*
X1217168Y1057910D02*
Y1066744D01*
X369570Y842010D02*
X382524D01*
X1071714Y883246D02*
X1104227Y915759D01*
X1053758Y883246D02*
X1071714D01*
X1084876Y870246D02*
X1117354Y902724D01*
Y928432D01*
X398780Y858266D02*
X434340D01*
X475996Y777610D02*
Y797880D01*
X471054Y772668D02*
X475996Y777610D01*
X453390Y772668D02*
X471054D01*
X449580Y776478D02*
X453390Y772668D01*
X449580Y776478D02*
Y790600D01*
X449936Y790956D01*
X415798Y796798D02*
Y858012D01*
Y796798D02*
X421640Y790956D01*
X935361Y1052709D02*
Y1067927D01*
X931757Y1049105D02*
X935361Y1052709D01*
X931757Y1036065D02*
Y1049105D01*
X1029970Y1052830D02*
Y1067816D01*
X1026081Y1048941D02*
X1029970Y1052830D01*
X1026081Y1037756D02*
Y1048941D01*
X937768Y995530D02*
Y1020572D01*
X931775Y1026565D02*
X937768Y1020572D01*
X911757Y1026565D02*
X931775D01*
X1030986Y995784D02*
Y1020395D01*
X1025309Y1026071D02*
X1030986Y1020395D01*
X1006769Y1026071D02*
X1025309D01*
X1132586Y1025398D02*
Y1032764D01*
X1128798Y1021610D02*
X1132586Y1025398D01*
X1131316Y1005840D02*
Y1012444D01*
X1128036Y1002560D02*
X1131316Y1005840D01*
X1118190Y1002560D02*
X1128036D01*
X1118240Y1021610D02*
X1128798D01*
X730298Y1026298D02*
Y1032208D01*
X311150Y779686D02*
X313756Y777080D01*
X719328Y984928D02*
Y1005182D01*
X610108Y900430D02*
X688340D01*
X588010Y878332D02*
X610108Y900430D01*
X542726Y825500D02*
X571470D01*
Y849122D01*
Y803940D02*
Y825500D01*
X911757Y962397D02*
Y995530D01*
X1061212Y1001522D02*
Y1098042D01*
X981049Y1045071D02*
X1006769D01*
X886085Y1045525D02*
X886125Y1045565D01*
X911757D01*
X705578Y856014D02*
X717036D01*
X702564Y859028D02*
X705578Y856014D01*
X702564Y859028D02*
Y865378D01*
X699586Y868356D02*
X702564Y865378D01*
X686308Y868356D02*
X699586D01*
X632206Y868520D02*
Y889762D01*
X588010Y848614D02*
Y878332D01*
Y829818D02*
Y848614D01*
X605856D01*
X583692Y825500D02*
X588010Y829818D01*
X571470Y825500D02*
X583692D01*
X727318Y1035188D02*
X730298Y1032208D01*
X721614Y1035188D02*
X727318D01*
X721614D02*
Y1044956D01*
X715518Y1051052D02*
X721614Y1044956D01*
X707238Y1035188D02*
X721614D01*
X1069350Y909246D02*
X1088136Y928032D01*
X1053758Y909246D02*
X1069350D01*
X1088136Y928032D02*
Y950468D01*
X1115822Y1032256D02*
Y1041654D01*
Y1032256D02*
X1118362Y1029716D01*
Y1021732D02*
Y1029716D01*
X1097076Y1032438D02*
Y1041400D01*
X1094100Y1029462D02*
X1097076Y1032438D01*
X1094100Y1021610D02*
Y1029462D01*
X1079549Y1021589D02*
X1094079D01*
X1118798Y993902D02*
Y1001912D01*
X1115822Y990926D02*
X1118798Y993902D01*
X1115822Y982726D02*
Y990926D01*
Y982726D02*
X1116076Y982472D01*
X1075182Y928078D02*
Y949706D01*
X1069350Y922246D02*
X1075182Y928078D01*
X1053758Y922246D02*
X1069350D01*
X1053758Y870246D02*
X1084876D01*
X1118170Y1002540D02*
X1118798Y1001912D01*
X1118170Y1002540D02*
X1118190Y1002560D01*
X1211052Y1033368D02*
Y1049020D01*
X1219200Y923940D02*
X1219700D01*
X1118240Y1021610D02*
X1118362Y1021732D01*
X1118170Y1021540D02*
X1118240Y1021610D01*
X369570Y842010D02*
Y856386D01*
X369570Y856386D01*
X1061212Y993648D02*
X1093084D01*
X421640Y790956D02*
X430936D01*
X1285113Y995807D02*
Y1007999D01*
X1086265Y1009098D02*
X1089207Y1012040D01*
X1080960Y1009098D02*
X1086265D01*
X1079500Y1007638D02*
X1080960Y1009098D01*
X1089207Y1012040D02*
X1118170D01*
X1073058Y1007638D02*
X1079500D01*
X1068832Y1011864D02*
X1073058Y1007638D01*
X1073404Y1052180D02*
Y1061974D01*
X1068832Y1047608D02*
X1073404Y1052180D01*
X1068832Y1011864D02*
Y1047608D01*
X1274572Y1033668D02*
Y1065982D01*
X1247506Y1044702D02*
Y1065982D01*
X1093084Y993648D02*
X1097076Y989656D01*
Y982472D02*
Y989656D01*
X1235932Y1033368D02*
Y1066744D01*
X1284986Y1008126D02*
X1285113Y1007999D01*
Y996061D02*
X1285240Y995934D01*
X1325245Y946023D02*
X1325372Y945896D01*
X1312314Y946150D02*
X1312441Y946023D01*
X1299314Y946150D02*
X1299333Y946131D01*
X1285423Y945929D02*
X1285494Y946000D01*
X1174222Y1036460D02*
Y1055190D01*
X1271016Y909932D02*
X1283866D01*
X1096822Y1041654D02*
X1097076Y1041400D01*
X675894Y1068832D02*
X707456D01*
X726898Y1057048D02*
X742696Y1041250D01*
X726898Y1057048D02*
Y1062332D01*
X453898Y901560D02*
X454660Y900798D01*
Y877266D02*
Y900798D01*
X490982Y868172D02*
X497332Y874522D01*
X490982Y858266D02*
Y868172D01*
Y858266D02*
X502412D01*
X497332Y874522D02*
X517398D01*
X529590Y862330D01*
Y838636D02*
Y862330D01*
Y838636D02*
X542726Y825500D01*
X480314Y858266D02*
X490728D01*
X382524Y842010D02*
X398780Y858266D01*
X434340D02*
X456314D01*
X477338Y819222D02*
Y830001D01*
X475996Y817880D02*
X477338Y819222D01*
Y830001D02*
X480314Y832977D01*
Y839266D01*
X449936Y790956D02*
X450182Y791202D01*
X742696Y1010190D02*
Y1041250D01*
Y1010190D02*
X745672Y1007214D01*
X755214D01*
X755298Y1007298D01*
X742496Y846054D02*
X765271D01*
X765556Y846339D01*
X754838Y1007758D02*
X755298Y1007298D01*
X719328Y1005182D02*
X721614Y1007468D01*
X730128D01*
X730298Y1007298D01*
X1154318Y1022556D02*
X1163208D01*
X1164112Y1023460D01*
X1174222D01*
X1191222Y1036460D02*
Y1044722D01*
X1188242Y1047702D02*
X1191222Y1044722D01*
X1188242Y1047702D02*
Y1055210D01*
X1174222Y1055190D02*
X1174242Y1055210D01*
D99*
X1314958Y920976D02*
X1315210Y920981D01*
X1315164Y920940D02*
X1315212Y920892D01*
X1299462Y920940D02*
X1315164D01*
X1299414Y920988D02*
X1299462Y920940D01*
X1341882Y923290D02*
X1355598D01*
X1331580D02*
X1341882D01*
Y913290D02*
Y923290D01*
X1299113Y996061D02*
X1299240Y995934D01*
X1329237Y920947D02*
X1331580Y923290D01*
X1315267Y920947D02*
X1329237D01*
X1315212Y920892D02*
X1315267Y920947D01*
X1299333Y933827D02*
Y946131D01*
X1285423Y933879D02*
Y945929D01*
X1285352Y921512D02*
Y933808D01*
X1355710Y913638D02*
Y933092D01*
X1297215Y958925D02*
X1297290Y958850D01*
X1285569Y958925D02*
X1297215D01*
X1312811Y968756D02*
X1325372D01*
X1311290Y967234D02*
X1312811Y968756D01*
X1325372Y959896D02*
Y968756D01*
X1311290Y958850D02*
Y967234D01*
X1435110Y938040D02*
Y1003290D01*
X1312672Y997854D02*
Y1015492D01*
X1262556Y1066744D02*
X1286002D01*
X1235932D02*
X1262556D01*
X1174130D02*
X1217168D01*
X1299113Y996061D02*
Y1007999D01*
X1298986Y1008126D02*
X1299113Y1007999D01*
X1285494Y959000D02*
Y971972D01*
X1401635Y984270D02*
X1401699Y984334D01*
X1401635Y971152D02*
Y984270D01*
X1401572Y971088D02*
X1401635Y971152D01*
X1400302Y958954D02*
X1401572Y957684D01*
Y945896D02*
Y957684D01*
Y945896D02*
X1401572Y945896D01*
X1401700Y1015492D02*
X1422908D01*
X1355598D02*
X1401700D01*
X1401699Y1015491D02*
X1401700Y1015492D01*
X1401699Y998334D02*
Y1015491D01*
X1400302Y958954D02*
X1401318Y957938D01*
X1363218Y945896D02*
X1376950D01*
X1350818D02*
X1363218D01*
X502412Y839266D02*
X504952Y836726D01*
X1174750Y964946D02*
X1185871Y976067D01*
Y977553D01*
X1186696Y978378D01*
X1187196D01*
X1317498Y846582D02*
X1365758D01*
X1298956Y1033668D02*
X1312672D01*
X1261044Y1019858D02*
Y1044240D01*
X1286764Y1019668D02*
X1297686D01*
X1274572D02*
X1286764D01*
X1273302D02*
X1274572D01*
X1285494Y1066236D02*
X1286002Y1066744D01*
X1299248D01*
X1312672Y1053320D01*
Y1034288D02*
Y1053320D01*
Y997600D02*
Y997854D01*
X707100Y1035050D02*
X707238Y1035188D01*
X1355598Y983742D02*
X1370434D01*
X1383546Y984108D02*
X1401191D01*
X1174750Y964946D02*
Y978076D01*
X1174890Y978216D01*
X1208532Y1081350D02*
X1208532Y1081350D01*
X1218694Y1081307D02*
X1219708Y1082321D01*
X573024Y1125728D02*
X799338D01*
X556260Y1108964D02*
X573024Y1125728D01*
X556260Y1088644D02*
Y1108964D01*
X1217168Y1066744D02*
X1223622D01*
X971758Y830246D02*
Y842818D01*
X967740Y846836D02*
X971758Y842818D01*
X948436Y846836D02*
X967740D01*
X945758Y844158D02*
X948436Y846836D01*
X945758Y830246D02*
Y844158D01*
X984504Y937768D02*
Y961992D01*
X984758Y962246D01*
X997758Y945596D02*
Y962246D01*
X937768Y995530D02*
X981368D01*
X911757D02*
X937768D01*
X1050036Y1005214D02*
Y1061730D01*
X1040352Y995530D02*
X1050036Y1005214D01*
X1031240Y995530D02*
X1040352D01*
X730250Y850392D02*
Y873506D01*
X720852Y882904D02*
X730250Y873506D01*
X720852Y882904D02*
Y939396D01*
X1282192Y871474D02*
X1283208Y870458D01*
X571470Y803940D02*
X571500Y803910D01*
X981368Y995530D02*
X1031240D01*
X981049Y995849D02*
X981368Y995530D01*
X981049Y995849D02*
Y1026071D01*
X911606Y962246D02*
X945758D01*
X900016D02*
X911606D01*
X911757Y962397D01*
X885698Y995530D02*
X911757D01*
X823468D02*
X885698D01*
X886085Y995917D01*
Y1026525D01*
X915758Y857246D02*
Y870246D01*
X1194872Y923996D02*
X1206952D01*
X1194816Y924052D02*
X1194872Y923996D01*
X1096822Y1041654D02*
Y1098042D01*
X969772Y1101344D02*
X970788Y1100328D01*
Y1067816D02*
Y1100328D01*
X958596Y1045071D02*
X981049D01*
X987788Y1067816D02*
X1010970D01*
X958596Y1006764D02*
X958758Y1006602D01*
X958596Y1006764D02*
Y1026071D01*
X863819Y1026525D02*
X863978Y1026366D01*
Y1008126D02*
Y1026366D01*
X892943Y1067927D02*
X916361D01*
X863819Y1045525D02*
X886085D01*
X875538Y1101344D02*
X875943Y1100939D01*
Y1067927D02*
Y1100939D01*
X832104Y1134364D02*
X1150112D01*
X810260Y1112520D02*
X832104Y1134364D01*
X695960Y1112520D02*
X810260D01*
X824230Y1150620D02*
Y1180846D01*
X799338Y1125728D02*
X824230Y1150620D01*
X682244Y1098804D02*
X695960Y1112520D01*
X1165098Y1102360D02*
Y1119378D01*
X1150112Y1134364D02*
X1165098Y1119378D01*
X891286Y814324D02*
X945758D01*
X811276D02*
X891286D01*
X890778Y814832D02*
X891286Y814324D01*
X890778Y814832D02*
Y843316D01*
X725932Y846074D02*
X730250Y850392D01*
X707808Y846074D02*
X725932D01*
X702818Y841084D02*
X707808Y846074D01*
X702818Y832014D02*
Y841084D01*
X697828Y827024D02*
X702818Y832014D01*
X680720Y827024D02*
X697828D01*
X658806D02*
Y834046D01*
X632206Y827024D02*
X658806D01*
X680720D01*
X686308Y832612D01*
Y849356D01*
X658876Y834116D02*
Y849356D01*
X658806Y834046D02*
X658876Y834116D01*
X632206Y827024D02*
Y841408D01*
X625348Y827024D02*
X632206D01*
X617982Y819658D02*
X625348Y827024D01*
X617982Y753110D02*
Y819658D01*
X605856Y848614D02*
X606044Y848426D01*
X1230888Y1081256D02*
Y1094490D01*
X1141222Y845162D02*
Y871474D01*
X1048154Y752094D02*
X1141222Y845162D01*
X900176Y752094D02*
X1048154D01*
X1262556Y1057148D02*
Y1066744D01*
X1141222Y947420D02*
X1158748Y964946D01*
X1141222Y871474D02*
Y947420D01*
Y871474D02*
X1194562D01*
X1158748Y964946D02*
X1174750D01*
X944206Y883246D02*
X944372Y883412D01*
X1223622Y1019368D02*
X1235932D01*
X1358646Y871474D02*
X1425214D01*
X1282192D02*
X1358646D01*
X1355710Y933092D02*
X1355964Y933346D01*
X1360424Y968756D02*
X1363218Y965962D01*
Y959896D02*
Y965962D01*
X1344422Y968756D02*
X1360424D01*
X1325372D02*
X1344422D01*
X1334770Y1015492D02*
X1355598D01*
X1312672D02*
X1334770D01*
Y1002792D02*
Y1015492D01*
X1312672D02*
Y1033668D01*
X1286764D02*
Y1066236D01*
X369570Y901306D02*
X369824Y901560D01*
X369570Y875386D02*
Y901306D01*
X890778Y909976D02*
X891508Y909246D01*
X915758Y883246D02*
X944206D01*
X944344Y922246D02*
X944372Y922274D01*
X915758Y922246D02*
X944344D01*
X946654Y857246D02*
X1061212Y971804D01*
Y993648D01*
Y1001522D01*
X915758Y857246D02*
X946654D01*
X890778Y857316D02*
X914400D01*
X1033776Y857246D02*
X1053758D01*
X1026414Y849884D02*
X1033776Y857246D01*
X1026414Y831342D02*
Y849884D01*
X1009396Y814324D02*
X1026414Y831342D01*
X971758Y814324D02*
Y830246D01*
Y811106D02*
Y814324D01*
X1009396D01*
X945758D02*
Y830246D01*
Y810006D02*
Y814324D01*
X1425214Y871474D02*
X1435110Y881370D01*
X1422908Y1015492D02*
X1435110Y1003290D01*
X1206952Y923996D02*
X1207008Y923940D01*
X1223622Y1066744D02*
X1235932D01*
X1298986Y1008126D02*
X1309878D01*
X1261044Y1044240D02*
X1261506Y1044702D01*
X1204162Y850594D02*
X1204214Y850646D01*
X1190346Y850542D02*
X1190398Y850594D01*
X1171702Y817626D02*
Y850126D01*
X1172222Y850646D01*
X1256604Y905144D02*
Y919988D01*
X1233023Y919907D02*
X1233104Y919988D01*
X1233023Y905337D02*
Y919907D01*
X1232941Y905256D02*
X1233023Y905337D01*
X1435110Y881370D02*
Y908540D01*
X1325372Y945896D02*
X1337818D01*
X1256284Y871474D02*
X1266698D01*
X1232662D02*
X1256284D01*
X1256604Y871794D01*
Y891144D01*
X1218692Y871474D02*
X1232662D01*
X1232941Y871753D01*
Y891256D01*
X1207262Y871474D02*
X1218692D01*
X1219200Y871982D01*
Y909940D01*
X1194562Y871474D02*
X1207262D01*
X1207008Y871728D02*
X1207262Y871474D01*
X1207008Y871728D02*
Y909940D01*
X1194562Y871474D02*
X1194816Y871728D01*
Y910052D01*
X1308608Y837692D02*
X1317498Y846582D01*
X1308608Y819476D02*
Y837692D01*
X1213739Y827659D02*
X1223518Y837438D01*
X1206373Y827659D02*
X1213739D01*
X1196340Y817626D02*
X1206373Y827659D01*
X1223518Y837438D02*
Y850358D01*
X1223806Y850646D01*
X1171702Y817626D02*
X1196340D01*
X1266698Y871474D02*
X1282192D01*
X1241702Y834390D02*
Y850542D01*
Y817626D02*
Y834390D01*
X1266698Y840232D02*
Y871474D01*
X1260856Y834390D02*
X1266698Y840232D01*
X1241702Y834390D02*
X1260856D01*
X1241702Y850542D02*
X1241806Y850646D01*
X1167582Y1066744D02*
X1174130D01*
X1154318Y1053480D02*
X1167582Y1066744D01*
X1312441Y946023D02*
X1325245D01*
X1298598Y971296D02*
Y983742D01*
X1154318Y1036556D02*
Y1053480D01*
X1435110Y908540D02*
Y936216D01*
X1341262Y983854D02*
X1355456D01*
X1312672Y983854D02*
X1327262D01*
X1298669Y983925D02*
X1312601D01*
X810514Y824842D02*
X811276D01*
X890778Y935736D02*
Y953008D01*
Y923686D02*
Y935736D01*
Y953008D02*
X900016Y962246D01*
X844550Y924560D02*
X859424Y909686D01*
X804164Y924560D02*
X844550D01*
X790194Y910590D02*
X804164Y924560D01*
X790194Y894839D02*
Y910590D01*
X859424Y909686D02*
X890778D01*
X504952Y816102D02*
Y836726D01*
Y816102D02*
X517144Y803910D01*
X551500D01*
X742326Y894839D02*
X742496Y894669D01*
X779526Y1016996D02*
X779628Y1017098D01*
X779328Y1016798D02*
X779526Y1016996D01*
X755128Y1067598D02*
X755298Y1067428D01*
X1285494Y959000D02*
X1285569Y958925D01*
X890778Y935736D02*
X915268D01*
X915758Y935246D01*
X890778Y923686D02*
X890778Y923686D01*
X891508Y909246D02*
X915758D01*
X973618Y783336D02*
Y809246D01*
X971758Y811106D02*
X973618Y809246D01*
X944118Y808366D02*
X945758Y810006D01*
X944118Y783336D02*
Y808366D01*
X958868Y798586D02*
Y830136D01*
D100*
X1433050Y938276D02*
X1435110Y936216D01*
X1411866Y915546D02*
X1418873Y908540D01*
X1435110D01*
X1415572Y956848D02*
X1420622Y961898D01*
X1415572Y945896D02*
Y956848D01*
X1420622Y961898D02*
X1434846D01*
X1419596Y938276D02*
X1433050D01*
X1412110Y930790D02*
X1419596Y938276D01*
X542262Y893826D02*
X543278Y894842D01*
X542262Y893826D02*
X542519Y893569D01*
X371704Y822096D02*
X381508D01*
X369062Y824738D02*
X371704Y822096D01*
X369062Y824738D02*
Y842010D01*
X369570D01*
X339598D02*
X369062D01*
X336857Y776638D02*
Y808175D01*
Y769567D02*
Y776638D01*
X316230D02*
X336857D01*
Y808175D02*
Y816356D01*
X331763Y834175D02*
X339598Y842010D01*
X336857Y816356D02*
X342597Y822096D01*
X308102Y808175D02*
X336857D01*
X342597Y822096D02*
X357508D01*
X295778Y834175D02*
X331763D01*
X1389634Y898906D02*
Y906272D01*
X295778Y808175D02*
X308102D01*
X308637Y808710D01*
X306038Y814675D02*
X308637Y812076D01*
X295778Y814675D02*
X306038D01*
X354330Y752094D02*
X396240D01*
X1030986Y995784D02*
X1031240Y995530D01*
X1385824Y895096D02*
X1389634Y898906D01*
X1359774Y895096D02*
X1385824D01*
X1355710Y899160D02*
X1359774Y895096D01*
X1355710Y899160D02*
Y913638D01*
X308637Y808710D02*
Y812076D01*
X336857Y769567D02*
X354330Y752094D01*
X735076Y810364D02*
Y828548D01*
X1257808Y938276D02*
X1261364Y934720D01*
X1200912Y1045210D02*
X1204722Y1049020D01*
X1200912Y1025525D02*
Y1045210D01*
X1198847Y1023460D02*
X1200912Y1025525D01*
X1191222Y1023460D02*
X1198847D01*
X1204722Y1049020D02*
X1211052D01*
X480314Y848766D02*
X480466Y848614D01*
X488950D01*
X492506Y845058D01*
Y752602D02*
Y845058D01*
X1247506Y1032256D02*
Y1044702D01*
X1174130Y1055322D02*
Y1066744D01*
Y1055322D02*
X1174242Y1055210D01*
X745132Y824842D02*
X751586D01*
X742950Y827024D02*
X745132Y824842D01*
X742950Y827024D02*
Y836100D01*
X742496Y836554D02*
X742950Y836100D01*
X454660Y877266D02*
X462076D01*
X434340D02*
X454660D01*
X551868Y876046D02*
X553212Y877390D01*
X727202Y836422D02*
X735076Y828548D01*
X717628Y836422D02*
X727202D01*
X717496Y836554D02*
X717628Y836422D01*
X463987Y830001D02*
X468884Y834898D01*
X453065Y830001D02*
X463987D01*
X450182Y827118D02*
X453065Y830001D01*
X450182Y817118D02*
Y827118D01*
X438068Y839266D02*
X456314D01*
X430182Y831380D02*
X438068Y839266D01*
X430182Y817118D02*
Y831380D01*
X468884Y848360D02*
Y870458D01*
Y834898D02*
Y848360D01*
X479908D01*
X480314Y848766D01*
X462076Y877266D02*
X468884Y870458D01*
D101*
X685704Y1016188D02*
X707238D01*
X692912Y752094D02*
X900176D01*
X396240D02*
X692912D01*
X606044Y868426D02*
X658806D01*
X631444Y973328D02*
X632714Y972058D01*
X631444Y973328D02*
Y1025350D01*
X584368Y972058D02*
X632714D01*
X678434Y1008919D02*
X685704Y1016188D01*
X678434Y998474D02*
Y1008919D01*
Y984250D02*
Y998474D01*
X803148Y1082548D02*
Y1096772D01*
Y1065634D02*
Y1082548D01*
X832358Y1101344D02*
X875538D01*
X1138076Y1081643D02*
X1141222Y1081632D01*
X823468Y1063400D02*
Y1063984D01*
X821818Y1065634D02*
X823468Y1063984D01*
X316992Y889000D02*
X329552Y901560D01*
X316992Y864766D02*
Y889000D01*
X329552Y901560D02*
X369824D01*
X292222Y796594D02*
X316186D01*
X316230Y796638D01*
X292178Y796550D02*
X292222Y796594D01*
X316975Y845783D02*
X316992Y845766D01*
X292195Y845783D02*
X316975D01*
X292178Y845800D02*
X292195Y845783D01*
X713342Y939396D02*
X720852D01*
X707390Y945348D02*
Y964420D01*
X707898Y964928D01*
X707390Y945348D02*
X713342Y939396D01*
X1283208Y819476D02*
Y870458D01*
X720852Y939396D02*
X789432D01*
X707898Y984928D02*
X719328D01*
X761728D02*
X762048Y984608D01*
X719328Y984928D02*
X761728D01*
X658806Y868426D02*
X658876Y868356D01*
X735076Y810364D02*
X748030D01*
X694182D02*
X735076D01*
X747784Y790610D02*
X748030Y790364D01*
X721352Y790610D02*
X747784D01*
X721106Y790856D02*
X721352Y790610D01*
X748030Y790364D02*
X774446D01*
X692912Y752094D02*
X694182Y753364D01*
Y790364D01*
X551868Y849520D02*
Y876046D01*
X551470Y849122D02*
X551868Y849520D01*
X540766Y972058D02*
X584368D01*
Y947674D02*
Y972058D01*
X969772Y1101344D02*
X1114552D01*
X666242Y972058D02*
X678434Y984250D01*
X632714Y972058D02*
X666242D01*
X1114552Y1101344D02*
X1134240Y1081656D01*
X875538Y1101344D02*
X969772D01*
X823468Y973432D02*
Y995530D01*
Y1092454D02*
X832358Y1101344D01*
X823468Y1067298D02*
Y1092454D01*
X811276Y814324D02*
Y824842D01*
Y753618D02*
Y814324D01*
X1134240Y1081656D02*
X1141222Y1081632D01*
X1218694Y1081307D02*
X1230888Y1081256D01*
X1208532Y1081350D02*
X1218694Y1081307D01*
X1141222Y1081632D02*
X1208532Y1081350D01*
X1242822Y1081206D02*
X1411224Y1081786D01*
X1474724Y1018286D01*
X1230888Y1081256D02*
X1242822Y1081206D01*
X369824Y901560D02*
X453898D01*
X765556Y893569D02*
X766826Y894839D01*
X765556Y865339D02*
Y893569D01*
X1474724Y854456D02*
Y1018286D01*
X1439744Y819476D02*
X1474724Y854456D01*
X1384808Y819476D02*
X1439744D01*
X811276Y824842D02*
Y848839D01*
X453898Y901560D02*
X470268D01*
X540766Y972058D01*
X273353Y845800D02*
X292178D01*
X269178Y849975D02*
X273353Y845800D01*
Y796550D02*
X292178D01*
X269178Y792375D02*
X273353Y796550D01*
X269178Y792375D02*
Y812800D01*
Y792050D02*
Y792375D01*
Y829550D02*
Y849975D01*
Y850300D01*
Y812800D02*
Y829550D01*
X790194Y894839D02*
X811276D01*
X766826D02*
X790194D01*
Y874626D02*
Y894839D01*
X772996Y824842D02*
X810514D01*
X765556Y832281D02*
X772996Y824842D01*
X765556Y832281D02*
Y846339D01*
X803148Y1065634D02*
X821818D01*
X779584D02*
X803148D01*
Y1044688D02*
Y1065634D01*
X823468Y995530D02*
Y1021298D01*
X786965Y995530D02*
X823468D01*
X779526Y1002970D02*
X786965Y995530D01*
X779526Y1002970D02*
Y1016996D01*
X794558Y1036098D02*
X803148Y1044688D01*
X779628Y1036098D02*
X794558D01*
X762352Y965304D02*
X789940D01*
X762048Y965608D02*
X762352Y965304D01*
X789432Y939396D02*
X823468Y973432D01*
X761868Y965428D02*
X762048Y965608D01*
X734748Y965428D02*
X761868D01*
X734568Y965248D02*
X734748Y965428D01*
D102*
X1259124Y953516D02*
X1267226D01*
X1274742Y946000D02*
X1285494D01*
X1272286Y983742D02*
X1285598D01*
X1268014Y979470D02*
X1272286Y983742D01*
X1236420Y982753D02*
Y982785D01*
Y982753D02*
X1239670Y979503D01*
X1230169Y982405D02*
X1230202D01*
X1233137Y979470D01*
X1193753Y963262D02*
X1216878D01*
X1185277Y954786D02*
X1193753Y963262D01*
X1181100Y954786D02*
X1185277D01*
X1192530Y966470D02*
X1213670D01*
X1186514Y960454D02*
X1192530Y966470D01*
X1182820Y960454D02*
X1186514D01*
X1216878Y963262D02*
X1220170Y959970D01*
X1207978Y979470D02*
X1213670D01*
X1206246Y981202D02*
X1207978Y979470D01*
X1201420Y981202D02*
X1206246D01*
X1207920Y972970D02*
X1213670D01*
X1206246Y971296D02*
X1207920Y972970D01*
X1201420Y971296D02*
X1206246D01*
X1196788Y976262D02*
X1216878D01*
X1213618Y973022D02*
X1213670Y972970D01*
X1229855Y956720D02*
X1229887D01*
X1252670Y959708D02*
Y959970D01*
X1259116D02*
X1259170D01*
X1236420Y976253D02*
Y976285D01*
X1233170Y973003D02*
X1236420Y976253D01*
X1233170Y972970D02*
Y973003D01*
X1229887Y956720D02*
X1233137Y959970D01*
X1233170D01*
X1236420Y963253D02*
Y963285D01*
Y963253D02*
X1239670Y960003D01*
Y959970D02*
Y960003D01*
X1249420Y963253D02*
Y963285D01*
X1246170Y960003D02*
X1249420Y963253D01*
X1246170Y959970D02*
Y960003D01*
X1243076Y963422D02*
X1243122D01*
X1246170Y966470D01*
X1239670Y979470D02*
Y979503D01*
X1242943Y976220D02*
X1242966D01*
X1239670Y972970D02*
X1239693D01*
X1242943Y976220D01*
X1229975Y963340D02*
X1230007D01*
X1233137Y966470D01*
X1233170D01*
X1223598Y982509D02*
X1226637Y979470D01*
X1223462Y976122D02*
X1223518D01*
X1216962Y969678D02*
Y969744D01*
X1233137Y979470D02*
X1233170D01*
X1242920Y969753D02*
Y969785D01*
X1239670Y966503D02*
X1242920Y969753D01*
X1255785Y963388D02*
X1255818D01*
X1252703Y966470D02*
X1255785Y963388D01*
X1252670Y966470D02*
X1252703D01*
X1239670D02*
Y966503D01*
X1223518Y976122D02*
X1226670Y972970D01*
X1216962Y969678D02*
X1220170Y966470D01*
X1246170Y979470D02*
X1249426Y982726D01*
X1216878Y976262D02*
X1220170Y972970D01*
X1246199D02*
X1249143Y970026D01*
X1228852Y1009904D02*
X1239670Y999086D01*
Y992470D02*
Y999086D01*
X1213358Y1009904D02*
X1228852D01*
X1252670Y995922D02*
X1255158Y998410D01*
X1252670Y992470D02*
Y995922D01*
X1255158Y998410D02*
X1265872D01*
X1211052Y1012210D02*
Y1019368D01*
Y1012210D02*
X1213358Y1009904D01*
X1267226Y953516D02*
X1274742Y946000D01*
X1259170Y979470D02*
X1268014D01*
X1259170Y946970D02*
X1271016Y935124D01*
X1268222Y996061D02*
X1285113D01*
X1265872Y998410D02*
X1268222Y996061D01*
X1271016Y922932D02*
Y935124D01*
D103*
X1404620Y918210D02*
X1409203D01*
X1394620Y923210D02*
X1394620Y923210D01*
Y923210D01*
Y913210D02*
Y923210D01*
X1409530Y928210D02*
X1412110Y930790D01*
X1404620Y928210D02*
X1409530D01*
X1389620Y906272D02*
Y913210D01*
X1394620Y923210D02*
Y933210D01*
D104*
X1409203Y918210D02*
X1411866Y915546D01*
X1394620Y923210D02*
X1394794Y923036D01*
D105*
X1401572Y938939D02*
Y945896D01*
X1399620Y936987D02*
X1401572Y938939D01*
X1399620Y933210D02*
Y936987D01*
X1183583Y1036460D02*
X1191222D01*
X1182624Y1035501D02*
X1183583Y1036460D01*
X1182624Y1017859D02*
Y1035501D01*
X1209842Y1005840D02*
X1217948D01*
X1200826Y1014856D02*
X1209842Y1005840D01*
X1185627Y1014856D02*
X1200826D01*
X1217948Y1005840D02*
X1226670Y997118D01*
X1216214Y1001085D02*
X1220170Y997129D01*
X1208715Y1001085D02*
X1216214D01*
X1199668Y1010132D02*
X1208715Y1001085D01*
X1220170Y992470D02*
Y997129D01*
X1178586Y1010132D02*
X1199668D01*
X1174222Y1014496D02*
X1178586Y1010132D01*
X1379615Y918210D02*
X1384620D01*
X1377188Y915783D02*
X1379615Y918210D01*
X1377188Y913130D02*
Y915783D01*
X1253188Y979988D02*
Y985452D01*
X1252670Y979470D02*
X1253188Y979988D01*
X1252670Y985970D02*
X1253188Y985452D01*
X1246688Y986488D02*
X1252152D01*
X1246311Y986111D02*
X1246688Y986488D01*
X1252152D02*
X1252529Y986111D01*
X1404620Y923210D02*
X1419780D01*
X1419860Y923290D01*
X1252670Y979221D02*
Y979470D01*
X1226670Y992470D02*
Y997118D01*
X1182624Y1017859D02*
X1185627Y1014856D01*
X1174222Y1014496D02*
Y1023460D01*
X1372250Y913130D02*
X1377188D01*
Y904240D02*
Y913130D01*
X1378204Y928116D02*
X1378298Y928210D01*
X1375838Y923210D02*
X1384620D01*
X1375664Y923036D02*
X1375838Y923210D01*
X1378298Y928210D02*
X1384620D01*
X1372998Y933210D02*
X1389620D01*
X1372504Y933704D02*
X1372998Y933210D01*
X1388664Y938888D02*
Y945896D01*
X1399620Y913210D02*
X1399620Y913210D01*
X1399620Y901202D02*
Y913210D01*
X1388664Y938888D02*
X1389620Y937932D01*
Y933210D02*
Y937932D01*
D106*
X550418Y894842D02*
X557868D01*
X549145Y893569D02*
X550418Y894842D01*
X557773Y894937D02*
Y900675D01*
X556368Y902080D02*
X557773Y900675D01*
Y894937D02*
X557868Y894842D01*
X1242822Y1006856D02*
X1246476D01*
X1199388Y993140D02*
Y997287D01*
X1195782Y1000893D02*
X1199388Y997287D01*
X1159123Y1000893D02*
X1195782D01*
X570868Y876046D02*
Y893064D01*
X542519Y893569D02*
X549145D01*
X555593Y887730D02*
X561987D01*
X553212Y885349D02*
X555593Y887730D01*
X564368Y890111D02*
Y894842D01*
X553212Y877390D02*
Y885349D01*
X561987Y887730D02*
X564368Y890111D01*
X1238016Y1007110D02*
X1242822D01*
X1235932Y1009194D02*
X1238016Y1007110D01*
X571246Y887984D02*
X579374D01*
X1246476Y1006856D02*
X1248044Y1008424D01*
X1235932Y1009194D02*
Y1019368D01*
X584368Y934224D02*
Y947674D01*
X580986Y930842D02*
X584368Y934224D01*
X1248044Y1008424D02*
Y1019858D01*
X579374Y887984D02*
X584454Y893064D01*
X570868Y930842D02*
X580986D01*
X564368D02*
Y947675D01*
D107*
X557868Y924790D02*
Y930842D01*
X556748Y923670D02*
X557868Y924790D01*
D108*
X1226740Y986040D02*
X1233100D01*
X1226670Y985970D02*
X1226740Y986040D01*
X1233100D02*
X1233170Y985970D01*
X1226496Y986144D02*
X1226670Y985970D01*
X1220344Y986144D02*
X1226496D01*
X1220170Y985970D02*
X1220344Y986144D01*
X1246170Y985970D02*
X1246311Y986111D01*
X1252529D02*
X1252670Y985970D01*
D109*
X1384808Y819476D02*
Y846328D01*
X1190398Y850594D02*
X1204162D01*
D110*
X684530Y1035050D02*
X707100D01*
X755298Y1067428D02*
Y1067598D01*
Y1026298D02*
Y1067428D01*
X717036Y856014D02*
Y871734D01*
X688340Y900430D02*
X717036Y871734D01*
X742496Y855554D02*
Y894669D01*
X755298Y1016798D02*
X779328D01*
D111*
X346202Y812292D02*
X357204D01*
X357508Y812596D01*
X342392Y831342D02*
X357378D01*
X332225Y821175D02*
X342392Y831342D01*
X295778Y821175D02*
X332225D01*
X293635Y827532D02*
X329184D01*
X292476Y821175D02*
X295778D01*
X296429Y827024D02*
X296937Y827532D01*
X295778Y827675D02*
X296429Y827024D01*
D112*
X1216971Y956735D02*
X1216998Y956762D01*
X1223462D02*
X1226670Y959970D01*
X1216998Y956762D02*
X1223462D01*
X1216878Y944590D02*
Y950178D01*
X1246170Y966470D02*
X1246378D01*
X1249143Y970026D02*
X1249172D01*
X1246170Y972866D02*
Y972970D01*
X1223462Y937034D02*
Y950262D01*
X1212088Y939800D02*
X1216878Y944590D01*
X1228598Y941324D02*
Y943864D01*
X1223462Y950262D02*
X1226670Y953470D01*
X1229878Y945144D02*
Y950178D01*
X1233170Y953470D02*
Y953516D01*
X1246170Y972970D02*
X1246199D01*
X1246170Y979470D02*
Y979724D01*
X1252670Y976220D02*
X1255639D01*
X1228598Y943864D02*
X1229878Y945144D01*
X1226670Y953470D02*
X1226828D01*
X1229878Y950178D02*
X1233170Y953470D01*
X1255639Y976220D02*
X1255795Y976376D01*
D113*
X555993Y912843D02*
D03*
D114*
X568733Y913052D02*
D03*
D115*
X1343152Y1132078D02*
D03*
Y1157478D02*
D03*
X1283208Y819476D02*
D03*
X1308608D02*
D03*
X1334008D02*
D03*
X1359408D02*
D03*
D116*
X1384808D02*
D03*
D117*
X571500Y803910D02*
D03*
D118*
X551500D02*
D03*
D119*
X298450Y1173480D02*
D03*
X1292860D02*
D03*
D120*
X631444Y1045350D02*
D03*
D121*
Y1025350D02*
D03*
D122*
X1341882Y913290D02*
D03*
X1177544Y900430D02*
D03*
X542262Y893826D02*
D03*
X1217168Y1057910D02*
D03*
X958758Y1006602D02*
D03*
X863978Y1008126D02*
D03*
X632206Y889762D02*
D03*
X584454Y893064D02*
D03*
X1230888Y1094490D02*
D03*
X1262556Y1057148D02*
D03*
X1358646Y871474D02*
D03*
X1344422Y968756D02*
D03*
X1334770Y1002792D02*
D03*
X1073404Y1061974D02*
D03*
X1050036Y1061730D02*
D03*
X751586Y824842D02*
D03*
D123*
X1236420Y982785D02*
D03*
X1230169Y982405D02*
D03*
X1160743Y914654D02*
D03*
X1160018Y922932D02*
D03*
X1181100Y954786D02*
D03*
X1182820Y960454D02*
D03*
X1201420Y971296D02*
D03*
X1197356Y985970D02*
D03*
X1201420Y981202D02*
D03*
X1196788Y976262D02*
D03*
X400050Y827278D02*
D03*
Y820928D02*
D03*
X1216971Y956735D02*
D03*
X1229855Y956720D02*
D03*
X1223355Y963220D02*
D03*
X1236420Y976285D02*
D03*
Y963285D02*
D03*
X1249420D02*
D03*
X1243076Y963422D02*
D03*
X1242966Y976220D02*
D03*
X1249172Y970026D02*
D03*
X1229975Y963340D02*
D03*
X1223566Y982509D02*
D03*
X1223462Y976122D02*
D03*
X1216962Y969744D02*
D03*
X1242822Y989076D02*
D03*
X1242920Y969785D02*
D03*
X1255818Y963388D02*
D03*
X1271778Y959970D02*
D03*
X1216914Y982726D02*
D03*
X1223462Y937034D02*
D03*
X1249426Y982726D02*
D03*
X1255795Y976376D02*
D03*
X1275842Y977646D02*
D03*
X1261364Y934720D02*
D03*
X1227074Y1004316D02*
D03*
X1212088Y939800D02*
D03*
X1228598Y941324D02*
D03*
X1375664Y923036D02*
D03*
X1378204Y928210D02*
D03*
D124*
X1268476Y1007872D02*
D03*
X1242822Y1007110D02*
D03*
X1377188Y904240D02*
D03*
D125*
X803148Y1082548D02*
D03*
Y1096772D02*
D03*
X682244Y1098804D02*
D03*
X556260Y1088644D02*
D03*
X824230Y1180846D02*
D03*
X1165098Y1102360D02*
D03*
X774446Y790364D02*
D03*
X1204214Y850646D02*
D03*
X790194Y874626D02*
D03*
X789940Y965304D02*
D03*
D126*
X346202Y812292D02*
D03*
X329184Y827532D02*
D03*
D127*
X1117354Y928432D02*
D03*
X984504Y937768D02*
D03*
X997758Y945596D02*
D03*
X1131316Y1012444D02*
D03*
X1132586Y1032764D02*
D03*
X1104646Y950468D02*
D03*
X1088136D02*
D03*
X1075182Y949706D02*
D03*
X944372Y883412D02*
D03*
Y922274D02*
D03*
M02*
