G04*
G04 #@! TF.GenerationSoftware,Altium Limited,Altium Designer,19.0.10 (269)*
G04*
G04 Layer_Color=16711935*
%FSLAX44Y44*%
%MOMM*%
G71*
G01*
G75*
D16*
X1209740Y1141860D02*
D03*
Y1160860D02*
D03*
X554482Y1063498D02*
D03*
Y1044498D02*
D03*
X797820Y1180084D02*
D03*
Y1161084D02*
D03*
D22*
X1134810Y1152020D02*
D03*
X1154810Y1142520D02*
D03*
Y1161520D02*
D03*
D29*
X561086Y997138D02*
D03*
Y977138D02*
D03*
X482600Y997138D02*
D03*
Y977138D02*
D03*
X1134810Y1118710D02*
D03*
Y1098710D02*
D03*
X1183070Y1161860D02*
D03*
Y1141860D02*
D03*
X508762Y997138D02*
D03*
Y977138D02*
D03*
X534924Y997138D02*
D03*
Y977138D02*
D03*
X600812Y1014222D02*
D03*
Y994222D02*
D03*
X656844Y1096198D02*
D03*
Y1076198D02*
D03*
D30*
X1155130Y1187580D02*
D03*
X1175130D02*
D03*
D51*
X581812Y1040638D02*
D03*
X600812D02*
D03*
D54*
X1343152Y1132078D02*
D03*
Y1157478D02*
D03*
X1283208Y819476D02*
D03*
X1308608D02*
D03*
X1334008D02*
D03*
X1359408D02*
D03*
D55*
X1384808D02*
D03*
D56*
X571500Y803910D02*
D03*
D57*
X551500D02*
D03*
D58*
X298450Y1173480D02*
D03*
X1292860D02*
D03*
D59*
X631444Y1045350D02*
D03*
D60*
Y1025350D02*
D03*
D137*
X534410Y1208278D02*
D03*
X565410D02*
D03*
X592830D02*
D03*
X623830D02*
D03*
X651250D02*
D03*
X682250D02*
D03*
X709670D02*
D03*
X740670D02*
D03*
X766820D02*
D03*
X797820D02*
D03*
X855478Y1208662D02*
D03*
X824478D02*
D03*
X475990Y1208278D02*
D03*
X506990D02*
D03*
X417570D02*
D03*
X448570D02*
D03*
X390150D02*
D03*
X359150D02*
D03*
D138*
X482666Y1069788D02*
D03*
Y1024188D02*
D03*
D139*
X414666Y1046988D02*
D03*
D140*
X855478Y1180084D02*
D03*
Y1149084D02*
D03*
D141*
X632714Y1063498D02*
D03*
Y1076198D02*
D03*
Y1088898D02*
D03*
Y1101598D02*
D03*
X578474D02*
D03*
Y1088898D02*
D03*
Y1076198D02*
D03*
Y1063498D02*
D03*
D142*
X354834Y1046988D02*
D03*
X290834D02*
D03*
D143*
X354584Y1112160D02*
D03*
Y1153160D02*
D03*
D144*
X394542Y1126452D02*
D03*
Y1153452D02*
D03*
X426292Y1126452D02*
D03*
Y1153452D02*
D03*
M02*
